<svg height="24" viewBox="0 0 24 24" width="24" xmlns="http://www.w3.org/2000/svg"><path d="m19.9999999 1.99999995h-15.99999995c-1.1 0-2 .9-2 2v15.99999995c0 1.1000001.9 2.0000002 2 2h15.99999995c1.1000001.0000002 2.0000002-.8999999 2-2v-15.99999995c.0000002-1.1-.8999999-2-2-2zm-3.9999999 10.00000005c0 .7-.2 1.4-.6 2l-2-2 2-2.00000001c.4.60000001.6 1.30000001.6 2.00000001zm-8.00000002 0c0-.7.2-1.4.6-2.00000001l2.00000002 2.00000001-2.00000002 2c-.4-.6-.6-1.3-.6-2zm2.00000001-3.40000002c.60000001-.4 1.30000001-.6 2.00000001-.6s1.4.2 2 .6l-2 2.00000002zm2.00000001 4.80000002 2 2c-.6.4-1.3.6-2 .6s-1.4-.2-2.00000001-.6zm3.5-6.30000002c-1-.70000001-2.2-1.10000001-3.5-1.10000001s-2.50000001.4-3.50000002 1.10000001l-3.10000001-3.10000002h13.20000003zm-8.40000002 1.4c-.70000001 1.00000001-1.10000001 2.20000002-1.10000001 3.50000002s.4 2.5 1.10000001 3.5l-3.10000002 3.1v-13.20000003zm1.4 8.40000002c1.00000001.7 2.20000002 1.1 3.50000002 1.1s2.5-.4 3.5-1.1l3.1 3.1h-13.20000003zm8.40000002-1.4c.7-1 1.1-2.2 1.1-3.5s-.4-2.50000001-1.1-3.50000002l3.1-3.10000001v13.20000003z" fill="#fff" fill-rule="evenodd"/></svg>