<svg xmlns="http://www.w3.org/2000/svg" xmlns:xlink="http://www.w3.org/1999/xlink" width="24" height="24" viewBox="0 0 24 24">
  <defs>
    <path id="bug-a" d="M16.4547002,17.3648477 L13.3943671,20.4260452 C12.6270588,21.1913183 11.3843412,21.1913183 10.6159932,20.4250068 L7.55518505,17.3633285 L6.00040678,18.9181068 L6.0003,20.999 L4.0003,20.999 L4.0003,18.919 C4.0003,18.388165 4.21138695,17.8786995 4.58619322,17.5038932 L6.50696729,15.5831191 C6.50579157,15.5554858 6.5052,15.5277739 6.5052,15.5 L6.5052,15 L4.0043,15 L4.0043,13 L6.5052,13 L6.5052,12.5342136 L4.58979322,10.6188068 C4.21500624,10.2440198 4.0039,9.73556593 4.0039,9.2047 L4.0039,6.9997 L6.0039,6.9997 L6.0039,9.2047 L6.7318983,9.93262275 C7.02959536,8.93004653 7.60551809,8.04699469 8.37008319,7.37299675 L7.59019322,6.59310678 C7.21480953,6.21772309 7.0043,5.70943249 7.0043,5.179 L7.0043,3 L9.0043,3 L9.0043,5.179 L10.1473575,6.3218916 C10.727748,6.11352856 11.3532639,6 12.0052,6 C12.6568043,6 13.2819638,6.11334726 13.862035,6.32139815 L15.0050932,5.17989322 L15.0052,3.001 L17.0052,3.001 L17.0052,5.18 C17.0052,5.70966853 16.7945246,6.21888896 16.4188259,6.59458732 L15.639994,7.37236108 C16.4044388,8.04606904 16.9802915,8.92877766 17.2781258,9.93106068 L18.0045932,9.20459322 L18.0047,6.9997 L20.0047,6.9997 L20.0047,9.2047 C20.0047,9.73556593 19.7935938,10.2440198 19.4188068,10.6188068 L17.5052,12.5324136 L17.5052,13 L20.0043,13 L20.0043,15 L17.5052,15 L17.5052,15.5 C17.5052,15.5283542 17.5045863,15.5566442 17.5033662,15.5848527 L19.4224068,17.5038932 C19.7972131,17.8786995 20.0083,18.388165 20.0083,18.919 L20.0083,20.999 L18.0083,20.999 L18.0083,18.919 L16.4547002,17.3648477 Z M15.5052,12.5 L13.0043,12.5 L13.0043,17.9873984 L15.5052,15.4857944 L15.5052,12.5 Z M11.0043,12.5 L8.5052,12.5 L8.5052,15.4847892 L11.0043,17.9845973 L11.0043,12.5 Z M12.0052,8 C10.4205169,8 9.08082803,9.0545836 8.65028247,10.5 L15.3602079,10.5 C14.92984,9.05439519 13.5904422,8 12.0052,8 Z"/>
  </defs>
  <use fill="#fff" fill-rule="evenodd" xlink:href="#bug-a"/>
</svg>
