<svg xmlns="http://www.w3.org/2000/svg" width="24" height="24" viewBox="0 0 24 24">
  <defs>
    <filter id="open-filter">
      <feColorMatrix
        color-interpolation-filters="sRGB"
        type="matrix"
        values="0.4627450980392157 0 0 0 0
                0 0.058823529411764705 0 0 0
                0 0 0.7647058823529411 0 0
                0 0 0 1 0 "/>
    </filter>
   </defs>
  <path fill="#333" fill-rule="evenodd" d="M6,12 L4,12 L4,18.586 L7.115,15.471 C6.416,14.49 6,13.294 6,12 Z M10.586,12 L8,12 C8,12.739 8.216,13.425 8.566,14.02 L10.586,12 Z M16,12 L13.414,12 L15.434,14.02 C15.784,13.425 16,12.739 16,12 Z M20,12 L18,12 C18,13.294 17.584,14.49 16.885,15.471 L20,18.586 L20,12 Z M9.98,15.434 C10.575,15.784 11.261,16 12,16 C12.739,16 13.425,15.784 14.02,15.434 L12,13.414 L9.98,15.434 Z M5.414,20 L18.586,20 L15.471,16.885 C14.49,17.584 13.294,18 12,18 C10.706,18 9.51,17.584 8.529,16.885 L5.414,20 Z M2,12 L2,10 L22,10 L22,12 L22,20 C22,21.103 21.103,22 20,22 L4,22 C2.897,22 2,21.103 2,20 L2,12 Z M2,8 L2,6 L22,6 L22,8 L2,8 Z M20,2 C21.104,2 22,2.896 22,4 L2,4 C2,2.896 2.896,2 4,2 L20,2 Z"/>
</svg>
