<svg xmlns="http://www.w3.org/2000/svg" width="24" height="24" viewBox="0 0 24 24">
  <path fill="#fff" fill-rule="evenodd" d="M6,4 L6,20 L18,20 L18,7.82842712 L14.1715729,4 L6,4 Z M6,2 L14.1715729,2 C14.7020059,2 15.2107137,2.21071368 15.5857864,2.58578644 L19.4142136,6.41421356 C19.7892863,6.78928632 20,7.29799415 20,7.82842712 L20,20 C20,21.1045695 19.1045695,22 18,22 L6,22 C4.8954305,22 4,21.1045695 4,20 L4,4 C4,2.8954305 4.8954305,2 6,2 Z M7,5 L9,5 L9,10 L7,10 L7,5 Z M10,5 L12,5 L12,10 L10,10 L10,5 Z M13,6 L15,6 L15,10 L13,10 L13,6 Z"/>
</svg>
