<svg xmlns="http://www.w3.org/2000/svg" id="uuid-89f0332f-f48f-49e5-8322-25bdc0d492dd" width="24" height="24" viewBox="0 0 407.48 503.89"><defs></defs><g id="uuid-44d43213-2312-414e-9acc-199968664b82"><path fill="#333" class="uuid-0c70f59c-ad82-40ee-9b51-410503d1c12c" d="m407.35,187c.01-.29.14-.55.14-.84h-.14V53.43c.01-.29.14-.55.14-.84C407.48,9.13,296.72,0,203.8,0S.43,9.12.14,52.42h-.14v265.81h0l.06,133c0,43.52,110.79,52.67,203.74,52.67s203.63-9.14,203.63-52.68l-.08-131.98c.01-.29.14-.54.14-.84h-.14v-131.39Zm-42.36,123.55c-15.97,7.24-71.32,18.07-161.18,18.07s-145.85-10.95-161.43-18.19v-87.87c40.74,12.71,104.4,16.19,161.43,16.19s120.43-3.47,161.18-16.12v87.92Zm-322.51,7.85h-.11v-.48c0,.19.11.28.11.48Zm-.11-229.42c40.74,12.71,104.4,16.19,161.43,16.19s120.43-3.47,161.18-16.12v89.25c-15.97,7.25-71.32,18.08-161.18,18.08s-145.85-10.96-161.43-18.21v-89.19Zm161.43-46.61c59.96,0,104.78,4.84,132.69,10.22-27.91,5.38-72.73,10.22-132.69,10.22s-104.78-4.84-132.69-10.22c27.91-5.38,72.73-10.22,132.69-10.22ZM42.36,185.68c0,.19.11.28.11.48h-.11v-.48Zm161.43,275.85c-89.28,0-144.97-10.78-161.38-18.05l-.04-88.68c40.74,12.7,104.39,16.18,161.42,16.18s120.46-3.47,161.21-16.12l.06,88.63c-16.41,7.27-72.07,18.04-161.27,18.04Z"/></g></svg>