<svg xmlns="http://www.w3.org/2000/svg" xmlns:xlink="http://www.w3.org/1999/xlink" width="24" height="24" viewBox="0 0 24 24">
  <defs>
    <path id="chat-message-a" d="M3.99999996,4.49999996 L3.99999996,19 L7.79999998,16.8 C8.09999998,16.6 8.49999996,16.5 8.79999998,16.5 L20,16.5 L20,4.49999996 L3.99999996,4.49999996 Z M3.99999995,2.49999995 L19.9999999,2.49999995 C21.1,2.49999995 22.0000001,3.39999996 21.9999999,4.49999995 L21.9999999,16.5 C22.0000001,17.6 21.1,18.5 19.9999999,18.5 L8.79999998,18.5 L4.99999996,20.7 C3.99999996,21.3 2.79999995,20.9 2.29999995,20 C2.09999995,19.7 1.99999995,19.3 1.99999995,19 L1.99999995,4.49999995 C1.99999995,3.39999996 2.89999995,2.49999995 3.99999995,2.49999995 Z M11,6.49999997 L13,6.49999997 L13,11.5 L11,11.5 L11,6.49999997 Z M11,12.5 L13,12.5 L13,14.5 L11,14.5 L11,12.5 Z"/>
  </defs>
  <use fill="#cc9e00" fill-rule="evenodd" xlink:href="#chat-message-a"/>
</svg>
