<svg xmlns="http://www.w3.org/2000/svg" xmlns:xlink="http://www.w3.org/1999/xlink" width="24" height="24" viewBox="0 0 24 24">
  <defs>
      <filter id="open-filter">
        <feColorMatrix
          color-interpolation-filters="sRGB"
          type="matrix"
          values="0.4627450980392157 0 0 0 0
                  0 0.058823529411764705 0 0 0
                  0 0 0.7647058823529411 0 0
                  0 0 0 1 0 "/>
       </filter>
    <path id="code-a" d="M5.9883,19.5839 C6.2963,19.9129 6.8003,20.0779 7.4993,20.0779 L9.0003,20.0779 L9.0003,22.0779 L7.8033,22.0779 C6.7473,22.0779 5.8803,21.9589 5.2013,21.7209 C4.5223,21.4829 4.0053,21.0739 3.6483,20.4929 C3.2923,19.9119 3.1133,19.1149 3.1133,18.1009 L3.1403,14.7609 C3.1403,14.0829 3.0393,13.6559 2.8363,13.3939 C2.6343,13.1309 2.3223,12.9999 1.9023,12.9999 L1.0003,12.9999 L1.0003,10.9999 L1.8823,10.9999 C2.3293,10.9999 2.6603,10.8629 2.8733,10.5909 C3.0863,10.3179 3.1933,9.9199 3.1933,9.3259 L3.1443,5.8719 C3.1443,4.5989 3.4933,3.6349 4.1883,2.9809 C4.8843,2.3269 5.9083,1.9999 7.2583,1.9999 L9.0003,1.9999 L9.0003,3.9969 L6.8903,3.9969 C6.4293,3.9969 6.0883,4.1409 5.8683,4.4279 C5.6473,4.7139 5.5373,5.1449 5.5373,5.7179 L5.5753,9.0839 C5.5753,9.7139 5.4403,10.2789 5.1713,10.7789 C4.9013,11.2789 4.5253,11.6839 4.0433,11.9909 C4.4903,12.2769 4.8503,12.6899 5.1243,13.2299 C5.3963,13.7679 5.5333,14.3759 5.5333,15.0549 L5.5263,17.9999 C5.5263,18.7279 5.6803,19.2559 5.9883,19.5839 Z M22.1182,11 L23.0002,11 L23.0002,13 L22.0972,13 C21.6782,13 21.3662,13.131 21.1642,13.394 C20.9612,13.656 20.8592,14.083 20.8592,14.761 L20.8872,18.101 C20.8872,19.115 20.7082,19.912 20.3512,20.493 C19.9952,21.074 19.4772,21.483 18.7992,21.721 C18.1202,21.959 17.2532,22.078 16.1962,22.078 L15.0002,22.078 L15.0002,20.078 L16.5012,20.078 C17.2002,20.078 17.7042,19.913 18.0122,19.584 C18.3192,19.256 18.4732,18.728 18.4732,18 L18.4672,15.055 C18.4672,14.376 18.6032,13.768 18.8762,13.229 C19.1492,12.69 19.5102,12.277 19.9572,11.991 C19.4742,11.684 19.0982,11.279 18.8292,10.779 C18.5592,10.279 18.4252,9.714 18.4252,9.084 L18.4632,5.718 C18.4632,5.145 18.3522,4.714 18.1322,4.428 C17.9122,4.141 17.5702,3.997 17.1092,3.997 L15.0002,3.997 L15.0002,2 L16.7422,2 C18.0922,2 19.1152,2.327 19.8112,2.981 C20.5072,3.635 20.8552,4.599 20.8552,5.872 L20.8062,9.326 C20.8062,9.92 20.9142,10.318 21.1272,10.591 C21.3402,10.863 21.6712,11 22.1182,11 Z M13.625,6.5 L15.357,7.5 L10.482,17.5 L8.75,16.5 L13.625,6.5 Z"/>
  </defs>
  <use fill="#333" fill-rule="evenodd" xlink:href="#code-a"/>
</svg>
