<svg xmlns="http://www.w3.org/2000/svg" width="24" height="24" viewBox="0 0 24 24">
  <defs>
    <filter id="open-filter">
      <feColorMatrix
        color-interpolation-filters="sRGB"
        type="matrix"
        values="0.4627450980392157 0 0 0 0
                0 0.058823529411764705 0 0 0
                0 0 0.7647058823529411 0 0
                0 0 0 1 0 "/>
     </filter>
   </defs>
  <path fill="#333" fill-rule="evenodd" d="M9.602,17.58 L10.356,15.964 L9.753,15.408 L8.565,15.455 C8.539,15.456 8.512,15.457 8.485,15.457 C8.454,15.457 8.423,15.449 8.392,15.448 L6.969,18.498 L8.78,19.343 L9.602,17.58 Z M7.695,8.439 L6.62,10.172 L8.213,11.427 L8.487,13.455 L10.501,13.376 L11.995,14.752 L13.488,13.376 L15.502,13.455 L15.776,11.427 L17.37,10.172 L16.294,8.439 L16.721,6.438 L14.801,5.813 L13.862,4.002 L11.995,4.776 L10.127,4.002 L9.188,5.813 L7.268,6.438 L7.695,8.439 Z M15.218,19.343 L17.028,18.498 L15.606,15.447 C15.571,15.449 15.539,15.457 15.504,15.457 C15.477,15.457 15.451,15.456 15.424,15.455 L14.236,15.408 L13.639,15.958 L14.396,17.58 L15.218,19.343 Z M19.688,19.466 L14.249,22.002 L11.998,17.175 L9.748,22.002 L4.31,19.466 L6.699,14.344 C6.603,14.152 6.533,13.945 6.502,13.723 L6.338,12.497 L5.381,11.745 C4.581,11.114 4.381,9.982 4.919,9.117 L5.569,8.069 L5.311,6.856 C5.097,5.854 5.674,4.853 6.648,4.536 L7.79,4.164 L8.352,3.08 C8.706,2.398 9.402,2 10.128,2 C10.385,2 10.645,2.05 10.895,2.153 L11.995,2.609 L13.094,2.153 C13.344,2.05 13.604,2 13.861,2 C14.587,2 15.284,2.398 15.637,3.08 L16.2,4.164 L17.341,4.536 C18.315,4.853 18.892,5.854 18.678,6.856 L18.42,8.069 L19.07,9.117 C19.608,9.982 19.409,11.114 18.608,11.745 L17.651,12.497 L17.487,13.723 C17.456,13.941 17.387,14.145 17.294,14.334 L19.688,19.466 Z M11.4096,12.1523 L8.6756,9.4183 L10.0896,8.0043 L11.4096,9.3243 L13.8996,6.8353 L15.3136,8.2493 L11.4096,12.1523 Z"/>
</svg>
