<svg xmlns="http://www.w3.org/2000/svg" width="24" height="24" viewBox="0 0 24 24">
  <path fill="#fff" fill-rule="evenodd" d="M19,11 L19,13 L22,13 L22,15 L19,15 L19,16.6666667 C19,17.9553311 17.9553311,19 16.6666667,19 L15,19 L15,22 L13,22 L13,19 L11,19 L11,22 L9,22 L9,19 L7.33333333,19 C6.04466892,19 5,17.9553311 5,16.6666667 L5,15 L2,15 L2,13 L5,13 L5,11 L2,11 L2,9 L5,9 L5,7.33333333 C5,6.04466892 6.04466892,5 7.33333333,5 L9,5 L9,2 L11,2 L11,5 L13,5 L13,2 L15,2 L15,5 L16.6666667,5 C17.9553311,5 19,6.04466892 19,7.33333333 L19,9 L22,9 L22,11 L19,11 Z M8.25,7 C7.55964406,7 7,7.55964406 7,8.25 L7,15.75 C7,16.4403559 7.55964406,17 8.25,17 L15.75,17 C16.4403559,17 17,16.4403559 17,15.75 L17,8.25 C17,7.55964406 16.4403559,7 15.75,7 L8.25,7 Z M10,9 L14,9 C14.5522847,9 15,9.44771525 15,10 L15,14 C15,14.5522847 14.5522847,15 14,15 L10,15 C9.44771525,15 9,14.5522847 9,14 L9,10 C9,9.44771525 9.44771525,9 10,9 Z"/>
</svg>
