<svg xmlns="http://www.w3.org/2000/svg" width="24" height="24" viewBox="0 0 24 24">
  <defs>
    <filter id="open-filter">
      <feColorMatrix
        color-interpolation-filters="sRGB"
        type="matrix"
        values="0.4627450980392157 0 0 0 0
                0 0.058823529411764705 0 0 0
                0 0 0.7647058823529411 0 0
                0 0 0 1 0 "/>
     </filter>
   </defs>
  <path fill="#333" fill-rule="evenodd" d="M13.6707311,19.2703944 L10.3035559,22.6375695 L8.60649967,20.9405133 L9.85908883,17.1423397 L7.31350442,14.5967553 L3.51533086,15.8493444 L1.81827458,14.1522882 L5.18544973,10.785113 L5.32013673,10.650426 C5.71066103,10.2599017 6.34382601,10.2599017 6.7343503,10.650426 L7.74871621,11.6647919 C9.17840238,9.23190567 11.7859943,5.8725731 12.4305291,5.23715629 C14.8853943,2.81701906 20.7503709,2.77980818 21.21322,3.24265727 C21.6760691,3.70550636 21.6526294,9.59143987 19.218721,12.0253482 C18.5787452,12.665324 15.4492844,15.5027877 13.019568,16.9356437 L13.8054181,17.7214938 C14.1959424,18.1120181 14.1959424,18.7451831 13.8054181,19.1357074 L13.6707311,19.2703944 Z M11.5495511,15.4656268 C12.1340548,15.1626376 12.8747557,14.6809083 13.7133789,14.0611484 C15.2181642,12.9490808 17.0588578,11.3567843 17.8045074,10.6111346 C18.518621,9.89702113 19.0749683,8.41010177 19.3209152,6.62228589 C19.39805,6.06158383 19.4392829,5.50444307 19.4457314,5.01301352 C18.956762,5.02039981 18.402284,5.06233692 17.8436606,5.13982097 C16.0550277,5.38791393 14.561119,5.945199 13.8346326,6.66140813 C13.3929688,7.09682386 11.8056326,9.14925809 10.629933,10.8725164 C10.0372598,11.7412152 9.55122111,12.5159767 9.21550485,13.1315806 L9.42135607,13.3374318 L11.5495511,15.4656268 Z M6.8959747,15.8628131 L8.59303105,17.5598695 C7.29902406,18.8538764 6.45723026,19.6956702 6.06764965,20.0852508 C5.67806905,20.4748315 5.11329973,20.4739154 4.37334169,20.0825025 C3.98192888,19.3425445 3.98101277,18.7777752 4.37059338,18.3881945 C4.76017398,17.9986139 5.60196776,17.1568201 6.8959747,15.8628131 Z M15.85,10 C15.0215729,10 14.35,9.32842712 14.35,8.5 C14.35,7.67157288 15.0215729,7 15.85,7 C16.6784271,7 17.35,7.67157288 17.35,8.5 C17.35,9.32842712 16.6784271,10 15.85,10 Z"/>
</svg>
