<svg xmlns="http://www.w3.org/2000/svg" width="24" height="24" viewBox="0 0 24 24" fill="#333">
<path fill-rule="evenodd" clip-rule="evenodd" d="M14.7326 8L12.0483 10.6843L9.24264 7.87868C8.07107 6.70711 6.17157 6.70711 5 7.87868L2.87868 10C1.70711 11.1716 1.70711 13.0711 2.87868 14.2426L5 16.364C6.17157 17.5355 8.07107 17.5355 9.24264 16.364L11.927 13.6796L14.7326 16.4853C15.9042 17.6569 17.8037 17.6569 18.9753 16.4853L21.0966 14.364C22.2682 13.1924 22.2682 11.2929 21.0966 10.1213L18.9753 8C17.8037 6.82843 15.9042 6.82843 14.7326 8ZM7.82843 9.29289L10.6341 12.0986L7.82843 14.9497C7.4379 15.3403 6.80474 15.3403 6.41421 14.9497L4.29289 12.8284C3.90237 12.4379 3.90237 11.8047 4.29289 11.4142L6.41421 9.29289C6.80474 8.90237 7.4379 8.90237 7.82843 9.29289ZM13.3412 12.2654L16.1469 9.41421C16.5374 9.02369 17.1705 9.02369 17.5611 9.41421L19.6824 11.5355C20.0729 11.9261 20.0729 12.5592 19.6824 12.9497L17.5611 15.0711C17.1705 15.4616 16.5374 15.4616 16.1469 15.0711L13.3412 12.2654Z" fill="#333"/>
</svg>