<svg xmlns="http://www.w3.org/2000/svg" xmlns:xlink="http://www.w3.org/1999/xlink" width="24" height="24" viewBox="0 0 24 24">
  <defs>
    <path id="doc-a" d="M5.99999997,3.99999996 L5.99999997,20 L18,20 L18,3.99999996 L5.99999997,3.99999996 Z M5.99999996,1.99999995 L18,1.99999995 C19.1,1.99999995 20,2.89999995 20,3.99999995 L20,19.9999999 C20,21.1 19.1,22.0000001 18,21.9999999 L5.99999996,21.9999999 C4.89999996,22.0000001 3.99999996,21.1 3.99999996,19.9999999 L3.99999996,3.99999995 C3.99999996,2.89999995 4.89999996,1.99999995 5.99999996,1.99999995 Z M7.99999998,5.99999997 L16,5.99999997 L16,7.99999997 L7.99999998,7.99999997 L7.99999998,5.99999997 Z M7.99999998,9.99999999 L15,9.99999999 L15,12 L7.99999998,12 L7.99999998,9.99999999 Z M7.99999998,13 L14,13 L14,15 L7.99999998,15 L7.99999998,13 Z M7.99999998,16 L16,16 L16,18 L7.99999998,18 L7.99999998,16 Z"/>
  </defs>
  <use fill="#333" fill-rule="evenodd" xlink:href="#doc-a"/>
</svg>
