<svg xmlns="http://www.w3.org/2000/svg" width="24" height="24" viewBox="0 0 24 24">
  <defs>
    <filter id="open-filter">
      <feColorMatrix
        color-interpolation-filters="sRGB"
        type="matrix"
        values="0.4627450980392157 0 0 0 0
                0 0.058823529411764705 0 0 0
                0 0 0.7647058823529411 0 0
                0 0 0 1 0 "/>
     </filter>
   </defs>
  <path fill="#333" fill-rule="evenodd" d="M11.9999999,20 L11.9999999,16 L3.99999995,16 L3.99999995,20 L1.99999995,20 L1.99999995,16 C1.99999995,14.8421053 2.84210526,14 3.99999995,14 L11.9999999,14 C13.1578947,14 14,14.8421053 13.9999999,16 L13.9999999,20 L11.9999999,20 Z M19.9999999,20 L19.9999999,16 L14.9999999,16 L14.9999999,14 L19.9999999,14 C21.1578947,14 22,14.8421053 21.9999999,16 L21.9999999,20 L19.9999999,20 Z M14.9999999,7 L14.9999999,10 L15.9999999,10 L15.9999999,7 L14.9999999,7 Z M14.9999999,5 L15.9999999,5 C17.1045695,5 18,5.8954305 17.9999999,7 L17.9999999,10 C18,11.1045695 17.1045695,12 15.9999999,12 L14.9999999,12 C13.8954305,12 12.9999999,11.1045695 12.9999999,10 L12.9999999,7 C12.9999999,5.8954305 13.8954305,5 14.9999999,5 Z M6.99999995,6 L6.99999995,10 L8.99999995,10 L8.99999995,6 L6.99999995,6 Z M6.99999995,4 L8.99999995,4 C10.1045694,4 10.9999999,4.8954305 10.9999999,6 L10.9999999,10 C10.9999999,11.1045695 10.1045694,12 8.99999995,12 L6.99999995,12 C5.89543045,12 4.99999995,11.1045695 4.99999995,10 L4.99999995,6 C4.99999995,4.8954305 5.89543045,4 6.99999995,4 Z"/>
</svg>
