<svg xmlns="http://www.w3.org/2000/svg" width="24" height="24" viewBox="0 0 24 24">
  <defs>
    <filter id="open-filter">
      <feColorMatrix
        color-interpolation-filters="sRGB"
        type="matrix"
        values="0.4627450980392157 0 0 0 0
                0 0.058823529411764705 0 0 0
                0 0 0.7647058823529411 0 0
                0 0 0 1 0 "/>
     </filter>
   </defs>
  <path fill="#fff" fill-rule="evenodd" d="M8,7.25468928 C6.1865159,8.51963541 5,10.6212549 5,13 C5,16.8659932 8.13400675,20 12,20 C15.8659932,20 19,16.8659932 19,13 C19,10.6212549 17.8134841,8.51963541 16,7.25468928 L16,4.93551965 C18.963437,6.40822224 21,9.46627873 21,13 C21,17.9705627 16.9705627,22 12,22 C7.02943725,22 3,17.9705627 3,13 C3,9.46627873 5.03656304,6.40822224 8,4.93551965 L8,7.25468928 Z M11,2 L13,2 L13,10 L11,10 L11,2 Z"/>
</svg>
