<svg xmlns="http://www.w3.org/2000/svg" width="24" height="24" viewBox="0 0 24 24">
  <path fill="#FFF" fill-rule="evenodd" d="M11.9993861,2 C6.47759362,2 2,6.47697974 2,12.0006139 C2,16.4180479 4.86494782,20.1657459 8.83916513,21.4886433 C9.33947207,21.5801105 9.52179251,21.2713321 9.52179251,21.0061387 C9.52179251,20.7691835 9.51319828,20.1399632 9.50828729,19.305709 C6.72682627,19.9097606 6.13996317,17.9650092 6.13996317,17.9650092 C5.68508287,16.8096992 5.02946593,16.5027624 5.02946593,16.5027624 C4.12154696,15.8821363 5.09821977,15.8944138 5.09821977,15.8944138 C6.10190301,15.9656231 6.62983425,16.9251074 6.62983425,16.9251074 C7.52179251,18.4530387 8.9699202,18.0116636 9.54020872,17.7562922 C9.631062,17.1098834 9.88888889,16.6691222 10.174954,16.4192756 C7.95457336,16.1669736 5.62001228,15.3087784 5.62001228,11.4769797 C5.62001228,10.3855126 6.00982198,9.49294045 6.64947821,8.79373849 C6.54634745,8.54082259 6.20319214,7.524248 6.7470841,6.14732965 C6.7470841,6.14732965 7.58686311,5.87845304 9.49723757,7.17249847 C10.2946593,6.95027624 11.150399,6.83977901 12.0006139,6.83548189 C12.849601,6.83977901 13.7053407,6.95027624 14.5039902,7.17249847 C16.4131369,5.87845304 17.2510743,6.14732965 17.2510743,6.14732965 C17.7968079,7.524248 17.4536525,8.54082259 17.3505218,8.79373849 C17.9914058,9.49294045 18.37876,10.3855126 18.37876,11.4769797 C18.37876,15.3186004 16.0405157,16.1639042 13.8127686,16.4112953 C14.1718846,16.7200737 14.4917127,17.330264 14.4917127,18.2633517 C14.4917127,19.5997545 14.4794352,20.6783303 14.4794352,21.0061387 C14.4794352,21.2737876 14.6593002,21.5850215 15.1669736,21.4874156 C19.1368938,20.1620626 22,16.4168201 22,12.0006139 C22,6.47697974 17.5224064,2 11.9993861,2"/>
</svg>
