<svg xmlns="http://www.w3.org/2000/svg" width="24" height="24" viewBox="0 0 24 24">
  <defs>
    <filter id="open-filter">
      <feColorMatrix
        color-interpolation-filters="sRGB"
        type="matrix"
        values="0.4627450980392157 0 0 0 0
                0 0.058823529411764705 0 0 0
                0 0 0.7647058823529411 0 0
                0 0 0 1 0 "/>
     </filter>
   </defs>
  <path fill="#333" fill-rule="evenodd" d="M12,20 C16.4,20 20,16.4 20,12 C20,7.59999998 16.4,3.99999996 12,3.99999996 C7.59999998,3.99999996 3.99999996,7.59999998 3.99999996,12 C3.99999996,16.4 7.59999998,20 12,20 Z M11.9999999,21.9999999 C6.49999995,21.9999999 1.99999995,17.4999999 1.99999995,11.9999999 C1.99999995,6.49999995 6.49999995,1.99999995 11.9999999,1.99999995 C17.4999999,1.99999995 21.9999999,6.49999995 21.9999999,11.9999999 C21.9999999,17.4999999 17.4999999,21.9999999 11.9999999,21.9999999 Z M12,7.99999997 C12.5522848,7.99999998 13,7.55228473 13,6.99999997 C13,6.44771522 12.5522848,5.99999997 12,5.99999997 C11.4477152,5.99999997 11,6.44771522 11,6.99999997 C11,7.55228473 11.4477152,7.99999998 12,7.99999997 Z M9.59999999,11.9 L8.99999998,9.99999999 L11.7,9.09999999 C12.4,8.89999998 13.1,9.49999999 13,10.2 L12.2,15.5 L13.7,15 L14.3,16.9 L11.3,17.9 C10.6,18.1 9.89999999,17.5 9.99999999,16.8 L10.8,11.4 L9.59999999,11.9 Z"/>
</svg>
