<svg viewBox="0 0 24 24" width="24" height="24" xmlns="http://www.w3.org/2000/svg">><path d="M16.844 10.485 15.429 9.07l-2.844 2.844a2 2 0 1 0 1.364 1.464l2.895-2.894Z" fill="#333"></path><path fill-rule="evenodd" clip-rule="evenodd" d="M20.486 21A10.955 10.955 0 0 0 23 14c0-6.075-4.925-11-11-11S1 7.925 1 14c0 2.66.944 5.098 2.514 7h16.972Zm.46-6a8.948 8.948 0 0 1-1.462 4H4.517a8.947 8.947 0 0 1-1.461-4H5v-2H3.055a8.957 8.957 0 0 1 1.913-4.618l1.446 1.446 1.414-1.414-1.446-1.446A8.957 8.957 0 0 1 11 5.055V7h2V5.055a8.956 8.956 0 0 1 4.522 1.837l-1.25 1.25 1.414 1.415 1.27-1.27A8.96 8.96 0 0 1 20.945 13H19v2h1.945Z" fill="#333"></path></svg>