<svg xmlns="http://www.w3.org/2000/svg" xmlns:xlink="http://www.w3.org/1999/xlink" width="24" height="24" viewBox="0 0 24 24">
  <defs>
    <filter id="open-filter">
      <feColorMatrix
        color-interpolation-filters="sRGB"
          type="matrix"
          values="0.4627450980392157 0 0 0 0
                  0 0.058823529411764705 0 0 0
                  0 0 0.7647058823529411 0 0
                  0 0 0 1 0 "/>
    </filter>
    <path id="bug-a" d="m9.33318 10.6667h-8v-8.00003h3.33333v-1.33334h-3.706665c-.26-.00666-.506666.08667-.686666.26667-.186667.17333-.28000037.42-.2733337.67333v8.79337c-.00666667.2533.0866667.4933.2733337.6733.18.18.433333.2733.686666.2667h8.746665c.53329 0 .95999-.42.95999-.94v-3.73337h-1.33332zm.39333-9.33337h-2.39333c-.36667 0-.66667-.3-.66667-.666663 0-.366667.3-.666667.66667-.666667h4.00002c.3666 0 .6666.3.6666.666667v4.000003c0 .36666-.3.66666-.6666.66666-.3667 0-.6667-.3-.6667-.66666v-2.39334l-2.74665 2.74667c-.26.26-.68.26-.94 0s-.26-.68 0-.94z"/>
  </defs>
  <use fill="#fff" fill-rule="evenodd" xlink:href="#bug-a"/>
</svg>
