<svg xmlns="http://www.w3.org/2000/svg" xmlns:xlink="http://www.w3.org/1999/xlink" width="18" height="18" viewBox="0 0 24 24">
  <defs>
    <path id="magnifier-a" d="M10.9581151,16.9267015 C14.2408376,16.9267015 16.9267015,14.2408376 16.9267015,10.9581151 C16.9267015,7.67539262 14.2408376,4.98952875 10.9581151,4.98952875 C7.67539262,4.98952875 4.98952875,7.67539262 4.98952875,10.9581151 C4.98952875,14.2408376 7.67539262,16.9267015 10.9581151,16.9267015 Z M17.2251308,15.8324607 L21.9999999,20.6073298 L20.6073298,21.9999999 L15.8324607,17.2251308 C14.539267,18.3193717 12.748691,18.9162303 10.9581151,18.9162303 C6.58115178,18.9162303 2.99999995,15.3350785 2.99999995,10.9581151 C2.99999995,6.58115178 6.58115178,2.99999995 10.9581151,2.99999995 C15.3350785,2.99999995 18.9162303,6.58115178 18.9162303,10.9581151 C18.9162303,12.748691 18.3193717,14.539267 17.2251308,15.8324607 Z"/>
  </defs>
  <use fill="#B0A3B7" fill-rule="evenodd" xlink:href="#magnifier-a"/>
</svg>
