<svg width="24" height="24" viewBox="0 0 24 24" fill="none" xmlns="http://www.w3.org/2000/svg">
<path d="M3.83678 12.9994H0V11.0006H2.02571C2.26719 8.59922 3.327 6.45277 4.91001 4.84293C6.51984 3.21968 8.65288 2.14645 11.0408 1.90497L11.0945 0H13.0933L13.0397 3.72946C9.92733 3.72946 7.6199 4.4673 5.67468 7.00279L11.0274 6.96255C11.5774 6.96255 12.0201 7.40525 12.0201 7.95528C12.0201 8.50531 11.5774 8.96143 11.0274 8.96143L4.54779 9.00168C3.91727 10.5981 3.83678 11.3494 3.83678 12.9994ZM22.0816 12.9994C21.8535 15.374 20.8072 17.5204 19.2376 19.1302C17.6277 20.7803 15.4544 21.867 13.0397 22.095V24H11.0542L11.0274 20.2705C14.1934 20.2705 16.474 19.5729 18.4461 16.9972H12.9994C12.4494 16.9972 11.9933 16.5545 11.9933 16.0045C11.9933 15.441 12.4494 14.9983 12.9994 14.9983H19.5729C20.1901 13.4421 20.2571 12.6104 20.2571 11.014L23.9866 11.0542L24 13.0531L22.0816 12.9994ZM7.99553 11.0006H15.9642V12.9994H7.99553V11.0006Z" fill="#fff"/>
</svg>
