<svg xmlns="http://www.w3.org/2000/svg" width="24" height="24" viewBox="0 0 24 24" fill="none">
<path d="M6 5V7H8V5H6Z" fill="currentColor"/>
<path d="M17 16H15V14H17V16Z" fill="currentColor"/>
<path d="M8 8H6V10H8V8Z" fill="currentColor"/>
<path d="M11 5H9V7H11V5Z" fill="currentColor"/>
<path d="M6 13V11H8V13H6Z" fill="currentColor"/>
<path d="M6 16V14H8V16H6Z" fill="currentColor"/>
<path d="M15 10V8H17V10H15Z" fill="currentColor"/>
<path d="M17 11H15V13H17V11Z" fill="currentColor"/>
<path d="M9 8H11V10H9V8Z" fill="currentColor"/>
<path d="M9 11V13H11V11H9Z" fill="currentColor"/>
<path d="M9 14H11V16H9V14Z" fill="currentColor"/>
<path fill-rule="evenodd" clip-rule="evenodd" d="M5 2C3.89543 2 3 2.89543 3 4V22H21V20H20V16C20.5523 16 21 15.5523 21 15V14H20V13C20.5523 13 21 12.5523 21 12V11H20V10C20.5523 10 21 9.55228 21 9V8H20V7C20 5.89543 19.1046 5 18 5H14V4C14 2.89543 13.1046 2 12 2H5ZM14 20H15V18H17V20H18V7H14V16H12V4H5V20H6V18H8V20H9V18H11V20H12V18H14V20Z" fill="currentColor"/>
</svg>