<svg xmlns="http://www.w3.org/2000/svg" xmlns:xlink="http://www.w3.org/1999/xlink" width="24" height="24" viewBox="0 0 24 24">
  <defs>
    <path id="support-a" d="M12,20 C16.4,20 20,16.4 20,12 C20,7.59999998 16.4,3.99999996 12,3.99999996 C7.59999998,3.99999996 3.99999996,7.59999998 3.99999996,12 C3.99999996,16.4 7.59999998,20 12,20 Z M11.9999999,21.9999999 C6.49999995,21.9999999 1.99999995,17.4999999 1.99999995,11.9999999 C1.99999995,6.49999995 6.49999995,1.99999995 11.9999999,1.99999995 C17.4999999,1.99999995 21.9999999,6.49999995 21.9999999,11.9999999 C21.9999999,17.4999999 17.4999999,21.9999999 11.9999999,21.9999999 Z M10.8,13.5 C10.8,11.5 13.1,11.5 13.1,10.1 C13.1,9.49999999 12.6,9.09999999 11.9,9.09999999 C10.6,8.99999998 10.2,10.1 10.2,10.1 L8.49999998,9.29999999 C8.49999998,9.29999999 9.19999999,6.99999997 11.9,6.99999997 C13.9,6.99999997 15.2,8.29999998 15.2,9.79999999 C15.2,12.4 12.7,12.4 12.7,14.1 L10.9,14.1 C10.9,14.1 10.8,13.8 10.8,13.5 Z M10.6,16 C10.6,15.4 11.1,15 11.7,15 C12.3,15 12.8,15.5 12.8,16 C12.8,16.6 12.3,17 11.7,17 C11.1,17 10.6,16.5 10.6,16 Z"/>
  </defs>
  <use fill="#fff" fill-rule="evenodd" xlink:href="#support-a"/>
</svg>
