<svg xmlns="http://www.w3.org/2000/svg" width="24" height="24" viewBox="0 0 24 24">
  <defs>
    <filter id="open-filter">
      <feColorMatrix
        color-interpolation-filters="sRGB"
        type="matrix"
        values="0.4627450980392157 0 0 0 0
                0 0.058823529411764705 0 0 0
                0 0 0.7647058823529411 0 0
                0 0 0 1 0 "/>
    </filter>
   </defs>
  <path fill="#333" fill-rule="evenodd" d="M13.6714105,8.67536631 L15.3552017,11.5917783 C17.5832831,10.8403335 20.0948127,11.7202024 21.3042916,13.8150814 C22.6850035,16.2065445 21.8460417,19.2758045 19.4304179,20.6704655 C17.3143747,21.8921637 14.6904149,21.4236095 13.1440376,19.6811068 L14.9554228,18.6353031 C15.898283,19.4363907 17.2877707,19.5981224 18.4304179,18.9384147 C19.8797922,18.1016181 20.3831693,16.2600621 19.5547421,14.8251842 C18.726315,13.3903064 16.8797922,12.9054657 15.4304179,13.7422623 C15.1236909,13.9193512 14.8593314,14.1414394 14.6409961,14.3951492 L14.5556432,14.2473137 L11.921861,9.68546917 C11.2260148,9.68790986 10.5510096,9.33129067 10.1808685,8.69018735 C9.62858371,7.7336021 9.96416844,6.50589809 10.9304179,5.94803368 C11.8966674,5.39016928 13.1276827,5.71339638 13.6799674,6.66998163 C14.0501086,7.31108496 14.0214473,8.07396613 13.6714105,8.67536631 Z M6.94021251,14.3683622 L8.62400376,11.4519502 C6.85919275,9.89809755 6.36541681,7.28311466 7.57489576,5.18823566 C8.95560764,2.79677254 12.0331457,1.98870478 14.4487694,3.38336579 C16.5648127,4.60506394 17.4710128,7.11175682 16.7351498,9.32221026 L14.9237646,8.27640653 C15.1460967,7.05932177 14.5914167,5.77512428 13.4487694,5.1154166 C11.9993952,4.27861999 10.1528724,4.76346065 9.32444523,6.19833852 C8.49601811,7.63321639 8.9993952,9.47477241 10.4487694,10.311569 C10.7554964,10.4886579 11.0800102,10.6065559 11.408897,10.668785 L11.3235442,10.8166204 L8.68976198,15.378465 C9.03979881,15.9798652 9.06846009,16.7427464 8.69831891,17.3838497 C8.14603416,18.340435 6.91501893,18.6636621 5.94876944,18.1057977 C4.98251995,17.5479332 4.64693522,16.3202292 5.19921997,15.363644 C5.56936115,14.7225407 6.24436626,14.3659215 6.94021251,14.3683622 Z M15.2675644,17.3640249 L11.8999819,17.3640249 C11.4367116,19.6693224 9.41895791,21.4044364 7,21.4044364 C4.23857625,21.4044364 2,19.1432441 2,16.3539221 C2,13.9105258 3.71775968,11.8723871 6,11.4044364 L6,13.4960438 C4.83480763,13.912041 4,15.0345067 4,16.3539221 C4,18.0275153 5.34314575,19.3842307 7,19.3842307 C8.65685425,19.3842307 10,18.0275153 10,16.3539221 C10,15.9997442 9.93984578,15.6597581 9.82929429,15.3438192 L10.9499909,15.3438192 L15.2675644,15.3438192 C15.6133738,14.7399784 16.2597176,14.3337164 17,14.3337164 C18.1045695,14.3337164 19,15.2381933 19,16.3539221 C19,17.4696509 18.1045695,18.3741278 17,18.3741278 C16.2597176,18.3741278 15.6133738,17.9678658 15.2675644,17.3640249 Z"/>
</svg>
