<svg xmlns="http://www.w3.org/2000/svg" width="24" height="24" viewBox="0 0 24 24">
  <defs>
    <filter id="open-filter">
      <feColorMatrix
        color-interpolation-filters="sRGB"
        type="matrix"
        values="0.4627450980392157 0 0 0 0
                0 0.058823529411764705 0 0 0
                0 0 0.7647058823529411 0 0
                0 0 0 1 0 "/>
    </filter>
   </defs>
  <path fill="#333" fill-rule="evenodd" d="M19.9999999,3.99999996 C21.1,3.99999996 22,4.89999996 21.9999999,5.99999996 L21.9999999,18 C22,19.1 21.1,20 19.9999999,20 L3.99999995,20 C2.89999995,20 1.99999995,19.1 1.99999995,18 L1.99999995,5.99999996 C1.99999995,4.89999996 2.89999995,3.99999996 3.99999995,3.99999996 L19.9999999,3.99999996 Z M20,18 L20,6.99999998 L3.99999996,6.99999998 L3.99999996,18 L20,18 Z M5.49116971,15.1251133 L8.07502783,12.528613 L5.4943534,9.95856395 L6.9056466,8.54143605 L10.9029141,12.5222457 L6.90883029,16.5358714 L5.49116971,15.1251133 Z M11,14 L16,14 L16,16 L11,16 L11,14 Z"/>
</svg>
