<svg xmlns="http://www.w3.org/2000/svg" xmlns:xlink="http://www.w3.org/1999/xlink" width="24" height="24" viewBox="0 0 24 24">
  <defs>
    <path id="workflow-a" d="M18.5,7.99999995 L18.5,2.99999995 L13.5,2.99999995 L13.5,1.99999995 L10.5,1.99999995 L10.5,2.99999995 L5.49999997,2.99999995 L5.49999997,7.99999995 L10.5,7.99999995 L10.5,8.99999995 L5.49999997,8.99999995 L5.49999997,13.9999999 L10.5,13.9999999 L10.5,14.9999999 L5.49999997,14.9999999 L5.49999997,19.9999999 L10.5,19.9999999 L10.5,21.9999999 L13.5,21.9999999 L13.5,19.9999999 L18.5,19.9999999 L18.5,14.9999999 L13.5,14.9999999 L13.5,13.9999999 L18.5,13.9999999 L18.5,8.99999995 L13.5,8.99999995 L13.5,7.99999995 L18.5,7.99999995 Z M16.5,17 L16.5,18 L7.49999998,18 L7.49999998,17 L16.5,17 Z M16.5,11 L16.5,12 L7.49999998,12 L7.49999998,11 L16.5,11 Z M7.49999998,5.99999996 L7.49999998,4.99999996 L16.5,4.99999996 L16.5,5.99999996 L7.49999998,5.99999996 Z"/>
  </defs>
  <use fill="#fff" fill-rule="evenodd" xlink:href="#workflow-a"/>
</svg>
