<svg id="svg" version="1.1" width="400" height="400" viewBox="0 0 400 400" xmlns="http://www.w3.org/2000/svg" xmlns:xlink="http://www.w3.org/1999/xlink" ><g id="svgg"><path id="path0" d="M197.000 60.368 C 194.256 61.146,192.893 61.803,191.916 62.820 C 191.540 63.212,190.910 63.773,190.516 64.066 C 187.439 66.360,186.422 73.189,188.497 77.620 C 193.431 88.156,206.459 88.367,211.937 78.000 C 216.904 68.602,207.424 57.411,197.000 60.368 M165.800 103.190 C 150.150 103.482,130.140 104.266,129.584 104.610 C 129.450 104.693,123.954 104.951,117.370 105.184 C 104.428 105.641,98.839 106.160,97.077 107.067 C 96.459 107.385,94.582 107.995,92.906 108.424 C 91.231 108.853,89.576 109.450,89.230 109.752 C 88.883 110.054,87.790 110.659,86.800 111.096 C 84.749 112.001,81.635 114.053,79.649 115.807 C 77.217 117.954,72.763 122.650,72.031 123.837 C 71.637 124.477,70.929 125.343,70.457 125.762 C 69.986 126.181,69.600 126.831,69.600 127.206 C 69.600 127.581,69.136 128.573,68.568 129.409 C 68.000 130.246,67.077 132.203,66.515 133.759 C 65.954 135.316,65.271 136.952,64.997 137.395 C 64.723 137.838,64.279 139.640,64.011 141.400 C 63.742 143.160,63.177 145.590,62.755 146.800 C 62.333 148.010,61.612 151.250,61.152 154.000 C 60.693 156.750,60.089 159.450,59.810 160.000 C 59.531 160.550,59.005 163.070,58.641 165.600 C 58.278 168.130,57.634 171.285,57.212 172.610 C 56.790 173.936,56.155 177.176,55.800 179.810 C 55.445 182.445,54.976 185.320,54.758 186.200 C 53.605 190.844,53.156 193.409,52.800 197.400 C 52.585 199.820,52.218 202.430,51.985 203.200 C 51.125 206.045,50.378 211.158,49.990 216.858 C 49.770 220.080,49.239 224.670,48.810 227.058 C 47.859 232.356,47.201 239.078,47.200 243.497 C 47.200 245.310,46.823 250.350,46.363 254.697 C 45.500 262.840,45.529 270.710,46.431 273.082 C 46.656 273.672,47.005 275.464,47.208 277.063 C 47.453 278.992,47.969 280.683,48.742 282.085 C 49.383 283.248,50.026 284.710,50.170 285.333 C 50.439 286.496,52.540 289.937,53.908 291.454 C 54.331 291.923,55.052 292.913,55.510 293.654 C 55.967 294.394,57.660 296.226,59.271 297.725 C 60.882 299.225,62.749 300.980,63.420 301.625 C 64.092 302.271,64.830 302.800,65.060 302.800 C 65.291 302.800,66.182 303.299,67.040 303.910 C 67.898 304.520,69.410 305.364,70.400 305.785 C 71.390 306.206,72.480 306.783,72.822 307.067 C 75.945 309.659,86.901 310.921,112.200 311.601 C 121.220 311.843,133.460 312.337,139.400 312.698 C 153.189 313.536,245.964 313.672,257.600 312.871 C 264.388 312.403,272.608 312.077,300.200 311.179 C 307.460 310.943,314.300 310.602,315.400 310.421 C 318.852 309.854,326.628 307.731,327.635 307.081 C 328.166 306.738,329.410 306.143,330.400 305.758 C 331.390 305.373,332.826 304.550,333.591 303.929 C 334.356 303.308,335.208 302.800,335.483 302.800 C 336.311 302.800,343.623 296.151,345.045 294.105 C 345.772 293.057,347.096 291.210,347.986 290.000 C 349.765 287.581,349.836 287.450,350.151 285.992 C 350.271 285.437,350.893 284.177,351.533 283.192 C 352.176 282.202,352.802 280.577,352.932 279.562 C 353.062 278.551,353.625 276.323,354.184 274.611 C 355.310 271.160,355.611 261.746,354.785 255.800 C 353.699 247.987,353.133 242.366,352.810 236.200 C 352.614 232.460,352.183 228.050,351.852 226.400 C 350.896 221.628,350.386 217.769,350.000 212.381 C 349.802 209.621,349.180 205.416,348.618 203.036 C 348.055 200.656,347.418 196.705,347.202 194.255 C 346.985 191.805,346.359 188.180,345.809 186.200 C 345.260 184.220,344.808 182.047,344.805 181.370 C 344.797 179.423,343.572 172.737,342.945 171.221 C 342.631 170.462,342.124 167.931,341.817 165.596 C 341.510 163.261,340.902 160.281,340.466 158.975 C 340.030 157.669,339.381 154.740,339.023 152.466 C 338.665 150.192,338.097 147.582,337.760 146.666 C 337.423 145.750,336.787 143.200,336.346 141.000 C 335.905 138.800,335.316 136.640,335.037 136.200 C 334.758 135.760,334.199 134.500,333.795 133.400 C 332.869 130.880,330.034 125.594,329.182 124.800 C 328.828 124.470,327.743 123.136,326.770 121.835 C 325.026 119.501,319.156 114.000,318.411 114.000 C 318.200 114.000,317.437 113.493,316.714 112.873 C 315.991 112.253,314.770 111.507,314.000 111.216 C 313.230 110.925,311.970 110.273,311.200 109.768 C 310.430 109.263,308.578 108.569,307.084 108.227 C 305.590 107.884,303.880 107.357,303.284 107.054 C 301.589 106.194,296.499 105.649,287.800 105.395 C 283.400 105.266,275.840 104.901,271.000 104.584 C 249.929 103.201,200.365 102.544,165.800 103.190 M261.400 125.189 C 277.951 125.549,290.068 126.268,294.612 127.161 C 295.705 127.376,297.626 127.665,298.880 127.802 C 300.329 127.961,301.640 128.398,302.480 129.002 C 303.206 129.525,304.571 130.315,305.513 130.759 C 308.217 132.034,313.322 137.883,314.033 140.522 C 314.279 141.437,314.913 143.039,315.441 144.081 C 315.969 145.123,316.598 147.376,316.839 149.088 C 317.080 150.800,317.710 153.528,318.240 155.151 C 318.770 156.774,319.385 159.700,319.606 161.653 C 319.827 163.607,320.267 165.879,320.584 166.702 C 321.520 169.138,322.040 171.508,322.396 174.961 C 322.580 176.748,323.197 179.830,323.767 181.811 C 324.337 183.791,324.966 187.118,325.165 189.205 C 325.365 191.292,325.975 194.800,326.521 197.000 C 327.067 199.200,327.631 202.530,327.774 204.400 C 328.069 208.277,328.995 214.329,329.609 216.400 C 329.837 217.170,330.195 220.320,330.405 223.400 C 330.870 230.214,331.448 235.753,332.221 240.800 C 333.589 249.737,334.033 267.616,332.995 272.000 C 332.581 273.749,329.673 279.410,328.773 280.220 C 328.296 280.649,327.792 281.293,327.653 281.652 C 325.994 285.931,315.667 289.574,305.142 289.593 C 303.020 289.597,297.890 289.862,293.742 290.183 C 276.347 291.528,260.610 291.800,200.200 291.800 C 139.790 291.800,124.053 291.528,106.658 290.183 C 102.510 289.862,97.380 289.597,95.258 289.593 C 80.955 289.567,73.874 285.693,68.583 275.000 L 67.000 271.800 67.079 261.800 C 67.122 256.300,67.351 250.540,67.586 249.000 C 68.491 243.091,69.211 236.260,69.587 230.014 C 69.819 226.164,70.385 221.543,70.978 218.661 C 71.528 215.987,72.155 211.550,72.372 208.800 C 72.588 206.050,73.221 202.000,73.777 199.800 C 74.334 197.600,74.893 194.360,75.019 192.600 C 75.251 189.384,76.220 184.367,76.846 183.143 C 77.031 182.781,77.366 180.801,77.591 178.743 C 78.056 174.491,78.566 171.965,79.599 168.800 C 79.994 167.590,80.524 165.001,80.778 163.046 C 81.031 161.091,81.582 158.481,82.002 157.246 C 82.422 156.011,83.053 153.290,83.405 151.200 C 83.756 149.110,84.381 146.680,84.792 145.800 C 85.203 144.920,85.810 143.268,86.140 142.129 C 87.217 138.411,92.470 131.910,95.322 130.766 C 96.025 130.484,97.093 129.850,97.695 129.357 C 98.738 128.503,99.574 128.274,105.583 127.197 C 111.375 126.159,122.116 125.581,142.800 125.194 C 154.790 124.970,166.850 124.725,169.600 124.649 C 178.336 124.410,243.106 124.791,261.400 125.189 M116.820 188.237 C 114.365 189.067,112.238 190.053,111.666 190.625 C 111.130 191.161,110.529 191.600,110.331 191.600 C 109.200 191.600,105.665 196.132,103.621 200.200 C 102.462 202.509,102.453 207.386,103.607 208.004 C 104.909 208.701,142.877 208.367,143.739 207.651 C 144.822 206.751,144.300 202.395,142.912 200.747 C 142.609 200.388,142.193 199.488,141.987 198.747 C 141.781 198.006,140.811 196.410,139.832 195.200 C 133.946 187.925,125.395 185.338,116.820 188.237 M271.100 188.172 C 265.032 190.242,260.610 193.934,258.570 198.635 C 258.196 199.496,257.578 200.830,257.195 201.600 C 256.117 203.770,255.832 206.962,256.655 207.646 C 257.737 208.545,296.511 208.460,297.415 207.556 C 298.427 206.544,297.499 200.785,295.952 198.488 C 295.319 197.547,294.800 196.598,294.800 196.380 C 294.800 196.161,293.816 195.042,292.614 193.891 C 285.704 187.281,278.966 185.490,271.100 188.172 M167.023 230.889 C 165.852 232.560,166.610 238.725,168.427 242.307 C 169.066 243.568,169.592 244.881,169.595 245.225 C 169.598 245.568,169.938 246.212,170.352 246.656 C 170.765 247.100,171.552 248.169,172.101 249.031 C 174.110 252.192,179.528 257.223,182.541 258.728 C 183.564 259.238,184.400 259.798,184.400 259.972 C 184.400 260.146,185.705 260.683,187.300 261.165 C 188.895 261.647,190.675 262.300,191.256 262.617 C 194.127 264.183,206.075 264.200,209.135 262.642 C 209.721 262.344,211.204 261.812,212.431 261.459 C 213.658 261.106,215.331 260.364,216.149 259.809 C 216.967 259.254,217.764 258.800,217.921 258.800 C 218.773 258.800,225.275 253.011,226.916 250.791 C 227.970 249.366,229.185 247.780,229.616 247.266 C 230.047 246.752,230.400 246.166,230.400 245.964 C 230.400 245.762,230.868 244.652,231.439 243.498 C 233.749 238.835,234.687 232.287,233.251 230.851 L 232.400 230.000 200.023 230.000 L 167.645 230.000 167.023 230.889 " stroke="none" fill="#ffffff" fill-rule="evenodd"></path><path id="path1" d="M0.000 200.000 L 0.000 400.000 200.000 400.000 L 400.000 400.000 400.000 200.000 L 400.000 0.000 200.000 0.000 L 0.000 0.000 0.000 200.000 M204.249 60.624 C 215.529 64.288,216.469 78.291,205.827 84.141 C 196.510 89.262,184.378 79.420,187.753 69.478 C 188.695 66.703,189.749 64.638,190.516 64.066 C 190.910 63.773,191.540 63.212,191.916 62.820 C 192.893 61.803,194.256 61.146,197.000 60.368 C 200.271 59.440,200.646 59.453,204.249 60.624 M251.800 103.614 C 257.520 103.830,266.160 104.266,271.000 104.584 C 275.840 104.901,283.400 105.266,287.800 105.395 C 296.499 105.649,301.589 106.194,303.284 107.054 C 303.880 107.357,305.590 107.884,307.084 108.227 C 308.578 108.569,310.430 109.263,311.200 109.768 C 311.970 110.273,313.230 110.925,314.000 111.216 C 314.770 111.507,315.991 112.253,316.714 112.873 C 317.437 113.493,318.200 114.000,318.411 114.000 C 319.156 114.000,325.026 119.501,326.770 121.835 C 327.743 123.136,328.828 124.470,329.182 124.800 C 330.034 125.594,332.869 130.880,333.795 133.400 C 334.199 134.500,334.758 135.760,335.037 136.200 C 335.316 136.640,335.905 138.800,336.346 141.000 C 336.787 143.200,337.423 145.750,337.760 146.666 C 338.097 147.582,338.665 150.192,339.023 152.466 C 339.381 154.740,340.030 157.669,340.466 158.975 C 340.902 160.281,341.510 163.261,341.817 165.596 C 342.124 167.931,342.631 170.462,342.945 171.221 C 343.572 172.737,344.797 179.423,344.805 181.370 C 344.808 182.047,345.260 184.220,345.809 186.200 C 346.359 188.180,346.985 191.805,347.202 194.255 C 347.418 196.705,348.055 200.656,348.618 203.036 C 349.180 205.416,349.802 209.621,350.000 212.381 C 350.386 217.769,350.896 221.628,351.852 226.400 C 352.183 228.050,352.614 232.460,352.810 236.200 C 353.133 242.366,353.699 247.987,354.785 255.800 C 355.611 261.746,355.310 271.160,354.184 274.611 C 353.625 276.323,353.062 278.551,352.932 279.562 C 352.802 280.577,352.176 282.202,351.533 283.192 C 350.893 284.177,350.271 285.437,350.151 285.992 C 349.836 287.450,349.765 287.581,347.986 290.000 C 347.096 291.210,345.772 293.057,345.045 294.105 C 343.623 296.151,336.311 302.800,335.483 302.800 C 335.208 302.800,334.356 303.308,333.591 303.929 C 332.826 304.550,331.390 305.373,330.400 305.758 C 329.410 306.143,328.166 306.738,327.635 307.081 C 326.628 307.731,318.852 309.854,315.400 310.421 C 314.300 310.602,307.460 310.943,300.200 311.179 C 272.608 312.077,264.388 312.403,257.600 312.871 C 245.964 313.672,153.189 313.536,139.400 312.698 C 133.460 312.337,121.220 311.843,112.200 311.601 C 86.901 310.921,75.945 309.659,72.822 307.067 C 72.480 306.783,71.390 306.206,70.400 305.785 C 69.410 305.364,67.898 304.520,67.040 303.910 C 66.182 303.299,65.291 302.800,65.060 302.800 C 64.830 302.800,64.092 302.271,63.420 301.625 C 62.749 300.980,60.882 299.225,59.271 297.725 C 57.660 296.226,55.967 294.394,55.510 293.654 C 55.052 292.913,54.331 291.923,53.908 291.454 C 52.540 289.937,50.439 286.496,50.170 285.333 C 50.026 284.710,49.383 283.248,48.742 282.085 C 47.969 280.683,47.453 278.992,47.208 277.063 C 47.005 275.464,46.656 273.672,46.431 273.082 C 45.529 270.710,45.500 262.840,46.363 254.697 C 46.823 250.350,47.200 245.310,47.200 243.497 C 47.201 239.078,47.859 232.356,48.810 227.058 C 49.239 224.670,49.770 220.080,49.990 216.858 C 50.378 211.158,51.125 206.045,51.985 203.200 C 52.218 202.430,52.585 199.820,52.800 197.400 C 53.156 193.409,53.605 190.844,54.758 186.200 C 54.976 185.320,55.445 182.445,55.800 179.810 C 56.155 177.176,56.790 173.936,57.212 172.610 C 57.634 171.285,58.278 168.130,58.641 165.600 C 59.005 163.070,59.531 160.550,59.810 160.000 C 60.089 159.450,60.693 156.750,61.152 154.000 C 61.612 151.250,62.333 148.010,62.755 146.800 C 63.177 145.590,63.742 143.160,64.011 141.400 C 64.279 139.640,64.723 137.838,64.997 137.395 C 65.271 136.952,65.954 135.316,66.515 133.759 C 67.077 132.203,68.000 130.246,68.568 129.409 C 69.136 128.573,69.600 127.581,69.600 127.206 C 69.600 126.831,69.986 126.181,70.457 125.762 C 70.929 125.343,71.637 124.477,72.031 123.837 C 72.763 122.650,77.217 117.954,79.649 115.807 C 81.635 114.053,84.749 112.001,86.800 111.096 C 87.790 110.659,88.883 110.054,89.230 109.752 C 89.576 109.450,91.231 108.853,92.906 108.424 C 94.582 107.995,96.459 107.385,97.077 107.067 C 98.839 106.160,104.428 105.641,117.370 105.184 C 123.954 104.951,129.450 104.693,129.584 104.610 C 131.912 103.171,220.842 102.446,251.800 103.614 M169.600 124.649 C 166.850 124.725,154.790 124.970,142.800 125.194 C 122.116 125.581,111.375 126.159,105.583 127.197 C 99.574 128.274,98.738 128.503,97.695 129.357 C 97.093 129.850,96.025 130.484,95.322 130.766 C 92.470 131.910,87.217 138.411,86.140 142.129 C 85.810 143.268,85.203 144.920,84.792 145.800 C 84.381 146.680,83.756 149.110,83.405 151.200 C 83.053 153.290,82.422 156.011,82.002 157.246 C 81.582 158.481,81.031 161.091,80.778 163.046 C 80.524 165.001,79.994 167.590,79.599 168.800 C 78.566 171.965,78.056 174.491,77.591 178.743 C 77.366 180.801,77.031 182.781,76.846 183.143 C 76.220 184.367,75.251 189.384,75.019 192.600 C 74.893 194.360,74.334 197.600,73.777 199.800 C 73.221 202.000,72.588 206.050,72.372 208.800 C 72.155 211.550,71.528 215.987,70.978 218.661 C 70.385 221.543,69.819 226.164,69.587 230.014 C 69.211 236.260,68.491 243.091,67.586 249.000 C 67.351 250.540,67.122 256.300,67.079 261.800 L 67.000 271.800 68.583 275.000 C 73.874 285.693,80.955 289.567,95.258 289.593 C 97.380 289.597,102.510 289.862,106.658 290.183 C 124.053 291.528,139.790 291.800,200.200 291.800 C 260.610 291.800,276.347 291.528,293.742 290.183 C 297.890 289.862,303.020 289.597,305.142 289.593 C 315.667 289.574,325.994 285.931,327.653 281.652 C 327.792 281.293,328.296 280.649,328.773 280.220 C 329.673 279.410,332.581 273.749,332.995 272.000 C 334.033 267.616,333.589 249.737,332.221 240.800 C 331.448 235.753,330.870 230.214,330.405 223.400 C 330.195 220.320,329.837 217.170,329.609 216.400 C 328.995 214.329,328.069 208.277,327.774 204.400 C 327.631 202.530,327.067 199.200,326.521 197.000 C 325.975 194.800,325.365 191.292,325.165 189.205 C 324.966 187.118,324.337 183.791,323.767 181.811 C 323.197 179.830,322.580 176.748,322.396 174.961 C 322.040 171.508,321.520 169.138,320.584 166.702 C 320.267 165.879,319.827 163.607,319.606 161.653 C 319.385 159.700,318.770 156.774,318.240 155.151 C 317.710 153.528,317.080 150.800,316.839 149.088 C 316.598 147.376,315.969 145.123,315.441 144.081 C 314.913 143.039,314.279 141.437,314.033 140.522 C 313.322 137.883,308.217 132.034,305.513 130.759 C 304.571 130.315,303.206 129.525,302.480 129.002 C 301.640 128.398,300.329 127.961,298.880 127.802 C 297.626 127.665,295.705 127.376,294.612 127.161 C 285.806 125.431,202.333 123.753,169.600 124.649 M129.579 188.252 C 133.087 189.464,135.980 191.040,137.726 192.692 C 139.124 194.014,141.682 197.649,141.987 198.747 C 142.193 199.488,142.609 200.388,142.912 200.747 C 144.300 202.395,144.822 206.751,143.739 207.651 C 142.877 208.367,104.909 208.701,103.607 208.004 C 102.453 207.386,102.462 202.509,103.621 200.200 C 105.665 196.132,109.200 191.600,110.331 191.600 C 110.529 191.600,111.130 191.161,111.666 190.625 C 115.044 187.247,123.444 186.134,129.579 188.252 M283.647 188.236 C 285.916 189.025,288.370 190.150,289.100 190.736 C 291.329 192.523,294.800 195.959,294.800 196.380 C 294.800 196.598,295.319 197.547,295.952 198.488 C 297.499 200.785,298.427 206.544,297.415 207.556 C 296.511 208.460,257.737 208.545,256.655 207.646 C 255.832 206.962,256.117 203.770,257.195 201.600 C 257.578 200.830,258.196 199.496,258.570 198.635 C 262.461 189.668,274.007 184.880,283.647 188.236 M233.251 230.851 C 234.687 232.287,233.749 238.835,231.439 243.498 C 230.868 244.652,230.400 245.762,230.400 245.964 C 230.400 246.166,230.047 246.752,229.616 247.266 C 229.185 247.780,227.970 249.366,226.916 250.791 C 225.275 253.011,218.773 258.800,217.921 258.800 C 217.764 258.800,216.967 259.254,216.149 259.809 C 215.331 260.364,213.658 261.106,212.431 261.459 C 211.204 261.812,209.721 262.344,209.135 262.642 C 206.075 264.200,194.127 264.183,191.256 262.617 C 190.675 262.300,188.895 261.647,187.300 261.165 C 185.705 260.683,184.400 260.146,184.400 259.972 C 184.400 259.798,183.564 259.238,182.541 258.728 C 179.528 257.223,174.110 252.192,172.101 249.031 C 171.552 248.169,170.765 247.100,170.352 246.656 C 169.938 246.212,169.598 245.568,169.595 245.225 C 169.592 244.881,169.066 243.568,168.427 242.307 C 166.610 238.725,165.852 232.560,167.023 230.889 L 167.645 230.000 200.023 230.000 L 232.400 230.000 233.251 230.851 " stroke="none" fill="#683d87" fill-rule="evenodd"></path></g></svg>