<svg fill="none" height="580" viewBox="0 0 688 580" width="688" xmlns="http://www.w3.org/2000/svg" xmlns:xlink="http://www.w3.org/1999/xlink"><filter id="a" color-interpolation-filters="sRGB" filterUnits="userSpaceOnUse" height="580" width="688" x="0" y="0"><feFlood flood-opacity="0" result="BackgroundImageFix"/><feColorMatrix in="SourceAlpha" result="hardAlpha" type="matrix" values="0 0 0 0 0 0 0 0 0 0 0 0 0 0 0 0 0 0 127 0"/><feOffset dy="2"/><feGaussianBlur stdDeviation="12"/><feComposite in2="hardAlpha" operator="out"/><feColorMatrix type="matrix" values="0 0 0 0 0 0 0 0 0 0 0 0 0 0 0 0 0 0 0.08 0"/><feBlend in2="BackgroundImageFix" mode="normal" result="effect1_dropShadow_33_11178"/><feBlend in="SourceGraphic" in2="effect1_dropShadow_33_11178" mode="normal" result="shape"/></filter><filter id="b" color-interpolation-filters="sRGB" filterUnits="userSpaceOnUse" height="50" width="576" x="56" y="282"><feFlood flood-opacity="0" result="BackgroundImageFix"/><feBlend in="SourceGraphic" in2="BackgroundImageFix" mode="normal" result="shape"/><feColorMatrix in="SourceAlpha" result="hardAlpha" type="matrix" values="0 0 0 0 0 0 0 0 0 0 0 0 0 0 0 0 0 0 127 0"/><feOffset dy="2"/><feGaussianBlur stdDeviation="1.5"/><feComposite in2="hardAlpha" k2="-1" k3="1" operator="arithmetic"/><feColorMatrix type="matrix" values="0 0 0 0 0 0 0 0 0 0 0 0 0 0 0 0 0 0 0.1 0"/><feBlend in2="shape" mode="normal" result="effect1_innerShadow_33_11178"/></filter><clipPath id="c"><rect height="532" rx="8" width="640" x="24" y="22"/></clipPath><clipPath id="d"><path d="m56 258h38v20h-38z"/></clipPath><clipPath id="e"><path d="m56 354h65v20h-65z"/></clipPath><mask id="f" fill="#fff"><path d="m56 106h576v76h-576z" fill="#fff"/></mask><g filter="url(#a)"><g clip-path="url(#c)"><rect fill="#fff" height="532" rx="8" width="640" x="24" y="22"/><path d="m65.24 72.288c-1.632 0-3.08-.368-4.344-1.104-1.264-.752-2.256-1.776-2.976-3.072-.72-1.312-1.08-2.816-1.08-4.512s.36-3.192 1.08-4.488c.72-1.312 1.704-2.336 2.952-3.072 1.264-.752 2.712-1.128 4.344-1.128 1.152 0 2.224.208 3.216.624.992.4 1.856.968 2.592 1.704.752.72 1.328 1.552 1.728 2.496l-3.048 1.128c-.272-.592-.632-1.104-1.08-1.536-.448-.448-.96-.792-1.536-1.032-.576-.256-1.2-.384-1.872-.384-.976 0-1.848.248-2.616.744-.752.48-1.344 1.144-1.776 1.992-.416.848-.624 1.832-.624 2.952s.216 2.112.648 2.976c.432.848 1.032 1.52 1.8 2.016.768.48 1.648.72 2.64.72.688 0 1.312-.128 1.872-.384.576-.272 1.08-.64 1.512-1.104.448-.464.808-1 1.08-1.608l3.048 1.104c-.4.976-.976 1.84-1.728 2.592-.736.752-1.6 1.336-2.592 1.752s-2.072.624-3.24.624zm11.7506-6.6c0-1.296.248-2.368.744-3.216.512-.848 1.16-1.48 1.944-1.896.8-.416 1.632-.624 2.496-.624v3.072c-.736 0-1.432.088-2.088.264-.64.176-1.16.464-1.56.864s-.6.912-.6 1.536zm-2.232 6.312v-12h3.168v12zm14.5178.288c-1.184 0-2.232-.264-3.144-.792-.912-.544-1.632-1.288-2.16-2.232-.512-.944-.768-2.032-.768-3.264s.264-2.32.792-3.264c.544-.944 1.28-1.68 2.208-2.208.944-.544 2.024-.816 3.24-.816 1.056 0 2.024.28 2.904.84.896.544 1.608 1.352 2.136 2.424.544 1.056.816 2.344.816 3.864h-9.096l.288-.288c0 .592.144 1.112.432 1.56.304.432.688.768 1.152 1.008.48.224.992.336 1.536.336.656 0 1.192-.136 1.608-.408.416-.288.736-.656.96-1.104l2.832 1.104c-.336.672-.776 1.256-1.32 1.752-.528.48-1.16.848-1.896 1.104s-1.576.384-2.52.384zm-2.616-7.512-.288-.288h5.784l-.264.288c0-.576-.136-1.032-.408-1.368-.272-.352-.608-.608-1.008-.768-.384-.16-.76-.24-1.128-.24s-.76.08-1.176.24-.776.416-1.08.768c-.288.336-.432.792-.432 1.368zm17.7286 7.224-.096-2.424v-3.648c0-.72-.08-1.336-.24-1.848-.144-.512-.384-.904-.72-1.176-.32-.288-.76-.432-1.32-.432-.512 0-.976.112-1.392.336s-.7676.568-1.0556 1.032l-2.784-.96c.224-.512.552-1.008.984-1.488.432-.496.992-.896 1.68-1.2.7036-.32 1.5596-.48 2.5676-.48 1.216 0 2.224.232 3.024.696.816.464 1.416 1.12 1.8 1.968.4.832.592 1.824.576 2.976l-.072 6.648zm-3.36.288c-1.4396 0-2.5596-.32-3.3596-.96-.784-.64-1.176-1.544-1.176-2.712 0-1.28.424-2.24 1.272-2.88.864-.656 2.072-.984 3.6236-.984h3.048v2.352h-1.944c-1.04 0-1.76.128-2.16.384-.3996.24-.5996.584-.5996 1.032 0 .352.16.632.4796.84.32.192.768.288 1.344.288.528 0 .992-.12 1.392-.36.416-.256.744-.576.984-.96.24-.4.36-.808.36-1.224h.768c0 1.632-.312 2.904-.936 3.816-.608.912-1.64 1.368-3.096 1.368zm13.853 0c-1.328 0-2.336-.328-3.024-.984-.672-.656-1.008-1.592-1.008-2.808v-12.24h3.168v11.544c0 .512.112.904.336 1.176.224.256.552.384.984.384.16 0 .336-.032.528-.096.192-.08.392-.192.6-.336l1.104 2.376c-.384.288-.816.52-1.296.696-.464.192-.928.288-1.392.288zm-5.976-9.6v-2.688h8.112v2.688zm15.902 9.6c-1.184 0-2.232-.264-3.144-.792-.912-.544-1.632-1.288-2.16-2.232-.512-.944-.768-2.032-.768-3.264s.264-2.32.792-3.264c.544-.944 1.28-1.68 2.208-2.208.944-.544 2.024-.816 3.24-.816 1.056 0 2.024.28 2.904.84.896.544 1.608 1.352 2.136 2.424.544 1.056.816 2.344.816 3.864h-9.096l.288-.288c0 .592.144 1.112.432 1.56.304.432.688.768 1.152 1.008.48.224.992.336 1.536.336.656 0 1.192-.136 1.608-.408.416-.288.736-.656.96-1.104l2.832 1.104c-.336.672-.776 1.256-1.32 1.752-.528.48-1.16.848-1.896 1.104s-1.576.384-2.52.384zm-2.616-7.512-.288-.288h5.784l-.264.288c0-.576-.136-1.032-.408-1.368-.272-.352-.608-.608-1.008-.768-.384-.16-.76-.24-1.128-.24s-.76.08-1.176.24-.776.416-1.08.768c-.288.336-.432.792-.432 1.368zm30.119 7.224 4.824-16.8h3.336l-5.016 16.8zm-10.128 0-4.968-16.8h3.336l4.776 16.8zm.432 0 4.584-16.8h2.976l-4.56 16.8zm9.384 0-4.512-16.8h2.976l4.68 16.8zm14.673.288c-1.216 0-2.304-.264-3.264-.792-.944-.544-1.688-1.288-2.232-2.232-.528-.944-.792-2.032-.792-3.264s.264-2.32.792-3.264 1.264-1.68 2.208-2.208c.944-.544 2.024-.816 3.24-.816 1.232 0 2.32.272 3.264.816.944.528 1.68 1.264 2.208 2.208s.792 2.032.792 3.264-.264 2.32-.792 3.264-1.264 1.688-2.208 2.232c-.928.528-2 .792-3.216.792zm0-2.928c.592 0 1.112-.144 1.56-.432s.792-.68 1.032-1.176c.256-.512.384-1.096.384-1.752s-.128-1.232-.384-1.728c-.256-.512-.616-.912-1.08-1.2-.448-.288-.968-.432-1.56-.432-.576 0-1.096.144-1.56.432-.448.288-.8.688-1.056 1.2-.256.496-.384 1.072-.384 1.728s.128 1.24.384 1.752c.256.496.616.888 1.08 1.176s.992.432 1.584.432zm10.537-3.672c0-1.296.248-2.368.744-3.216.512-.848 1.16-1.48 1.944-1.896.8-.416 1.632-.624 2.496-.624v3.072c-.736 0-1.432.088-2.088.264-.64.176-1.16.464-1.56.864s-.6.912-.6 1.536zm-2.232 6.312v-12h3.168v12zm12.118-3.048-1.896-2.184 6.144-6.768h3.768zm-3.024 3.048v-16.8h3.168v16.8zm7.68 0-3.984-5.808 2.064-2.184 5.64 7.992zm9.722.288c-.768 0-1.488-.112-2.16-.336-.672-.24-1.264-.576-1.776-1.008-.512-.448-.912-.992-1.2-1.632l2.712-1.248c.24.384.568.72.984 1.008.416.272.896.408 1.44.408.528 0 .936-.072 1.224-.216.288-.16.432-.384.432-.672s-.12-.496-.36-.624c-.224-.144-.536-.264-.936-.36l-1.104-.288c-1.152-.304-2.064-.784-2.736-1.44-.656-.672-.984-1.44-.984-2.304 0-1.232.392-2.184 1.176-2.856.8-.672 1.928-1.008 3.384-1.008.752 0 1.448.112 2.088.336.656.224 1.216.536 1.68.936s.784.864.96 1.392l-2.616 1.2c-.112-.32-.384-.576-.816-.768-.432-.208-.864-.312-1.296-.312s-.768.096-1.008.288c-.224.176-.336.424-.336.744 0 .208.112.384.336.528.224.128.544.24.96.336l1.56.384c.784.192 1.408.504 1.872.936.48.416.824.888 1.032 1.416.224.512.336 1.016.336 1.512 0 .72-.216 1.36-.648 1.92-.416.544-.992.968-1.728 1.272-.72.304-1.544.456-2.472.456zm6.812 4.512v-16.8h2.976l.192 2.208v14.592zm6.792-4.512c-1.008 0-1.864-.256-2.568-.768-.688-.512-1.216-1.24-1.584-2.184s-.552-2.056-.552-3.336c0-1.296.184-2.408.552-3.336.368-.944.896-1.672 1.584-2.184.704-.512 1.56-.768 2.568-.768 1.104 0 2.056.256 2.856.768.816.512 1.448 1.24 1.896 2.184.448.928.672 2.04.672 3.336 0 1.28-.224 2.392-.672 3.336s-1.08 1.672-1.896 2.184c-.8.512-1.752.768-2.856.768zm-.816-2.904c.576 0 1.08-.144 1.512-.432.448-.288.8-.688 1.056-1.2s.384-1.096.384-1.752-.128-1.24-.384-1.752c-.24-.512-.584-.904-1.032-1.176-.432-.288-.936-.432-1.512-.432-.544 0-1.032.144-1.464.432s-.768.688-1.008 1.2c-.24.496-.36 1.072-.36 1.728s.12 1.24.36 1.752.568.912.984 1.2c.432.288.92.432 1.464.432zm15.566 2.616-.096-2.424v-3.648c0-.72-.08-1.336-.24-1.848-.144-.512-.384-.904-.72-1.176-.32-.288-.76-.432-1.32-.432-.512 0-.976.112-1.392.336s-.768.568-1.056 1.032l-2.784-.96c.224-.512.552-1.008.984-1.488.432-.496.992-.896 1.68-1.2.704-.32 1.56-.48 2.568-.48 1.216 0 2.224.232 3.024.696.816.464 1.416 1.12 1.8 1.968.4.832.592 1.824.576 2.976l-.072 6.648zm-3.36.288c-1.44 0-2.56-.32-3.36-.96-.784-.64-1.176-1.544-1.176-2.712 0-1.28.424-2.24 1.272-2.88.864-.656 2.072-.984 3.624-.984h3.048v2.352h-1.944c-1.04 0-1.76.128-2.16.384-.4.24-.6.584-.6 1.032 0 .352.16.632.48.84.32.192.768.288 1.344.288.528 0 .992-.12 1.392-.36.416-.256.744-.576.984-.96.24-.4.36-.808.36-1.224h.768c0 1.632-.312 2.904-.936 3.816-.608.912-1.64 1.368-3.096 1.368zm14.693 0c-1.248 0-2.36-.264-3.336-.792-.976-.544-1.736-1.288-2.28-2.232-.544-.96-.816-2.048-.816-3.264 0-1.232.272-2.32.816-3.264s1.296-1.68 2.256-2.208c.96-.544 2.064-.816 3.312-.816 1.2 0 2.296.296 3.288.888s1.712 1.448 2.16 2.568l-2.976 1.056c-.224-.464-.576-.832-1.056-1.104-.464-.288-.984-.432-1.56-.432-.592 0-1.112.144-1.56.432-.448.272-.8.656-1.056 1.152s-.384 1.072-.384 1.728.128 1.232.384 1.728c.256.48.616.864 1.08 1.152s.992.432 1.584.432c.576 0 1.096-.152 1.56-.456.48-.304.832-.704 1.056-1.2l3 1.056c-.464 1.136-1.192 2.016-2.184 2.64-.976.624-2.072.936-3.288.936zm12.741 0c-1.184 0-2.232-.264-3.144-.792-.912-.544-1.632-1.288-2.16-2.232-.512-.944-.768-2.032-.768-3.264s.264-2.32.792-3.264c.544-.944 1.28-1.68 2.208-2.208.944-.544 2.024-.816 3.24-.816 1.056 0 2.024.28 2.904.84.896.544 1.608 1.352 2.136 2.424.544 1.056.816 2.344.816 3.864h-9.096l.288-.288c0 .592.144 1.112.432 1.56.304.432.688.768 1.152 1.008.48.224.992.336 1.536.336.656 0 1.192-.136 1.608-.408.416-.288.736-.656.96-1.104l2.832 1.104c-.336.672-.776 1.256-1.32 1.752-.528.48-1.16.848-1.896 1.104s-1.576.384-2.52.384zm-2.616-7.512-.288-.288h5.784l-.264.288c0-.576-.136-1.032-.408-1.368-.272-.352-.608-.608-1.008-.768-.384-.16-.76-.24-1.128-.24s-.76.08-1.176.24-.776.416-1.08.768c-.288.336-.432.792-.432 1.368zm28.296 7.224-6.432-16.8h3.288l6.624 16.8zm-13.272 0 6.624-16.8h3.288l-6.432 16.8zm3.12-3.696v-2.904h10.536v2.904zm15.645 3.696v-16.8h6.24c1.184 0 2.232.24 3.144.72.912.464 1.624 1.12 2.136 1.968.512.832.768 1.8.768 2.904 0 1.088-.248 2.056-.744 2.904s-1.176 1.52-2.04 2.016c-.864.48-1.864.72-3 .72h-3.216v5.568zm3.288-8.592h3.144c.736 0 1.336-.24 1.8-.72.48-.496.72-1.128.72-1.896s-.264-1.392-.792-1.872c-.512-.48-1.176-.72-1.992-.72h-2.88zm11.173 8.592v-16.8h3.288v16.8zm17.144.288c-1.328 0-2.336-.328-3.024-.984-.672-.656-1.008-1.592-1.008-2.808v-12.24h3.168v11.544c0 .512.112.904.336 1.176.224.256.552.384.984.384.16 0 .336-.032.528-.096.192-.08.392-.192.6-.336l1.104 2.376c-.384.288-.816.52-1.296.696-.464.192-.928.288-1.392.288zm-5.976-9.6v-2.688h8.112v2.688zm16.118 9.6c-1.216 0-2.304-.264-3.264-.792-.944-.544-1.688-1.288-2.232-2.232-.528-.944-.792-2.032-.792-3.264s.264-2.32.792-3.264 1.264-1.68 2.208-2.208c.944-.544 2.024-.816 3.24-.816 1.232 0 2.32.272 3.264.816.944.528 1.68 1.264 2.208 2.208s.791 2.032.791 3.264-.263 2.32-.791 3.264-1.264 1.688-2.208 2.232c-.928.528-2 .792-3.216.792zm0-2.928c.592 0 1.112-.144 1.56-.432s.792-.68 1.032-1.176c.256-.512.384-1.096.384-1.752s-.128-1.232-.384-1.728c-.256-.512-.616-.912-1.08-1.2-.448-.288-.968-.432-1.56-.432-.576 0-1.096.144-1.56.432-.448.288-.8.688-1.056 1.2-.256.496-.384 1.072-.384 1.728s.128 1.24.384 1.752c.256.496.616.888 1.08 1.176s.992.432 1.584.432zm11.329-.408-1.896-2.184 6.144-6.768h3.768zm-3.024 3.048v-16.8h3.168v16.8zm7.68 0-3.984-5.808 2.064-2.184 5.64 7.992zm10.025.288c-1.184 0-2.232-.264-3.144-.792-.912-.544-1.632-1.288-2.16-2.232-.512-.944-.768-2.032-.768-3.264s.264-2.32.792-3.264c.544-.944 1.28-1.68 2.208-2.208.944-.544 2.024-.816 3.24-.816 1.056 0 2.024.28 2.904.84.896.544 1.608 1.352 2.136 2.424.544 1.056.816 2.344.816 3.864h-9.096l.288-.288c0 .592.144 1.112.432 1.56.304.432.688.768 1.152 1.008.48.224.992.336 1.536.336.656 0 1.192-.136 1.608-.408.416-.288.736-.656.96-1.104l2.832 1.104c-.336.672-.776 1.256-1.32 1.752-.528.48-1.16.848-1.896 1.104s-1.576.384-2.52.384zm-2.616-7.512-.288-.288h5.784l-.264.288c0-.576-.136-1.032-.408-1.368-.272-.352-.608-.608-1.008-.768-.384-.16-.76-.24-1.128-.24s-.76.08-1.176.24-.776.416-1.08.768c-.288.336-.432.792-.432 1.368zm10.481 7.224v-12h2.976l.192 2.208v9.792zm7.944 0v-6.144h3.168v6.144zm0-6.144c0-.816-.096-1.448-.288-1.896-.176-.448-.432-.768-.768-.96-.336-.208-.728-.312-1.176-.312-.816-.016-1.448.232-1.896.744-.432.512-.648 1.272-.648 2.28h-1.056c0-1.28.184-2.36.552-3.24.384-.896.912-1.576 1.584-2.04.688-.48 1.488-.72 2.4-.72.944 0 1.752.192 2.424.576s1.184.984 1.536 1.8c.352.8.52 1.84.504 3.12v.648z" fill="#2b0e3f"/><path d="m632 181h-576v2h576z" fill="#dfdae1" mask="url(#f)"/><path d="m0 0h85.3333v24h-85.3333z" fill="#fff" transform="translate(56 106)"/><g fill="#9247c2"><path d="m141.333 118c0-5.523 4.477-10 10-10 .667 0 1.319.065 1.951.19l-.388 1.962c-.505-.1-1.027-.152-1.563-.152v16c.536 0 1.058-.052 1.563-.152l.388 1.962c-.632.125-1.284.19-1.951.19-5.523 0-10-4.477-10-10z"/><path d="m155.777 111.347c.873.584 1.625 1.336 2.209 2.209l1.662-1.113c-.729-1.09-1.668-2.028-2.758-2.758z"/><path d="m159.181 116.438c.1.504.152 1.026.152 1.562s-.052 1.058-.152 1.562l1.962.389c.125-.632.19-1.284.19-1.951s-.065-1.319-.19-1.951z"/><path d="m157.986 122.444c-.584.873-1.336 1.625-2.209 2.209l1.113 1.662c1.09-.73 2.029-1.668 2.758-2.758z"/><path d="m161.333 119h1.94v-2h-1.94zm5.818 0h3.879v-2h-3.879zm7.758 0h3.879v-2h-3.879zm7.758 0h3.878v-2h-3.878zm7.757 0h3.879v-2h-3.879zm7.758 0h3.879v-2h-3.879zm7.757 0h3.879v-2h-3.879zm7.758 0h3.879v-2h-3.879zm7.757 0h3.879v-2h-3.879zm7.758 0h3.879v-2h-3.879zm7.758 0h3.878v-2h-3.878zm7.757 0h1.94v-2h-1.94z"/></g><path d="m115.774 153.168c-.541 0-1.022-.056-1.442-.168-.42-.121-.784-.285-1.092-.49-.308-.215-.56-.448-.756-.7-.196-.261-.34-.537-.434-.826l1.134-.392c.14.411.42.77.84 1.078.43.299.952.448 1.568.448.756 0 1.349-.149 1.778-.448.43-.299.644-.695.644-1.19 0-.457-.191-.826-.574-1.106-.382-.289-.886-.513-1.512-.672l-1.078-.28c-.438-.112-.844-.275-1.218-.49-.364-.224-.658-.504-.882-.84-.214-.345-.322-.756-.322-1.232 0-.887.285-1.577.854-2.072.579-.504 1.41-.756 2.492-.756.644 0 1.2.107 1.666.322.467.205.845.471 1.134.798.299.317.509.663.63 1.036l-1.12.392c-.177-.467-.476-.831-.896-1.092-.42-.271-.928-.406-1.526-.406-.625 0-1.124.154-1.498.462-.364.299-.546.709-.546 1.232 0 .448.145.793.434 1.036.29.233.668.406 1.134.518l1.078.266c.952.224 1.68.597 2.184 1.12.514.513.77 1.069.77 1.666 0 .513-.13.985-.392 1.414-.261.42-.648.756-1.162 1.008-.504.243-1.134.364-1.89.364zm8.208 0c-.681 0-1.283-.154-1.806-.462-.523-.317-.933-.751-1.232-1.302-.289-.551-.434-1.185-.434-1.904s.145-1.353.434-1.904c.299-.551.705-.98 1.218-1.288.523-.317 1.12-.476 1.792-.476.653 0 1.218.163 1.694.49.476.317.845.765 1.106 1.344s.392 1.26.392 2.044h-5.782l.28-.238c0 .56.098 1.041.294 1.442.205.401.49.709.854.924.364.205.779.308 1.246.308.495 0 .91-.117 1.246-.35.345-.233.611-.541.798-.924l.966.49c-.177.364-.415.681-.714.952-.289.271-.635.481-1.036.63-.392.149-.831.224-1.316.224zm-2.268-4.172-.294-.224h4.83l-.294.238c0-.448-.089-.835-.266-1.162s-.415-.579-.714-.756-.644-.266-1.036-.266c-.383 0-.747.089-1.092.266-.336.177-.611.429-.826.756-.205.317-.308.7-.308 1.148zm9.476 4.172c-.681 0-1.208-.177-1.582-.532-.373-.355-.56-.854-.56-1.498v-7.322h1.12v7.21c0 .355.094.63.28.826.196.187.467.28.812.28.112 0 .22-.014.322-.042.112-.037.257-.121.434-.252l.434.91c-.242.159-.462.266-.658.322-.196.065-.396.098-.602.098zm-3.36-6.174v-.994h4.438v.994zm14.28 6.006-.07-1.288v-5.712h1.12v7zm-4.984-3.416v-3.584h1.12v3.584zm1.12 0c0 .691.08 1.218.238 1.582.159.364.378.616.658.756.29.131.612.196.966.196.607 0 1.078-.219 1.414-.658.346-.439.518-1.05.518-1.834h.546c0 .737-.107 1.372-.322 1.904-.214.532-.527.938-.938 1.218-.401.28-.896.42-1.484.42-.541 0-1.017-.107-1.428-.322-.41-.224-.728-.574-.952-1.05-.224-.485-.336-1.111-.336-1.876v-.336zm6.939 6.216v-9.8h1.05l.07 1.288v8.512zm3.486-2.632c-.588 0-1.106-.154-1.554-.462-.439-.308-.779-.737-1.022-1.288-.243-.56-.364-1.199-.364-1.918 0-.728.121-1.367.364-1.918s.583-.98 1.022-1.288c.448-.308.966-.462 1.554-.462.625 0 1.176.154 1.652.462s.845.737 1.106 1.288c.271.551.406 1.19.406 1.918 0 .719-.135 1.358-.406 1.918-.261.551-.63.98-1.106 1.288s-1.027.462-1.652.462zm-.252-1.022c.439 0 .826-.112 1.162-.336.345-.224.616-.537.812-.938.205-.401.308-.859.308-1.372s-.098-.971-.294-1.372c-.187-.401-.453-.714-.798-.938s-.737-.336-1.176-.336c-.411 0-.779.112-1.106.336-.317.224-.569.537-.756.938-.177.401-.266.859-.266 1.372s.089.971.266 1.372c.187.401.439.714.756.938s.681.336 1.092.336zm11.059 1.022c-.682 0-1.209-.177-1.582-.532-.374-.355-.56-.854-.56-1.498v-7.322h1.12v7.21c0 .355.093.63.28.826.196.187.466.28.812.28.112 0 .219-.014.322-.042.112-.037.256-.121.434-.252l.434.91c-.243.159-.462.266-.658.322-.196.065-.397.098-.602.098zm-3.36-6.174v-.994h4.438v.994zm9.072 6.174c-.682 0-1.288-.154-1.82-.462-.523-.317-.934-.751-1.232-1.302-.299-.551-.448-1.185-.448-1.904s.144-1.353.434-1.904c.298-.551.709-.98 1.232-1.288.532-.317 1.134-.476 1.806-.476.69 0 1.297.159 1.82.476.532.308.942.737 1.232 1.288.298.551.448 1.185.448 1.904s-.15 1.353-.448 1.904c-.29.551-.696.985-1.218 1.302-.523.308-1.125.462-1.806.462zm0-1.036c.466 0 .872-.112 1.218-.336.345-.224.616-.532.812-.924.205-.392.308-.849.308-1.372s-.103-.98-.308-1.372c-.196-.392-.472-.7-.826-.924-.355-.224-.766-.336-1.232-.336-.458 0-.864.112-1.218.336-.346.224-.621.532-.826.924-.196.392-.294.849-.294 1.372 0 .513.098.971.294 1.372.205.392.485.7.84.924.364.224.774.336 1.232.336zm6.119-1.386-.714-.77 3.724-3.976h1.414zm-1.092 2.254v-9.8h1.12v9.8zm4.41 0-2.66-4.018.728-.784 3.318 4.802zm5.3.168c-.681 0-1.283-.154-1.806-.462-.522-.317-.933-.751-1.232-1.302-.289-.551-.434-1.185-.434-1.904s.145-1.353.434-1.904c.299-.551.705-.98 1.218-1.288.523-.317 1.12-.476 1.792-.476.654 0 1.218.163 1.694.49.476.317.845.765 1.106 1.344.262.579.392 1.26.392 2.044h-5.782l.28-.238c0 .56.098 1.041.294 1.442.206.401.49.709.854.924.364.205.78.308 1.246.308.495 0 .91-.117 1.246-.35.346-.233.612-.541.798-.924l.966.49c-.177.364-.415.681-.714.952-.289.271-.634.481-1.036.63-.392.149-.83.224-1.316.224zm-2.268-4.172-.294-.224h4.83l-.294.238c0-.448-.088-.835-.266-1.162-.177-.327-.415-.579-.714-.756-.298-.177-.644-.266-1.036-.266-.382 0-.746.089-1.092.266-.336.177-.611.429-.826.756-.205.317-.308.7-.308 1.148zm6.845 4.004v-7h1.05l.07 1.288v5.712zm4.914 0v-3.584h1.12v3.584zm0-3.584c0-.691-.08-1.218-.238-1.582-.159-.364-.378-.611-.658-.742-.28-.14-.598-.21-.952-.21-.616 0-1.097.219-1.442.658-.336.429-.504 1.041-.504 1.834h-.546c0-.737.107-1.372.322-1.904.214-.532.527-.938.938-1.218.41-.28.905-.42 1.484-.42.55 0 1.026.112 1.428.336.41.215.728.56.952 1.036.233.476.345 1.101.336 1.876v.336z" fill="#2b0e3f"/><path d="m244.667 119h1.939v-2h-1.939zm5.818 0h3.879v-2h-3.879zm7.758 0h3.878v-2h-3.878zm7.757 0h3.879v-2h-3.879zm7.758 0h3.878v-2h-3.878zm7.757 0h3.879v-2h-3.879zm7.758 0h3.879v-2h-3.879zm7.757 0h3.879v-2h-3.879zm7.758 0h3.879v-2h-3.879zm7.758 0h3.878v-2h-3.878zm7.757 0h3.879v-2h-3.879zm7.758 0h1.939v-2h-1.939z" fill="#9247c2"/><path clip-rule="evenodd" d="m349.81 119.952-1.962-.389c.099-.504.152-1.026.152-1.563s-.053-1.059-.152-1.563l1.962-.389c.125.632.19 1.284.19 1.952s-.065 1.32-.19 1.952zm-1.494-7.508-1.662 1.112c-.585-.873-1.337-1.625-2.21-2.21l1.112-1.662c1.091.73 2.03 1.669 2.76 2.76zm-6.364-4.254-.389 1.962c-.504-.099-1.026-.152-1.563-.152s-1.059.053-1.563.152l-.389-1.962c.632-.125 1.284-.19 1.952-.19s1.32.065 1.952.19zm-7.508 1.494 1.112 1.662c-.873.585-1.625 1.337-2.21 2.21l-1.662-1.112c.73-1.091 1.669-2.03 2.76-2.76zm-4.254 6.364c-.125.632-.19 1.284-.19 1.952s.065 1.32.19 1.952l1.962-.389c-.099-.504-.152-1.026-.152-1.563s.053-1.059.152-1.563zm1.494 7.508 1.662-1.112c.585.873 1.337 1.625 2.21 2.21l-1.112 1.662c-1.091-.73-2.03-1.669-2.76-2.76zm6.364 4.254.389-1.962c.504.099 1.026.152 1.563.152s1.059-.053 1.563-.152l.389 1.962c-.632.125-1.284.19-1.952.19s-1.32-.065-1.952-.19zm7.508-1.494-1.112-1.662c.873-.585 1.625-1.337 2.21-2.21l1.662 1.112c-.73 1.091-1.669 2.03-2.76 2.76z" fill="#94879b" fill-rule="evenodd"/><path d="m435.333 117h-85.333v2h85.333z" fill="#efebef"/><path d="m300.15 153v-9.8h3.192c.634 0 1.194.126 1.68.378.494.252.877.602 1.148 1.05.28.448.42.961.42 1.54s-.15 1.092-.448 1.54c-.299.448-.705.803-1.218 1.064-.514.252-1.092.378-1.736.378h-1.848v3.85zm5.53 0-2.352-4.018.938-.616 2.716 4.634zm-4.34-4.942h2.17c.354 0 .672-.079.952-.238.28-.168.504-.392.672-.672.177-.289.266-.616.266-.98 0-.56-.196-1.013-.588-1.358-.383-.355-.882-.532-1.498-.532h-1.974zm10.345 5.11c-.681 0-1.288-.154-1.82-.462-.522-.317-.933-.751-1.232-1.302-.298-.551-.448-1.185-.448-1.904s.145-1.353.434-1.904c.299-.551.71-.98 1.232-1.288.532-.317 1.134-.476 1.806-.476.691 0 1.298.159 1.82.476.532.308.943.737 1.232 1.288.299.551.448 1.185.448 1.904s-.149 1.353-.448 1.904c-.289.551-.695.985-1.218 1.302-.522.308-1.124.462-1.806.462zm0-1.036c.467 0 .873-.112 1.218-.336.346-.224.616-.532.812-.924.206-.392.308-.849.308-1.372s-.102-.98-.308-1.372c-.196-.392-.471-.7-.826-.924-.354-.224-.765-.336-1.232-.336-.457 0-.863.112-1.218.336-.345.224-.62.532-.826.924-.196.392-.294.849-.294 1.372 0 .513.098.971.294 1.372.206.392.486.7.84.924.364.224.775.336 1.232.336zm5.027.868v-9.8h1.12v9.8zm6.143.168c-.682 0-1.284-.154-1.806-.462-.523-.317-.934-.751-1.232-1.302-.29-.551-.434-1.185-.434-1.904s.144-1.353.434-1.904c.298-.551.704-.98 1.218-1.288.522-.317 1.12-.476 1.792-.476.653 0 1.218.163 1.694.49.476.317.844.765 1.106 1.344.261.579.392 1.26.392 2.044h-5.782l.28-.238c0 .56.098 1.041.294 1.442.205.401.49.709.854.924.364.205.779.308 1.246.308.494 0 .91-.117 1.246-.35.345-.233.611-.541.798-.924l.966.49c-.178.364-.416.681-.714.952-.29.271-.635.481-1.036.63-.392.149-.831.224-1.316.224zm-2.268-4.172-.294-.224h4.83l-.294.238c0-.448-.089-.835-.266-1.162-.178-.327-.416-.579-.714-.756-.299-.177-.644-.266-1.036-.266-.383 0-.747.089-1.092.266-.336.177-.612.429-.826.756-.206.317-.308.7-.308 1.148zm9.294 4.172c-.513 0-.961-.075-1.344-.224-.382-.159-.704-.364-.966-.616-.252-.252-.434-.527-.546-.826l.98-.406c.159.317.397.574.714.77.318.196.668.294 1.05.294.439 0 .808-.084 1.106-.252.299-.177.448-.425.448-.742 0-.289-.112-.523-.336-.7-.214-.177-.536-.322-.966-.434l-.672-.182c-.634-.168-1.129-.42-1.484-.756-.354-.345-.532-.733-.532-1.162 0-.663.215-1.176.644-1.54.439-.373 1.088-.56 1.946-.56.411 0 .784.061 1.12.182s.626.294.868.518c.243.215.42.471.532.77l-.98.434c-.121-.317-.322-.546-.602-.686s-.62-.21-1.022-.21c-.429 0-.765.093-1.008.28-.242.177-.364.429-.364.756 0 .187.098.364.294.532.206.159.504.289.896.392l.7.182c.458.112.84.28 1.148.504.308.215.542.462.7.742.159.28.238.579.238.896 0 .42-.112.784-.336 1.092s-.527.546-.91.714c-.382.159-.821.238-1.316.238zm7.601-.168v-7h1.12v7zm.574-8.624c-.187 0-.35-.07-.49-.21s-.21-.303-.21-.49c0-.196.07-.359.21-.49.14-.14.303-.21.49-.21.196 0 .359.07.49.21.14.131.21.294.21.49 0 .187-.07.35-.21.49-.131.14-.294.21-.49.21zm2.61 8.624v-7h1.05l.07 1.288v5.712zm4.914 0v-3.584h1.12v3.584zm0-3.584c0-.691-.08-1.218-.238-1.582-.159-.364-.378-.611-.658-.742-.28-.14-.598-.21-.952-.21-.616 0-1.097.219-1.442.658-.336.429-.504 1.041-.504 1.834h-.546c0-.737.107-1.372.322-1.904.214-.532.527-.938.938-1.218.41-.28.905-.42 1.484-.42.55 0 1.026.112 1.428.336.41.215.728.56.952 1.036.233.476.345 1.101.336 1.876v.336zm10.663 3.584-.056-1.148v-2.548c0-.551-.06-1.003-.182-1.358-.121-.364-.312-.639-.574-.826-.261-.187-.602-.28-1.022-.28-.382 0-.714.079-.994.238-.27.149-.494.392-.672.728l-1.008-.392c.178-.327.392-.607.644-.84.252-.243.546-.425.882-.546.336-.131.719-.196 1.148-.196.654 0 1.19.131 1.61.392.43.252.752.63.966 1.134.215.495.318 1.111.308 1.848l-.014 3.794zm-2.1.168c-.821 0-1.465-.187-1.932-.56-.457-.383-.686-.91-.686-1.582 0-.709.234-1.251.7-1.624.476-.383 1.139-.574 1.988-.574h2.002v.938h-1.75c-.653 0-1.12.107-1.4.322-.27.215-.406.523-.406.924 0 .364.136.653.406.868.271.205.649.308 1.134.308.402 0 .752-.084 1.05-.252.299-.177.528-.425.686-.742.168-.327.252-.709.252-1.148h.476c0 .952-.214 1.713-.644 2.282-.429.56-1.054.84-1.876.84zm4.995 2.632v-9.8h1.05l.07 1.288v8.512zm3.486-2.632c-.588 0-1.106-.154-1.554-.462-.439-.308-.779-.737-1.022-1.288-.243-.56-.364-1.199-.364-1.918 0-.728.121-1.367.364-1.918s.583-.98 1.022-1.288c.448-.308.966-.462 1.554-.462.625 0 1.176.154 1.652.462s.845.737 1.106 1.288c.271.551.406 1.19.406 1.918 0 .719-.135 1.358-.406 1.918-.261.551-.63.98-1.106 1.288s-1.027.462-1.652.462zm-.252-1.022c.439 0 .826-.112 1.162-.336.345-.224.616-.537.812-.938.205-.401.308-.859.308-1.372s-.098-.971-.294-1.372c-.187-.401-.453-.714-.798-.938s-.737-.336-1.176-.336c-.411 0-.779.112-1.106.336-.317.224-.569.537-.756.938-.177.401-.266.859-.266 1.372s.089.971.266 1.372c.187.401.439.714.756.938s.681.336 1.092.336zm5.037 3.654v-9.8h1.05l.07 1.288v8.512zm3.486-2.632c-.588 0-1.106-.154-1.554-.462-.438-.308-.779-.737-1.022-1.288-.242-.56-.364-1.199-.364-1.918 0-.728.122-1.367.364-1.918.243-.551.584-.98 1.022-1.288.448-.308.966-.462 1.554-.462.626 0 1.176.154 1.652.462s.845.737 1.106 1.288c.271.551.406 1.19.406 1.918 0 .719-.135 1.358-.406 1.918-.261.551-.63.98-1.106 1.288s-1.026.462-1.652.462zm-.252-1.022c.439 0 .826-.112 1.162-.336.346-.224.616-.537.812-.938.206-.401.308-.859.308-1.372s-.098-.971-.294-1.372c-.186-.401-.452-.714-.798-.938-.345-.224-.737-.336-1.176-.336-.41 0-.779.112-1.106.336-.317.224-.569.537-.756.938-.177.401-.266.859-.266 1.372s.089.971.266 1.372c.187.401.439.714.756.938.318.224.682.336 1.092.336zm7.418 1.022c-.513 0-.961-.075-1.344-.224-.383-.159-.705-.364-.966-.616-.252-.252-.434-.527-.546-.826l.98-.406c.159.317.397.574.714.77s.667.294 1.05.294c.439 0 .807-.084 1.106-.252.299-.177.448-.425.448-.742 0-.289-.112-.523-.336-.7-.215-.177-.537-.322-.966-.434l-.672-.182c-.635-.168-1.129-.42-1.484-.756-.355-.345-.532-.733-.532-1.162 0-.663.215-1.176.644-1.54.439-.373 1.087-.56 1.946-.56.411 0 .784.061 1.12.182s.625.294.868.518c.243.215.42.471.532.77l-.98.434c-.121-.317-.322-.546-.602-.686s-.621-.21-1.022-.21c-.429 0-.765.093-1.008.28-.243.177-.364.429-.364.756 0 .187.098.364.294.532.205.159.504.289.896.392l.7.182c.457.112.84.28 1.148.504.308.215.541.462.7.742s.238.579.238.896c0 .42-.112.784-.336 1.092s-.527.546-.91.714c-.383.159-.821.238-1.316.238z" fill="#6b6071"/><path d="m518.667 117h-85.334v2h85.334z" fill="#efebef"/><path clip-rule="evenodd" d="m538.476 119.952-1.962-.389c.1-.504.153-1.026.153-1.563s-.053-1.059-.153-1.563l1.962-.389c.125.632.191 1.284.191 1.952s-.066 1.32-.191 1.952zm-1.494-7.508-1.662 1.112c-.584-.873-1.337-1.625-2.21-2.21l1.113-1.662c1.09.73 2.029 1.669 2.759 2.76zm-6.364-4.254-.388 1.962c-.504-.099-1.027-.152-1.563-.152-.537 0-1.06.053-1.564.152l-.388-1.962c.631-.125 1.284-.19 1.952-.19.667 0 1.32.065 1.951.19zm-7.508 1.494 1.113 1.662c-.873.585-1.626 1.337-2.21 2.21l-1.662-1.112c.73-1.091 1.669-2.03 2.759-2.76zm-4.253 6.364c-.125.632-.19 1.284-.19 1.952s.065 1.32.19 1.952l1.962-.389c-.1-.504-.152-1.026-.152-1.563s.052-1.059.152-1.563zm1.494 7.508 1.662-1.112c.584.873 1.337 1.625 2.21 2.21l-1.113 1.662c-1.09-.73-2.029-1.669-2.759-2.76zm6.364 4.254.388-1.962c.504.099 1.027.152 1.564.152.536 0 1.059-.053 1.563-.152l.388 1.962c-.631.125-1.284.19-1.951.19-.668 0-1.321-.065-1.952-.19zm7.508-1.494-1.113-1.662c.873-.585 1.626-1.337 2.21-2.21l1.662 1.112c-.73 1.091-1.669 2.03-2.759 2.76z" fill="#94879b" fill-rule="evenodd"/><path d="m0 0h85.3333v24h-85.3333z" fill="#fff" transform="translate(538.667 106)"/><path d="m498.453 153.168c-.541 0-1.022-.056-1.442-.168-.42-.121-.784-.285-1.092-.49-.308-.215-.56-.448-.756-.7-.196-.261-.34-.537-.434-.826l1.134-.392c.14.411.42.77.84 1.078.43.299.952.448 1.568.448.756 0 1.349-.149 1.778-.448.43-.299.644-.695.644-1.19 0-.457-.191-.826-.574-1.106-.382-.289-.886-.513-1.512-.672l-1.078-.28c-.438-.112-.844-.275-1.218-.49-.364-.224-.658-.504-.882-.84-.214-.345-.322-.756-.322-1.232 0-.887.285-1.577.854-2.072.579-.504 1.41-.756 2.492-.756.644 0 1.2.107 1.666.322.467.205.845.471 1.134.798.299.317.509.663.63 1.036l-1.12.392c-.177-.467-.476-.831-.896-1.092-.42-.271-.928-.406-1.526-.406-.625 0-1.124.154-1.498.462-.364.299-.546.709-.546 1.232 0 .448.145.793.434 1.036.29.233.668.406 1.134.518l1.078.266c.952.224 1.68.597 2.184 1.12.514.513.77 1.069.77 1.666 0 .513-.13.985-.392 1.414-.261.42-.648.756-1.162 1.008-.504.243-1.134.364-1.89.364zm9.454-.168-.056-1.148v-2.548c0-.551-.061-1.003-.182-1.358-.122-.364-.313-.639-.574-.826-.262-.187-.602-.28-1.022-.28-.383 0-.714.079-.994.238-.271.149-.495.392-.672.728l-1.008-.392c.177-.327.392-.607.644-.84.252-.243.546-.425.882-.546.336-.131.718-.196 1.148-.196.653 0 1.19.131 1.61.392.429.252.751.63.966 1.134.214.495.317 1.111.308 1.848l-.014 3.794zm-2.1.168c-.822 0-1.466-.187-1.932-.56-.458-.383-.686-.91-.686-1.582 0-.709.233-1.251.7-1.624.476-.383 1.138-.574 1.988-.574h2.002v.938h-1.75c-.654 0-1.12.107-1.4.322-.271.215-.406.523-.406.924 0 .364.135.653.406.868.27.205.648.308 1.134.308.401 0 .751-.084 1.05-.252.298-.177.527-.425.686-.742.168-.327.252-.709.252-1.148h.476c0 .952-.215 1.713-.644 2.282-.43.56-1.055.84-1.876.84zm6.957-.168 2.856-7h1.176l-2.926 7zm-.07 0-2.926-7h1.162l2.856 7zm8.104.168c-.682 0-1.284-.154-1.806-.462-.523-.317-.934-.751-1.232-1.302-.29-.551-.434-1.185-.434-1.904s.144-1.353.434-1.904c.298-.551.704-.98 1.218-1.288.522-.317 1.12-.476 1.792-.476.653 0 1.218.163 1.694.49.476.317.844.765 1.106 1.344.261.579.392 1.26.392 2.044h-5.782l.28-.238c0 .56.098 1.041.294 1.442.205.401.49.709.854.924.364.205.779.308 1.246.308.494 0 .91-.117 1.246-.35.345-.233.611-.541.798-.924l.966.49c-.178.364-.416.681-.714.952-.29.271-.635.481-1.036.63-.392.149-.831.224-1.316.224zm-2.268-4.172-.294-.224h4.83l-.294.238c0-.448-.089-.835-.266-1.162-.178-.327-.416-.579-.714-.756-.299-.177-.644-.266-1.036-.266-.383 0-.747.089-1.092.266-.336.177-.612.429-.826.756-.206.317-.308.7-.308 1.148zm12.935 4.172c-.681 0-1.209-.177-1.582-.532s-.56-.854-.56-1.498v-7.322h1.12v7.21c0 .355.093.63.28.826.196.187.467.28.812.28.112 0 .219-.014.322-.042.112-.037.257-.121.434-.252l.434.91c-.243.159-.462.266-.658.322-.196.065-.397.098-.602.098zm-3.36-6.174v-.994h4.438v.994zm9.072 6.174c-.681 0-1.288-.154-1.82-.462-.523-.317-.933-.751-1.232-1.302s-.448-1.185-.448-1.904.145-1.353.434-1.904c.299-.551.709-.98 1.232-1.288.532-.317 1.134-.476 1.806-.476.691 0 1.297.159 1.82.476.532.308.943.737 1.232 1.288.299.551.448 1.185.448 1.904s-.149 1.353-.448 1.904c-.289.551-.695.985-1.218 1.302-.523.308-1.125.462-1.806.462zm0-1.036c.467 0 .873-.112 1.218-.336s.616-.532.812-.924c.205-.392.308-.849.308-1.372s-.103-.98-.308-1.372c-.196-.392-.471-.7-.826-.924s-.765-.336-1.232-.336c-.457 0-.863.112-1.218.336-.345.224-.621.532-.826.924-.196.392-.294.849-.294 1.372 0 .513.098.971.294 1.372.205.392.485.7.84.924.364.224.775.336 1.232.336zm6.119-1.386-.714-.77 3.724-3.976h1.414zm-1.092 2.254v-9.8h1.12v9.8zm4.41 0-2.66-4.018.728-.784 3.318 4.802zm5.301.168c-.682 0-1.284-.154-1.806-.462-.523-.317-.934-.751-1.232-1.302-.29-.551-.434-1.185-.434-1.904s.144-1.353.434-1.904c.298-.551.704-.98 1.218-1.288.522-.317 1.12-.476 1.792-.476.653 0 1.218.163 1.694.49.476.317.844.765 1.106 1.344.261.579.392 1.26.392 2.044h-5.782l.28-.238c0 .56.098 1.041.294 1.442.205.401.49.709.854.924.364.205.779.308 1.246.308.494 0 .91-.117 1.246-.35.345-.233.611-.541.798-.924l.966.49c-.178.364-.416.681-.714.952-.29.271-.635.481-1.036.63-.392.149-.831.224-1.316.224zm-2.268-4.172-.294-.224h4.83l-.294.238c0-.448-.089-.835-.266-1.162-.178-.327-.416-.579-.714-.756-.299-.177-.644-.266-1.036-.266-.383 0-.747.089-1.092.266-.336.177-.612.429-.826.756-.206.317-.308.7-.308 1.148zm6.844 4.004v-7h1.05l.07 1.288v5.712zm4.914 0v-3.584h1.12v3.584zm0-3.584c0-.691-.079-1.218-.238-1.582-.158-.364-.378-.611-.658-.742-.28-.14-.597-.21-.952-.21-.616 0-1.096.219-1.442.658-.336.429-.504 1.041-.504 1.834h-.546c0-.737.108-1.372.322-1.904.215-.532.528-.938.938-1.218.411-.28.906-.42 1.484-.42.551 0 1.027.112 1.428.336.411.215.728.56.952 1.036.234.476.346 1.101.336 1.876v.336z" fill="#6b6071"/><rect fill="#fff" height="40" rx="4" width="40" x="600" y="46"/><path d="m620 67.4143 4.543 4.5426s0 .0003.707-.7068.707-.7072.707-.7072l-4.543-4.5428 4.543-4.5429-1.414-1.4142-4.543 4.5429-4.543-4.5429-1.414 1.4142 4.543 4.5429-4.543 4.5429 1.414 1.4142z" fill="#2b0e3f"/><path d="m61.909 227.228c-.6713 0-1.2983-.082-1.881-.247s-1.102-.393-1.558-.684c-.456-.304-.836-.64-1.14-1.007-.2913-.367-.4813-.754-.57-1.159l2.546-.76c.1647.431.456.804.874 1.121.418.304.9437.462 1.577.475.6713.013 1.216-.133 1.634-.437.4307-.304.646-.697.646-1.178 0-.418-.171-.766-.513-1.045-.3293-.291-.7853-.513-1.368-.665l-1.729-.456c-.646-.165-1.216-.412-1.71-.741-.494-.342-.8803-.76-1.159-1.254s-.418-1.07-.418-1.729c0-1.254.4117-2.229 1.235-2.926.836-.709 2.014-1.064 3.534-1.064.8487 0 1.5897.127 2.223.38.646.241 1.1843.589 1.615 1.045s.76.994.988 1.615l-2.527.779c-.152-.431-.4307-.798-.836-1.102s-.9183-.456-1.539-.456c-.6333 0-1.1337.146-1.501.437-.3547.291-.532.703-.532 1.235 0 .418.1393.747.418.988.2913.241.684.424 1.178.551l1.748.437c1.14.279 2.0267.779 2.66 1.501s.95 1.526.95 2.413c0 .785-.19 1.476-.57 2.071-.38.583-.931 1.039-1.653 1.368s-1.596.494-2.622.494zm11.009 0c-.9373 0-1.767-.209-2.489-.627-.722-.431-1.292-1.02-1.71-1.767-.4053-.747-.608-1.609-.608-2.584s.209-1.837.627-2.584c.4307-.747 1.0133-1.33 1.748-1.748.7473-.431 1.6023-.646 2.565-.646.836 0 1.6023.222 2.299.665.7093.431 1.273 1.07 1.691 1.919.4307.836.646 1.856.646 3.059h-7.201l.228-.228c0 .469.114.88.342 1.235.2407.342.5447.608.912.798.38.177.7853.266 1.216.266.5193 0 .9437-.108 1.273-.323.3293-.228.5827-.519.76-.874l2.242.874c-.266.532-.6143.994-1.045 1.387-.418.38-.9183.671-1.501.874s-1.2477.304-1.995.304zm-2.071-5.947-.228-.228h4.579l-.209.228c0-.456-.1077-.817-.323-1.083-.2153-.279-.4813-.481-.798-.608-.304-.127-.6017-.19-.893-.19s-.6017.063-.931.19-.6143.329-.855.608c-.228.266-.342.627-.342 1.083zm12.2115 5.947c-1.0513 0-1.8493-.26-2.394-.779-.532-.519-.798-1.26-.798-2.223v-9.69h2.508v9.139c0 .405.0887.716.266.931.1774.203.437.304.779.304.1267 0 .266-.025.418-.076.152-.063.3104-.152.475-.266l.874 1.881c-.304.228-.646.412-1.026.551-.3673.152-.7346.228-1.102.228zm-4.731-7.6v-2.128h6.422v2.128zm19.2589 7.372-.152-1.748v-7.752h2.508v9.5zm-6.441-4.636v-4.864h2.508v4.864zm2.508 0c0 .633.0697 1.134.209 1.501.152.355.361.614.627.779.2787.152.589.228.931.228.6587.013 1.159-.184 1.501-.589.342-.418.513-1.02.513-1.805h.855c0 1.013-.152 1.875-.456 2.584-.304.697-.722 1.235-1.254 1.615-.532.367-1.159.551-1.881.551-.76 0-1.406-.152-1.938-.456s-.9373-.773-1.216-1.406c-.266-.646-.399-1.476-.399-2.489v-.513zm8.5566 8.436v-13.3h2.356l.152 1.748v11.552zm5.377-3.572c-.798 0-1.475-.203-2.033-.608-.544-.405-.962-.982-1.254-1.729-.291-.747-.437-1.628-.437-2.641 0-1.026.146-1.906.437-2.641.292-.747.71-1.324 1.254-1.729.558-.405 1.235-.608 2.033-.608.874 0 1.628.203 2.261.608.646.405 1.147.982 1.501 1.729.355.735.532 1.615.532 2.641 0 1.013-.177 1.894-.532 2.641-.354.747-.855 1.324-1.501 1.729-.633.405-1.387.608-2.261.608zm-.646-2.299c.456 0 .855-.114 1.197-.342.355-.228.634-.545.836-.95.203-.405.304-.868.304-1.387s-.101-.982-.304-1.387c-.19-.405-.462-.716-.817-.931-.342-.228-.741-.342-1.197-.342-.43 0-.817.114-1.159.342s-.608.545-.798.95c-.19.393-.285.849-.285 1.368s.095.982.285 1.387.45.722.779.95c.342.228.729.342 1.159.342zm15.027 2.299c-1.052 0-1.85-.26-2.394-.779-.532-.519-.798-1.26-.798-2.223v-9.69h2.508v9.139c0 .405.088.716.266.931.177.203.437.304.779.304.126 0 .266-.025.418-.076.152-.063.31-.152.475-.266l.874 1.881c-.304.228-.646.412-1.026.551-.368.152-.735.228-1.102.228zm-4.731-7.6v-2.128h6.422v2.128zm12.759 7.6c-.962 0-1.824-.209-2.584-.627-.747-.431-1.336-1.02-1.767-1.767-.418-.747-.627-1.609-.627-2.584s.209-1.837.627-2.584 1.001-1.33 1.748-1.748c.748-.431 1.603-.646 2.565-.646.976 0 1.837.215 2.584.646.748.418 1.33 1.001 1.748 1.748s.627 1.609.627 2.584-.209 1.837-.627 2.584-1 1.336-1.748 1.767c-.734.418-1.583.627-2.546.627zm0-2.318c.469 0 .881-.114 1.235-.342.355-.228.627-.538.817-.931.203-.405.304-.868.304-1.387s-.101-.975-.304-1.368c-.202-.405-.487-.722-.855-.95-.354-.228-.766-.342-1.235-.342-.456 0-.867.114-1.235.342-.354.228-.633.545-.836.95-.202.393-.304.849-.304 1.368s.102.982.304 1.387c.203.393.488.703.855.931.368.228.786.342 1.254.342zm8.969-.323-1.501-1.729 4.864-5.358h2.983zm-2.394 2.413v-13.3h2.508v13.3zm6.08 0-3.154-4.598 1.634-1.729 4.465 6.327zm7.937.228c-.937 0-1.767-.209-2.489-.627-.722-.431-1.292-1.02-1.71-1.767-.405-.747-.608-1.609-.608-2.584s.209-1.837.627-2.584c.431-.747 1.013-1.33 1.748-1.748.747-.431 1.602-.646 2.565-.646.836 0 1.602.222 2.299.665.709.431 1.273 1.07 1.691 1.919.431.836.646 1.856.646 3.059h-7.201l.228-.228c0 .469.114.88.342 1.235.241.342.545.608.912.798.38.177.785.266 1.216.266.519 0 .944-.108 1.273-.323.329-.228.583-.519.76-.874l2.242.874c-.266.532-.614.994-1.045 1.387-.418.38-.918.671-1.501.874s-1.248.304-1.995.304zm-2.071-5.947-.228-.228h4.579l-.209.228c0-.456-.108-.817-.323-1.083-.215-.279-.481-.481-.798-.608-.304-.127-.602-.19-.893-.19s-.602.063-.931.19-.614.329-.855.608c-.228.266-.342.627-.342 1.083zm8.297 5.719v-9.5h2.356l.152 1.748v7.752zm6.289 0v-4.864h2.508v4.864zm0-4.864c0-.646-.076-1.146-.228-1.501-.139-.355-.342-.608-.608-.76-.266-.165-.576-.247-.931-.247-.646-.013-1.146.184-1.501.589-.342.405-.513 1.007-.513 1.805h-.836c0-1.013.146-1.868.437-2.565.304-.709.722-1.248 1.254-1.615.545-.38 1.178-.57 1.9-.57.748 0 1.387.152 1.919.456s.938.779 1.216 1.425c.279.633.412 1.457.399 2.47v.513z" fill="#201b22"/><g clip-path="url(#d)"><path d="m57.162 273v-9.8h1.68l5.208 7.084v-7.084h1.624v9.8h-1.624l-5.264-7.168v7.168zm14.8178 0-.07-1.316v-2.282c0-.476-.0513-.873-.154-1.19-.0933-.327-.252-.574-.476-.742-.2147-.177-.504-.266-.868-.266-.336 0-.63.07-.882.21s-.4667.359-.644.658l-1.372-.504c.1493-.308.3453-.593.588-.854.252-.271.5647-.485.938-.644.3827-.159.84-.238 1.372-.238.6813 0 1.2507.135 1.708.406.4573.261.7933.639 1.008 1.134.224.495.336 1.092.336 1.792l-.042 3.836zm-2.016.168c-.84 0-1.4933-.187-1.96-.56-.4573-.373-.686-.901-.686-1.582 0-.728.2427-1.283.728-1.666.4947-.383 1.1807-.574 2.058-.574h1.876v1.204h-1.372c-.6253 0-1.064.089-1.316.266-.252.168-.378.411-.378.728 0 .271.1073.485.322.644.224.149.532.224.924.224.3547 0 .6627-.079.924-.238s.462-.369.602-.63c.1493-.261.224-.555.224-.882h.462c0 .952-.1913 1.703-.574 2.254-.3827.541-.994.812-1.834.812zm5.0878-.168v-7h1.47l.07.938c.2147-.364.49-.639.826-.826s.7187-.28 1.148-.28c.56 0 1.036.126 1.428.378s.6767.635.854 1.148c.2053-.495.4947-.873.868-1.134s.812-.392 1.316-.392c.812 0 1.4373.261 1.876.784.4387.513.6533 1.307.644 2.38v4.004h-1.554v-3.584c0-.56-.0607-.989-.182-1.288-.1213-.308-.2847-.523-.49-.644s-.4433-.182-.714-.182c-.4853-.009-.8633.163-1.134.518-.2613.355-.392.863-.392 1.526v3.654h-1.568v-3.584c0-.56-.0607-.989-.182-1.288-.112-.308-.2707-.523-.476-.644s-.4433-.182-.714-.182c-.4853-.009-.8633.163-1.134.518-.2613.355-.392.863-.392 1.526v3.654zm15.2216.168c-.6813 0-1.288-.154-1.82-.462-.5227-.317-.938-.751-1.246-1.302-.2987-.551-.448-1.185-.448-1.904s.154-1.353.462-1.904.728-.98 1.26-1.288c.5413-.317 1.1573-.476 1.848-.476.6253 0 1.19.163 1.694.49.504.317.9007.779 1.19 1.386.2987.607.448 1.33.448 2.17h-5.502l.21-.196c0 .429.0933.803.28 1.12.1867.308.434.546.742.714s.6487.252 1.022.252c.4293 0 .784-.093 1.064-.28.28-.196.4993-.448.658-.756l1.386.588c-.196.373-.448.7-.756.98-.2987.28-.658.495-1.078.644-.4107.149-.882.224-1.414.224zm-1.806-4.298-.224-.196h3.948l-.21.196c0-.383-.084-.695-.252-.938-.168-.252-.3827-.439-.644-.56-.252-.131-.518-.196-.798-.196s-.56.065-.84.196c-.28.121-.5133.308-.7.56-.1867.243-.28.555-.28.938z" fill="#2b0e3f"/></g><g filter="url(#b)"><rect fill="#fff" height="48" rx="4" width="576" x="56" y="282"/><rect height="47" rx="3.5" stroke="#dfdae1" width="575" x="56.5" y="282.5"/><path d="m73.488 312v-11.2h3.648c.7253 0 1.3653.149 1.92.448.5653.299 1.0027.715 1.312 1.248.32.533.48 1.152.48 1.856 0 .683-.144 1.291-.432 1.824s-.6827.955-1.184 1.264c-.5013.299-1.0827.448-1.744.448h-2.64v4.112zm1.36-5.344h2.64c.5867 0 1.0667-.213 1.44-.64.384-.437.576-.992.576-1.664 0-.693-.224-1.253-.672-1.68s-1.0187-.64-1.712-.64h-2.272zm7.5376 5.344v-11.2h1.28v11.2zm8.4437 0-.064-1.312v-2.912c0-.629-.0694-1.147-.208-1.552-.1387-.416-.3574-.731-.656-.944-.2987-.213-.688-.32-1.168-.32-.4374 0-.816.091-1.136.272-.3094.171-.5654.448-.768.832l-1.152-.448c.2026-.373.448-.693.736-.96.288-.277.624-.485 1.008-.624.384-.149.8213-.224 1.312-.224.7466 0 1.36.149 1.84.448.4906.288.8586.72 1.104 1.296.2453.565.3626 1.269.352 2.112l-.016 4.336zm-2.4.192c-.9387 0-1.6747-.213-2.208-.64-.5227-.437-.784-1.04-.784-1.808 0-.811.2666-1.429.8-1.856.544-.437 1.3013-.656 2.272-.656h2.288v1.072h-2c-.7467 0-1.28.123-1.6.368-.3094.245-.464.597-.464 1.056 0 .416.1546.747.464.992.3093.235.7413.352 1.296.352.4586 0 .8586-.096 1.2-.288.3413-.203.6026-.485.784-.848.192-.373.288-.811.288-1.312h.544c0 1.088-.2454 1.957-.736 2.608-.4907.64-1.2054.96-2.144.96zm9.1962 0c-.7893 0-1.488-.176-2.096-.528-.608-.363-1.0827-.859-1.424-1.488s-.512-1.355-.512-2.176.1653-1.547.496-2.176c.3413-.629.816-1.12 1.424-1.472.608-.363 1.3013-.544 2.08-.544.768 0 1.456.176 2.064.528.6085.352 1.0725.848 1.3925 1.488l-1.1685.528c-.2133-.427-.5227-.757-.928-.992-.4053-.245-.8693-.368-1.392-.368s-.9867.128-1.392.384c-.3947.256-.7093.613-.944 1.072-.224.448-.336.965-.336 1.552s.112 1.109.336 1.568c.2347.448.5547.8.96 1.056.416.256.8853.384 1.408.384s.9867-.133 1.392-.4c.416-.267.7307-.64.944-1.12l1.1685.528c-.32.683-.784 1.216-1.3925 1.6-.608.384-1.3013.576-2.08.576zm8.5925 0c-.779 0-1.467-.176-2.064-.528-.598-.363-1.067-.859-1.408-1.488-.331-.629-.496-1.355-.496-2.176s.165-1.547.496-2.176c.341-.629.805-1.12 1.392-1.472.597-.363 1.28-.544 2.048-.544.746 0 1.392.187 1.936.56.544.363.965.875 1.264 1.536.298.661.448 1.44.448 2.336h-6.608l.32-.272c0 .64.112 1.189.336 1.648.234.459.56.811.976 1.056.416.235.89.352 1.424.352.565 0 1.04-.133 1.424-.4.394-.267.698-.619.912-1.056l1.104.56c-.203.416-.475.779-.816 1.088-.331.309-.726.549-1.184.72-.448.171-.95.256-1.504.256zm-2.592-4.768-.336-.256h5.52l-.336.272c0-.512-.102-.955-.304-1.328-.203-.373-.475-.661-.816-.864-.342-.203-.736-.304-1.184-.304-.438 0-.854.101-1.248.304-.384.203-.699.491-.944.864-.235.363-.352.8-.352 1.312zm7.822 4.576v-11.2h1.28v11.2zm5.632 0v-4.096h1.28v4.096zm0-4.096c0-.789-.096-1.392-.288-1.808-.181-.416-.432-.699-.752-.848-.32-.16-.683-.24-1.088-.24-.704 0-1.253.251-1.648.752-.384.491-.576 1.189-.576 2.096h-.624c0-.843.123-1.568.368-2.176.256-.608.619-1.072 1.088-1.392s1.035-.48 1.696-.48c.619 0 1.163.128 1.632.384.469.245.832.64 1.088 1.184.267.544.395 1.259.384 2.144v.384zm6.826 4.288c-.779 0-1.472-.176-2.08-.528-.597-.363-1.067-.859-1.408-1.488s-.512-1.355-.512-2.176.165-1.547.496-2.176c.341-.629.811-1.12 1.408-1.472.608-.363 1.296-.544 2.064-.544.789 0 1.483.181 2.08.544.608.352 1.077.843 1.408 1.472.341.629.512 1.355.512 2.176s-.171 1.547-.512 2.176c-.331.629-.795 1.125-1.392 1.488-.597.352-1.285.528-2.064.528zm0-1.184c.533 0 .997-.128 1.392-.384s.704-.608.928-1.056c.235-.448.352-.971.352-1.568s-.117-1.12-.352-1.568c-.224-.448-.539-.8-.944-1.056s-.875-.384-1.408-.384c-.523 0-.987.128-1.392.384-.395.256-.709.608-.944 1.056-.224.448-.336.971-.336 1.568 0 .587.112 1.109.336 1.568.235.448.555.8.96 1.056.416.256.885.384 1.408.384zm5.745.992v-11.2h1.28v11.2zm9.436 0-.064-1.488v-9.712h1.28v11.2zm-2.768.192c-.715 0-1.344-.176-1.888-.528s-.971-.843-1.28-1.472c-.299-.64-.448-1.371-.448-2.192 0-.832.149-1.563.448-2.192.309-.629.736-1.12 1.28-1.472s1.173-.528 1.888-.528c.672 0 1.259.176 1.76.528.512.352.907.843 1.184 1.472s.416 1.36.416 2.192c0 .821-.139 1.552-.416 2.192-.277.629-.672 1.12-1.184 1.472-.501.352-1.088.528-1.76.528zm.288-1.168c.469 0 .885-.128 1.248-.384s.645-.613.848-1.072c.213-.459.32-.981.32-1.568s-.107-1.109-.32-1.568c-.203-.459-.485-.816-.848-1.072s-.784-.384-1.264-.384c-.501 0-.949.128-1.344.384-.384.256-.688.613-.912 1.072s-.336.981-.336 1.568.112 1.109.336 1.568.533.816.928 1.072.843.384 1.344.384zm9.439 1.168c-.779 0-1.467-.176-2.064-.528-.597-.363-1.067-.859-1.408-1.488-.331-.629-.496-1.355-.496-2.176s.165-1.547.496-2.176c.341-.629.805-1.12 1.392-1.472.597-.363 1.28-.544 2.048-.544.747 0 1.392.187 1.936.56.544.363.965.875 1.264 1.536s.448 1.44.448 2.336h-6.608l.32-.272c0 .64.112 1.189.336 1.648.235.459.56.811.976 1.056.416.235.891.352 1.424.352.565 0 1.04-.133 1.424-.4.395-.267.699-.619.912-1.056l1.104.56c-.203.416-.475.779-.816 1.088-.331.309-.725.549-1.184.72-.448.171-.949.256-1.504.256zm-2.592-4.768-.336-.256h5.52l-.336.272c0-.512-.101-.955-.304-1.328s-.475-.661-.816-.864-.736-.304-1.184-.304c-.437 0-.853.101-1.248.304-.384.203-.699.491-.944.864-.235.363-.352.8-.352 1.312zm8.526.24c0-.864.166-1.563.496-2.096.331-.544.752-.944 1.264-1.2.523-.267 1.072-.4 1.648-.4v1.2c-.469 0-.922.08-1.36.24-.426.149-.778.4-1.056.752-.277.352-.416.832-.416 1.44zm-.704 4.336v-8h1.28v8zm12.368.192c-.779 0-1.382-.203-1.808-.608-.427-.405-.64-.976-.64-1.712v-8.368h1.28v8.24c0 .405.106.72.32.944.224.213.533.32.928.32.128 0 .25-.016.368-.048.128-.043.293-.139.496-.288l.496 1.04c-.278.181-.528.304-.752.368-.224.075-.454.112-.688.112zm-3.84-7.056v-1.136h5.072v1.136zm10.336 7.056c-.779 0-1.467-.176-2.064-.528-.598-.363-1.067-.859-1.408-1.488-.331-.629-.496-1.355-.496-2.176s.165-1.547.496-2.176c.341-.629.805-1.12 1.392-1.472.597-.363 1.28-.544 2.048-.544.746 0 1.392.187 1.936.56.544.363.965.875 1.264 1.536.298.661.448 1.44.448 2.336h-6.608l.32-.272c0 .64.112 1.189.336 1.648.234.459.56.811.976 1.056.416.235.89.352 1.424.352.565 0 1.04-.133 1.424-.4.394-.267.698-.619.912-1.056l1.104.56c-.203.416-.475.779-.816 1.088-.331.309-.726.549-1.184.72-.448.171-.95.256-1.504.256zm-2.592-4.768-.336-.256h5.52l-.336.272c0-.512-.102-.955-.304-1.328-.203-.373-.475-.661-.816-.864-.342-.203-.736-.304-1.184-.304-.438 0-.854.101-1.248.304-.384.203-.699.491-.944.864-.235.363-.352.8-.352 1.312zm6.784 4.576 3.264-4.592 2.304-3.408h1.52l-3.04 4.32-2.496 3.68zm5.744 0-2.464-3.68-3.072-4.32h1.52l2.32 3.408 3.232 4.592zm5.818.192c-.779 0-1.382-.203-1.808-.608-.427-.405-.64-.976-.64-1.712v-8.368h1.28v8.24c0 .405.106.72.32.944.224.213.533.32.928.32.128 0 .25-.016.368-.048.128-.043.293-.139.496-.288l.496 1.04c-.278.181-.528.304-.752.368-.224.075-.454.112-.688.112zm-3.84-7.056v-1.136h5.072v1.136z" fill="#afa4b4"/></g><g clip-path="url(#e)"><path d="m57.162 369v-9.8h6.034v1.484h-4.41v2.604h3.892v1.456h-3.892v2.772h4.452v1.484zm7.2358 0 2.87-4.004 2.002-2.996h1.848l-2.73 3.864-2.114 3.136zm5.026 0-2.072-3.136-2.772-3.864h1.848l2.016 2.996 2.842 4.004zm2.9361 2.8v-9.8h1.47l.098 1.288v8.512zm3.78-2.632c-.588 0-1.0967-.149-1.526-.448-.42-.308-.742-.737-.966-1.288s-.336-1.195-.336-1.932c0-.747.112-1.391.336-1.932.224-.551.546-.975.966-1.274.4293-.308.938-.462 1.526-.462.6346 0 1.1853.154 1.652.462.476.299.8446.723 1.106 1.274.2706.541.406 1.185.406 1.932 0 .737-.1354 1.381-.406 1.932-.2614.551-.63.98-1.106 1.288-.4667.299-1.0174.448-1.652.448zm-.392-1.428c.3733 0 .7046-.093.994-.28.2893-.196.518-.462.686-.798.1773-.336.266-.723.266-1.162s-.084-.826-.252-1.162c-.1587-.336-.3827-.597-.672-.784-.2894-.187-.6254-.28-1.008-.28-.3547 0-.672.093-.952.28s-.4994.448-.658.784c-.1494.336-.224.723-.224 1.162s.0746.826.224 1.162c.1586.336.3733.602.644.798.28.187.5973.28.952.28zm4.9935 1.26v-7h1.554v7zm.784-8.33c-.252 0-.4713-.089-.658-.266-.1773-.187-.266-.406-.266-.658s.0887-.467.266-.644c.1867-.177.406-.266.658-.266s.4667.089.644.266c.1867.177.28.392.28.644s-.0933.471-.28.658c-.1773.177-.392.266-.644.266zm3.654 4.606c0-.756.1447-1.377.434-1.862s.6627-.845 1.12-1.078c.4667-.243.952-.364 1.456-.364v1.498c-.4293 0-.8353.061-1.218.182-.3733.112-.6767.299-.91.56s-.35.607-.35 1.036zm-1.036 3.724v-7h1.568v7zm9.3559 0-.07-1.316v-2.282c0-.476-.0513-.873-.154-1.19-.0933-.327-.252-.574-.476-.742-.2146-.177-.504-.266-.868-.266-.336 0-.63.07-.882.21s-.4666.359-.644.658l-1.372-.504c.1494-.308.3454-.593.588-.854.252-.271.5647-.485.938-.644.3827-.159.84-.238 1.372-.238.6814 0 1.2507.135 1.708.406.4574.261.7934.639 1.008 1.134.224.495.336 1.092.336 1.792l-.042 3.836zm-2.016.168c-.84 0-1.4933-.187-1.96-.56-.4573-.373-.686-.901-.686-1.582 0-.728.2427-1.283.728-1.666.4947-.383 1.1807-.574 2.058-.574h1.876v1.204h-1.372c-.6253 0-1.064.089-1.316.266-.252.168-.378.411-.378.728 0 .271.1074.485.322.644.224.149.532.224.924.224.3547 0 .6627-.079.924-.238.2614-.159.462-.369.602-.63.1494-.261.224-.555.224-.882h.462c0 .952-.1913 1.703-.574 2.254-.3826.541-.994.812-1.834.812zm7.8738 0c-.7373 0-1.302-.182-1.694-.546-.3826-.373-.574-.905-.574-1.596v-7.21h1.554v6.916c0 .327.0747.574.224.742.1587.168.3874.252.686.252.0934 0 .196-.019.308-.056s.2379-.107.3779-.21l.574 1.19c-.243.168-.485.294-.728.378-.2425.093-.4852.14-.7279.14zm-3.43-5.824v-1.344h4.6059v1.344zm6.2379 5.656v-7h1.554v7zm.784-8.33c-.252 0-.471-.089-.658-.266-.177-.187-.266-.406-.266-.658s.089-.467.266-.644c.187-.177.406-.266.658-.266s.467.089.644.266c.187.177.28.392.28.644s-.093.471-.28.658c-.177.177-.392.266-.644.266zm5.838 8.498c-.7 0-1.325-.154-1.876-.462-.541-.317-.966-.751-1.274-1.302s-.462-1.185-.462-1.904.15-1.353.448-1.904c.308-.551.733-.98 1.274-1.288.542-.317 1.162-.476 1.862-.476s1.321.159 1.862.476c.542.308.962.737 1.26 1.288.308.551.462 1.185.462 1.904s-.149 1.353-.448 1.904c-.298.551-.718.985-1.26 1.302-.541.308-1.157.462-1.848.462zm0-1.442c.383 0 .724-.093 1.022-.28.299-.196.532-.457.7-.784.168-.336.252-.723.252-1.162s-.088-.821-.266-1.148c-.168-.336-.401-.597-.7-.784-.298-.196-.644-.294-1.036-.294s-.737.093-1.036.28c-.298.187-.532.448-.7.784s-.252.723-.252 1.162.084.826.252 1.162c.178.327.416.588.714.784.308.187.658.28 1.05.28zm4.915 1.274v-7h1.47l.098 1.288v5.712zm4.746 0v-3.584h1.568v3.584zm0-3.584c0-.56-.065-.989-.196-1.288-.121-.308-.299-.523-.532-.644-.224-.121-.49-.182-.798-.182-.523-.009-.929.163-1.218.518s-.434.863-.434 1.526h-.588c0-.737.107-1.367.322-1.89.215-.532.523-.933.924-1.204.401-.28.877-.42 1.428-.42.56 0 1.036.112 1.428.336.401.224.705.574.91 1.05.215.467.322 1.078.322 1.834v.364z" fill="#2b0e3f"/></g><rect fill="#fff" height="47" rx="3.5" width="575" x="56.5" y="378.5"/><rect height="47" rx="3.5" stroke="#c9c1cd" width="575" x="56.5" y="378.5"/><path d="m76.304 408.192c-.544 0-1.04-.08-1.488-.24-.4373-.171-.816-.389-1.136-.656-.3093-.267-.5547-.549-.736-.848l1.12-.624c.1173.149.2613.32.432.512.1813.181.4107.336.688.464s.6187.192 1.024.192c.7253 0 1.3067-.208 1.744-.624s.656-.939.656-1.568c0-.48-.1333-.885-.4-1.216-.256-.331-.6293-.581-1.12-.752s-1.0773-.256-1.76-.256h-.304v-1.056h.272c.672 0 1.2907.075 1.856.224s1.056.368 1.472.656c.4267.288.752.64.976 1.056.2347.416.352.896.352 1.44 0 .661-.1653 1.243-.496 1.744-.32.491-.7573.875-1.312 1.152-.5547.267-1.168.4-1.84.4zm-1.28-5.728v-1.04h.304c.9173 0 1.6427-.155 2.176-.464.544-.32.816-.773.816-1.36 0-.32-.0853-.613-.256-.88-.1707-.277-.4213-.496-.752-.656-.32-.171-.6933-.256-1.12-.256-.288 0-.56.043-.816.128-.2453.075-.4747.192-.688.352-.2027.149-.3893.341-.56.576l-1.056-.608c.2027-.331.4587-.619.768-.864.32-.245.6827-.437 1.088-.576s.848-.208 1.328-.208c.6507 0 1.232.128 1.744.384.5227.256.9333.608 1.232 1.056.2987.437.448.933.448 1.488 0 .469-.112.885-.336 1.248s-.5387.672-.944.928c-.3947.256-.8587.448-1.392.576-.5227.117-1.0933.176-1.712.176zm10.7523 5.536v-8h1.2l.064 1.12c.2453-.427.56-.752.944-.976s.832-.336 1.344-.336c.64 0 1.184.149 1.632.448.4586.299.7893.752.992 1.36.224-.587.5493-1.035.976-1.344.4373-.309.9546-.464 1.552-.464.896 0 1.6.299 2.112.896.5226.597.7786 1.504.768 2.72v4.576h-1.28v-4.096c0-.789-.0854-1.392-.256-1.808-.16-.416-.3787-.699-.656-.848-.2774-.16-.5974-.24-.96-.24-.6294 0-1.12.251-1.4721.752-.3519.491-.5279 1.189-.5279 2.096v4.144h-1.28v-4.096c0-.789-.0854-1.392-.256-1.808-.16-.416-.384-.699-.672-.848-.2774-.16-.5974-.24-.96-.24-.6187 0-1.104.251-1.456.752-.352.491-.528 1.189-.528 2.096v4.144zm17.1457.192c-.779 0-1.472-.176-2.08-.528-.598-.363-1.067-.859-1.4084-1.488-.3413-.629-.512-1.355-.512-2.176s.1654-1.547.496-2.176c.3414-.629.8104-1.12 1.4084-1.472.608-.363 1.296-.544 2.064-.544.789 0 1.482.181 2.08.544.608.352 1.077.843 1.408 1.472.341.629.512 1.355.512 2.176s-.171 1.547-.512 2.176c-.331.629-.795 1.125-1.392 1.488-.598.352-1.286.528-2.064.528zm0-1.184c.533 0 .997-.128 1.392-.384.394-.256.704-.608.928-1.056.234-.448.352-.971.352-1.568s-.118-1.12-.352-1.568c-.224-.448-.539-.8-.944-1.056-.406-.256-.875-.384-1.408-.384-.523 0-.987.128-1.392.384-.395.256-.71.608-.944 1.056-.224.448-.336.971-.336 1.568 0 .587.112 1.109.336 1.568.234.448.554.8.96 1.056.416.256.885.384 1.408.384zm5.745.992v-8h1.2l.08 1.472v6.528zm5.616 0v-4.096h1.28v4.096zm0-4.096c0-.789-.091-1.392-.272-1.808s-.432-.699-.752-.848c-.32-.16-.683-.24-1.088-.24-.704 0-1.253.251-1.648.752-.384.491-.576 1.189-.576 2.096h-.624c0-.843.123-1.568.368-2.176s.603-1.072 1.072-1.392 1.035-.48 1.696-.48c.629 0 1.173.128 1.632.384.469.245.832.64 1.088 1.184.267.544.395 1.259.384 2.144v.384zm6.314 4.288c-.779 0-1.382-.203-1.808-.608-.427-.405-.64-.976-.64-1.712v-8.368h1.28v8.24c0 .405.106.72.32.944.224.213.533.32.928.32.128 0 .25-.016.368-.048.128-.043.293-.139.496-.288l.496 1.04c-.278.181-.528.304-.752.368-.224.075-.454.112-.688.112zm-3.84-7.056v-1.136h5.072v1.136zm6.879 6.864v-11.2h1.28v11.2zm5.632 0v-4.096h1.28v4.096zm0-4.096c0-.789-.096-1.392-.288-1.808-.182-.416-.432-.699-.752-.848-.32-.16-.683-.24-1.088-.24-.704 0-1.254.251-1.648.752-.384.491-.576 1.189-.576 2.096h-.624c0-.843.122-1.568.368-2.176.256-.608.618-1.072 1.088-1.392.469-.32 1.034-.48 1.696-.48.618 0 1.162.128 1.632.384.469.245.832.64 1.088 1.184.266.544.394 1.259.384 2.144v.384zm6.09 4.288c-.587 0-1.099-.085-1.536-.256-.438-.181-.806-.416-1.104-.704-.288-.288-.496-.603-.624-.944l1.12-.464c.181.363.453.656.816.88.362.224.762.336 1.2.336.501 0 .922-.096 1.264-.288.341-.203.512-.485.512-.848 0-.331-.128-.597-.384-.8-.246-.203-.614-.368-1.104-.496l-.768-.208c-.726-.192-1.291-.48-1.696-.864-.406-.395-.608-.837-.608-1.328 0-.757.245-1.344.736-1.76.501-.427 1.242-.64 2.224-.64.469 0 .896.069 1.28.208s.714.336.992.592c.277.245.48.539.608.88l-1.12.496c-.139-.363-.368-.624-.688-.784s-.71-.24-1.168-.24c-.491 0-.875.107-1.152.32-.278.203-.416.491-.416.864 0 .213.112.416.336.608.234.181.576.331 1.024.448l.8.208c.522.128.96.32 1.312.576.352.245.618.528.8.848.181.32.272.661.272 1.024 0 .48-.128.896-.384 1.248s-.603.624-1.04.816c-.438.181-.939.272-1.504.272z" fill="#201b22"/><path clip-rule="evenodd" d="m598.293 400.207 1.414-1.414 4.293 4.293 4.293-4.293 1.414 1.414-5.707 5.707z" fill="#6b6071" fill-rule="evenodd"/><rect fill="#7b3ba5" height="48" rx="4" width="68" x="564" y="474"/><path d="m581.594 504v-11.2h1.92l5.952 8.096v-8.096h1.856v11.2h-1.856l-6.016-8.192v8.192zm15.622.192c-.778 0-1.472-.176-2.08-.528-.597-.363-1.072-.859-1.424-1.488-.341-.629-.512-1.355-.512-2.176s.176-1.547.528-2.176.832-1.12 1.44-1.472c.619-.363 1.323-.544 2.112-.544.715 0 1.36.187 1.936.56.576.363 1.03.891 1.36 1.584.342.693.512 1.52.512 2.48h-6.288l.24-.224c0 .491.107.917.32 1.28.214.352.496.624.848.816s.742.288 1.168.288c.491 0 .896-.107 1.216-.32.32-.224.571-.512.752-.864l1.584.672c-.224.427-.512.8-.864 1.12-.341.32-.752.565-1.232.736-.469.171-1.008.256-1.616.256zm-2.064-4.912-.256-.224h4.512l-.24.224c0-.437-.096-.795-.288-1.072-.192-.288-.437-.501-.736-.64-.288-.149-.592-.224-.912-.224s-.64.075-.96.224c-.32.139-.586.352-.8.64-.213.277-.32.635-.32 1.072zm6.274 4.72 3.28-4.576 2.288-3.424h2.112l-3.12 4.416-2.416 3.584zm5.744 0-2.368-3.584-3.168-4.416h2.112l2.304 3.424 3.248 4.576zm6.459.192c-.843 0-1.488-.208-1.936-.624-.437-.427-.656-1.035-.656-1.824v-8.24h1.776v7.904c0 .373.085.656.256.848.181.192.443.288.784.288.107 0 .224-.021.352-.064s.272-.123.432-.24l.656 1.36c-.277.192-.555.336-.832.432-.277.107-.555.16-.832.16zm-3.92-6.656v-1.536h5.264v1.536z" fill="#fff"/><rect fill="#fff" height="47" rx="3.5" width="82" x="465.5" y="474.5"/><rect height="47" rx="3.5" stroke="#c9c1cd" width="82" x="465.5" y="474.5"/><path d="m487.535 504.192c-1.077 0-2.037-.245-2.88-.736-.832-.501-1.488-1.184-1.968-2.048-.469-.875-.704-1.877-.704-3.008s.235-2.128.704-2.992c.48-.875 1.136-1.557 1.968-2.048.832-.501 1.787-.752 2.864-.752.726 0 1.408.133 2.048.4.64.256 1.206.613 1.696 1.072.502.459.886.992 1.152 1.6l-1.696.688c-.192-.405-.453-.763-.784-1.072-.32-.32-.688-.565-1.104-.736s-.853-.256-1.312-.256c-.704 0-1.333.176-1.888.528-.544.352-.976.837-1.296 1.456-.309.608-.464 1.312-.464 2.112s.155 1.509.464 2.128c.32.619.758 1.104 1.312 1.456.566.352 1.206.528 1.92.528.47 0 .907-.091 1.312-.272.416-.192.784-.453 1.104-.784.331-.331.592-.715.784-1.152l1.696.688c-.266.629-.645 1.189-1.136 1.68-.49.48-1.061.853-1.712 1.12-.65.267-1.344.4-2.08.4zm11.259-.192-.08-1.504v-2.608c0-.544-.059-.997-.176-1.36-.107-.373-.288-.656-.544-.848-.245-.203-.576-.304-.992-.304-.384 0-.72.08-1.008.24s-.533.411-.736.752l-1.568-.576c.171-.352.395-.677.672-.976.288-.309.645-.555 1.072-.736.437-.181.96-.272 1.568-.272.779 0 1.429.155 1.952.464.523.299.907.731 1.152 1.296.256.565.384 1.248.384 2.048l-.048 4.384zm-2.304.192c-.96 0-1.707-.213-2.24-.64-.523-.427-.784-1.029-.784-1.808 0-.832.277-1.467.832-1.904.565-.437 1.349-.656 2.352-.656h2.144v1.376h-1.568c-.715 0-1.216.101-1.504.304-.288.192-.432.469-.432.832 0 .309.123.555.368.736.256.171.608.256 1.056.256.405 0 .757-.091 1.056-.272s.528-.421.688-.72c.171-.299.256-.635.256-1.008h.528c0 1.088-.219 1.947-.656 2.576-.437.619-1.136.928-2.096.928zm5.815-.192v-8h1.68l.112 1.472v6.528zm5.424 0v-4.096h1.792v4.096zm0-4.096c0-.64-.075-1.131-.224-1.472-.139-.352-.342-.597-.608-.736-.256-.139-.56-.208-.912-.208-.598-.011-1.062.187-1.392.592-.331.405-.496.987-.496 1.744h-.673c0-.843.123-1.563.369-2.16.245-.608.597-1.067 1.056-1.376.458-.32 1.002-.48 1.632-.48.64 0 1.184.128 1.632.384.458.256.805.656 1.04 1.2.245.533.368 1.232.368 2.096v.416zm7.351 4.288c-.822 0-1.547-.176-2.176-.528-.63-.363-1.126-.859-1.488-1.488-.352-.629-.528-1.355-.528-2.176s.176-1.547.528-2.176c.362-.629.853-1.12 1.472-1.472.629-.363 1.349-.544 2.16-.544.789 0 1.504.192 2.144.576.64.373 1.114.912 1.424 1.616l-1.664.64c-.171-.352-.432-.635-.784-.848s-.752-.32-1.2-.32c-.438 0-.827.112-1.168.336-.342.213-.608.512-.8.896-.192.373-.288.805-.288 1.296s.096.928.288 1.312c.202.373.474.672.816.896.352.213.746.32 1.184.32.448 0 .848-.112 1.2-.336.352-.235.613-.549.784-.944l1.664.64c-.31.725-.784 1.291-1.424 1.696-.63.405-1.344.608-2.144.608zm8.527 0c-.779 0-1.472-.176-2.08-.528-.597-.363-1.072-.859-1.424-1.488-.341-.629-.512-1.355-.512-2.176s.176-1.547.528-2.176.832-1.12 1.44-1.472c.619-.363 1.323-.544 2.112-.544.715 0 1.36.187 1.936.56.576.363 1.029.891 1.36 1.584.341.693.512 1.52.512 2.48h-6.288l.24-.224c0 .491.107.917.32 1.28.213.352.496.624.848.816s.741.288 1.168.288c.491 0 .896-.107 1.216-.32.32-.224.571-.512.752-.864l1.584.672c-.224.427-.512.8-.864 1.12-.341.32-.752.565-1.232.736-.469.171-1.008.256-1.616.256zm-2.064-4.912-.256-.224h4.512l-.24.224c0-.437-.096-.795-.288-1.072-.192-.288-.437-.501-.736-.64-.288-.149-.592-.224-.912-.224s-.64.075-.96.224c-.32.139-.587.352-.8.64-.213.277-.32.635-.32 1.072zm7.308 4.72v-11.2h1.792v11.2z" fill="#2b0e3f"/><path d="m0 0h393v48h-393z" fill="#fff" transform="translate(56 474)"/></g></g></svg>