<svg xmlns="http://www.w3.org/2000/svg" xmlns:xlink="http://www.w3.org/1999/xlink" width="24" height="24" viewBox="0 0 24 24"><path d="M4 20h16V10h2v10a2 2 0 0 1-2 2H4a2 2 0 0 1-2-2V4a2 2 0 0 1 2-2h10v2H4v16Z" fill="currentColor"></path><path fill-rule="evenodd" clip-rule="evenodd" d="M16.9 3.592 7 13.362l3.5 3.454 9.9-9.77c.8-.79.8-1.974 0-2.763l-.7-.69c-.8-.79-2-.79-2.8 0Zm-6.4 10.46-.7-.69 8.5-8.388.7.69-8.5 8.389Z" fill="currentColor"></path><path d="M6 15.04V18h3l-3-2.96Z" fill="#333"></path></svg>