<svg xmlns="http://www.w3.org/2000/svg" width="202" height="36" viewBox="0 0 202 36">
  <g fill="none" fill-rule="evenodd">
    <g fill="#683D87">
      <path d="M21.7047947 28.4324855C24.3568694 28.4324855 26.5130278 26.2766624 26.5130278 23.625L16.875 23.625C16.875 26.2551042 19.0311583 28.4324855 21.7047947 28.4324855zM10.8504985 18C9.21181817 18 7.875 19.3366103 7.875 20.9750359L13.825997 20.9750359C13.825997 19.3366103 12.5107404 18 10.8504985 18zM32.2254985 18C30.5868182 18 29.25 19.3366103 29.25 20.9750359L35.200997 20.9750359C35.200997 19.3366103 33.8857404 18 32.2254985 18zM20.9792962 3.68645749C21.9926906 3.68645749 22.8335923 2.86724471 22.8335923 1.85400786 22.8335923.840771006 22.0142522 0 20.9792962 0 19.9659018 0 19.125.819212775 19.125 1.85400786 19.125 2.84568648 19.9659018 3.68645749 20.9792962 3.68645749z"/>
      <path d="M42.5109676 19.9396653C42.0150512 16.5334648 41.2603958 13.1057061 40.7213562 10.8205337 40.0745087 8.10419656 37.7674193 6.16395577 34.985975 5.99148993 32.247654 5.81902408 27.7197215 5.625 21.6824781 5.625 15.6452348 5.625 11.1173023 5.81902408 8.37898121 5.99148993 5.57597537 6.14239754 3.26888596 8.10419656 2.62203846 10.8205337 2.08299887 13.1057061 1.32834346 16.5334648.832427039 19.9396653.487441706 22.246396.228702705 24.9411749.0130868721 28.0024437-.0947210446 29.7055439.465880122 31.3439695 1.60864404 32.6159051 2.75140796 33.8878407 4.30384196 34.6423788 6.02876862 34.7070535 9.78048412 34.8795194 15.5374269 35.0951017 21.6824781 35.0951017 27.8275294 35.0951017 33.5844721 34.8795194 37.3361876 34.7070535 39.0395527 34.6208206 40.6135483 33.8878407 41.7563122 32.6159051 42.8990761 31.3439695 43.4596773 29.7055439 43.3518694 28.0024437 43.1362535 24.9411749 42.855953 22.2248378 42.5109676 19.9396653zM39.5354691 30.6325479C38.9317448 31.300853 38.1124046 31.6889012 37.2068181 31.7320177 33.4766642 31.9044835 27.7844062 32.1200658 21.6824781 32.1200658 15.58055 32.1200658 9.88829204 31.9044835 6.15813812 31.7320177 5.25255162 31.6889012 4.43321146 31.300853 3.82948712 30.6325479 3.22576279 29.9642427 2.92390062 29.1019135 2.98858537 28.1964678 3.18263962 25.2214319 3.44137862 22.5913277 3.78636396 20.37083 4.26071879 17.0724206 4.99381262 13.7308948 5.53285221 11.510397 5.87783754 10.0659956 7.08528621 9.05275872 8.57303546 8.94496756 11.2682334 8.77250172 15.7314811 8.57847764 21.7040397 8.57847764 27.6550367 8.57847764 32.139846 8.77250172 34.835044 8.94496756 36.3012316 9.03120049 37.5302419 10.0659956 37.8752272 11.510397 38.3927052 13.7308948 39.125799 17.0724206 39.6217155 20.37083 39.9451392 22.5913277 40.2038782 25.2214319 40.419494 28.1964678 40.419494 29.1019135 40.1176319 29.9642427 39.5354691 30.6325479zM58.735953 16.2515096C56.3641788 16.2515096 55.113607 17.9977263 55.113607 17.9977263L55.113607 11.25 51.75 11.25 51.75 28.7337253 55.113607 28.7337253 55.113607 27.2246491C55.113607 27.2246491 56.3641788 28.9708658 58.735953 28.9708658 61.8623826 28.9708658 64.6007037 26.2329705 64.6007037 22.6111877 64.6007037 18.9894049 61.840821 16.2515096 58.735953 16.2515096zM58.1106671 25.9742717C56.4935483 25.9742717 55.113607 24.5945449 55.113607 22.6111877 55.113607 20.6062722 56.4935483 19.2481037 58.1106671 19.2481037 59.7277858 19.2481037 61.1077272 20.6062722 61.1077272 22.6111877 61.1077272 24.6161032 59.7277858 25.9742717 58.1106671 25.9742717z"/>
      <polygon points="67.5 16.875 70.864 16.875 70.864 29.12 67.5 29.12"/>
      <path d="M68.2508578 11.25C67.1296554 11.25 66.375 12.0045381 66.375 13.1255661 66.375 14.2465941 67.1296554 15.0011322 68.2508578 15.0011322 69.5014296 15.0011322 70.256085 14.2465941 70.256085 13.1255661 70.256085 12.0045381 69.5014296 11.25 68.2508578 11.25zM78.6232038 25.2492359L78.6232038 20.3770757 81.1027858 20.3770757 81.1027858 17.3804816 78.6016422 17.3804816 78.6016422 13.5 75.6045821 13.5 75.6045821 15.742056C75.6045821 16.7337346 74.9792962 17.3589233 74.2246408 17.3589233L73.125 17.3589233 73.125 20.3770757 75.2380352 20.3770757 75.2380352 25.3785852C75.2380352 28.24583 76.6179765 29.6255567 79.1191202 29.6255567 80.369692 29.6255567 81.3615248 29.2590668 81.3615248 29.2590668L81.3615248 26.3918221C81.3615248 26.3918221 80.8656084 26.6505209 80.110953 26.6505209 79.2484897 26.6074044 78.6232038 25.9822157 78.6232038 25.2492359zM87.738607 18.4711454L87.738607 16.9836274 84.375 16.9836274 84.375 29.2287026 87.738607 29.2287026 87.738607 23.3648638C87.738607 21.2521572 88.8598093 20.1095709 90.6062976 20.1095709 91.360953 20.1095709 91.7274999 20.2389203 91.7274999 20.2389203L91.7274999 16.8758363 91.2315835 16.8758363C88.9891788 16.8327198 87.738607 18.4711454 87.738607 18.4711454z"/>
      <polygon points="93.375 16.875 96.739 16.875 96.739 29.12 93.375 29.12"/>
      <path d="M95.2508578 11.25C94.1296554 11.25 93.375 12.0045381 93.375 13.1255661 93.375 14.2465941 94.1296554 15.0011322 95.2508578 15.0011322 96.5014296 15.0011322 97.256085 14.2465941 97.256085 13.1255661 97.256085 12.0045381 96.5014296 11.25 95.2508578 11.25zM103.247632 20.7554816C103.247632 20.2596423 103.743548 19.7638029 104.735381 19.7638029 105.985953 19.7638029 106.740608 20.7554816 106.740608 20.7554816L108.487097 18.7505661C108.487097 18.7505661 107.107155 16.875 104.239465 16.875 101.501144 16.875 99.4959164 18.8799155 99.4959164 20.7554816 99.4959164 24.808429 105.12349 23.8814251 105.12349 25.7569911 105.12349 26.3821798 104.627573 26.8780192 103.506371 26.8780192 101.889252 26.8780192 100.875858 25.4982924 100.875858 25.4982924L99 27.3738585C99 27.3738585 100.487749 29.6159145 104.002287 29.6159145 107.128717 29.6159145 108.875205 27.8696978 108.875205 25.7354329 108.875205 21.639369 103.247632 22.5016983 103.247632 20.7554816zM122.734157 22.9975376C122.734157 19.5051042 120.103644 16.875 116.610667 16.875 113.117691 16.875 110.25 19.7422447 110.25 23.2346781 110.25 26.7271115 113.117691 29.5943562 116.740037 29.5943562 120.103644 29.5943562 121.979501 27.4816496 121.979501 27.4816496L120.233013 25.2395936C120.233013 25.2395936 119.111811 26.7486698 116.977214 26.7486698 115.101356 26.7486698 113.980154 25.6276418 113.721415 24.3772644L122.583226 24.3772644C122.604787 24.3772644 122.734157 23.8814251 122.734157 22.9975376zM113.742977 22.005859C114.109523 20.7554816 115.122918 19.7638029 116.610667 19.7638029 118.098416 19.7638029 119.111811 20.7554816 119.348988 22.005859L113.742977 22.005859z"/>
    </g>
    <path fill="#760FC3" d="M129,17.35 C129,16.6421533 129.219019,16.0693649 129.657064,15.6316176 C130.095109,15.1938704 130.631007,14.975 131.264773,14.975 C131.89854,14.975 132.434438,15.1938704 132.872483,15.6316176 C133.310528,16.0693649 133.529547,16.6421533 133.529547,17.35 C133.529547,18.0578467 133.310528,18.6259782 132.872483,19.0544118 C132.434438,19.4828453 131.89854,19.6970588 131.264773,19.6970588 C130.631007,19.6970588 130.095109,19.4828453 129.657064,19.0544118 C129.219019,18.6259782 129,18.0578467 129,17.35 Z M129,27.3529412 C129,26.6450945 129.219019,26.0723061 129.657064,25.6345588 C130.095109,25.1968115 130.631007,24.9779412 131.264773,24.9779412 C131.89854,24.9779412 132.434438,25.1968115 132.872483,25.6345588 C133.310528,26.0723061 133.529547,26.6450945 133.529547,27.3529412 C133.529547,28.0607879 133.310528,28.6289194 132.872483,29.0573529 C132.434438,29.4857865 131.89854,29.7 131.264773,29.7 C130.631007,29.7 130.095109,29.4857865 129.657064,29.0573529 C129.219019,28.6289194 129,28.0607879 129,27.3529412 Z M139.033705,11.0352941 L143.507332,11.0352941 C146.284722,11.0352941 148.395694,11.8176392 149.84031,13.3823529 C151.284926,14.9470666 152.007223,17.191652 152.007223,20.1161765 C152.007223,21.5691249 151.825483,22.8683766 151.461999,24.0139706 C151.098515,25.1595646 150.562618,26.1281823 149.85429,26.9198529 C149.145962,27.7115236 148.269886,28.3169097 147.226034,28.7360294 C146.182183,29.1551492 144.979908,29.3647059 143.619173,29.3647059 L139.033705,29.3647059 L139.033705,11.0352941 Z M143.367531,27.4647059 C145.455234,27.4647059 147.016328,26.8220652 148.050859,25.5367647 C149.08539,24.2514642 149.602648,22.4446195 149.602648,20.1161765 C149.602648,17.7877335 149.08539,16.0088297 148.050859,14.7794118 C147.016328,13.5499939 145.455234,12.9352941 143.367531,12.9352941 L141.354399,12.9352941 L141.354399,27.4647059 L143.367531,27.4647059 Z M161.821241,29.7 C160.77739,29.7 159.826753,29.4764728 158.969304,29.0294118 C158.111855,28.5823507 157.370918,27.9443669 156.746471,27.1154412 C156.122024,26.2865155 155.637386,25.2806432 155.292542,24.0977941 C154.947698,22.9149451 154.775279,21.5877525 154.775279,20.1161765 C154.775279,18.6446005 154.947698,17.3267215 155.292542,16.1625 C155.637386,14.9982785 156.122024,14.0110335 156.746471,13.2007353 C157.370918,12.3904371 158.111855,11.7710806 158.969304,11.3426471 C159.826753,10.9142135 160.77739,10.7 161.821241,10.7 C162.846452,10.7 163.792428,10.9188704 164.659198,11.3566176 C165.525967,11.7943649 166.271564,12.4183783 166.896011,13.2286765 C167.520458,14.0389746 168.005096,15.0262197 168.34994,16.1904412 C168.694784,17.3546627 168.867203,18.663228 168.867203,20.1161765 C168.867203,21.5877525 168.694784,22.9149451 168.34994,24.0977941 C168.005096,25.2806432 167.520458,26.2865155 166.896011,27.1154412 C166.271564,27.9443669 165.525967,28.5823507 164.659198,29.0294118 C163.792428,29.4764728 162.846452,29.7 161.821241,29.7 Z M161.821241,27.6602941 C162.510929,27.6602941 163.144686,27.4833351 163.722532,27.1294118 C164.300379,26.7754884 164.789677,26.2678955 165.190441,25.6066176 C165.591205,24.9453398 165.903424,24.1536811 166.127107,23.2316176 C166.350789,22.3095542 166.462629,21.2710842 166.462629,20.1161765 C166.462629,18.9798963 166.350789,17.9553967 166.127107,17.0426471 C165.903424,16.1298974 165.591205,15.3568659 165.190441,14.7235294 C164.789677,14.0901929 164.300379,13.6012272 163.722532,13.2566176 C163.144686,12.9120081 162.510929,12.7397059 161.821241,12.7397059 C161.112913,12.7397059 160.474496,12.9120081 159.90597,13.2566176 C159.337443,13.6012272 158.852805,14.0901929 158.452041,14.7235294 C158.051277,15.3568659 157.739058,16.1298974 157.515375,17.0426471 C157.291693,17.9553967 157.179853,18.9798963 157.179853,20.1161765 C157.179853,21.2710842 157.291693,22.3095542 157.515375,23.2316176 C157.739058,24.1536811 158.051277,24.9453398 158.452041,25.6066176 C158.852805,26.2678955 159.337443,26.7754884 159.90597,27.1294118 C160.474496,27.4833351 161.112913,27.6602941 161.821241,27.6602941 Z M172.054662,20.2 C172.054662,18.728424 172.255041,17.4058882 172.655805,16.2323529 C173.05657,15.0588177 173.620428,14.062259 174.347395,13.2426471 C175.074363,12.4230351 175.94112,11.7943649 176.947691,11.3566176 C177.954262,10.9188704 179.054018,10.7 180.246991,10.7 C181.365403,10.7 182.343999,10.9235272 183.182808,11.3705882 C184.021617,11.8176493 184.711294,12.3392127 185.25186,12.9352941 L183.937733,14.4161765 C183.453087,13.9132328 182.912529,13.5080898 182.316043,13.2007353 C181.719556,12.8933808 181.029879,12.7397059 180.246991,12.7397059 C179.370901,12.7397059 178.574044,12.9120081 177.856396,13.2566176 C177.138749,13.6012272 176.528291,14.0948497 176.025005,14.7375 C175.52172,15.3801503 175.134942,16.1578386 174.864659,17.0705882 C174.594376,17.9833379 174.459236,19.0078375 174.459236,20.1441176 C174.459236,21.2990254 174.594376,22.3374954 174.864659,23.2595588 C175.134942,24.1816223 175.52172,24.9686242 176.025005,25.6205882 C176.528291,26.2725523 177.138749,26.7754884 177.856396,27.1294118 C178.574044,27.4833351 179.370901,27.6602941 180.246991,27.6602941 C181.0858,27.6602941 181.831397,27.4833351 182.483804,27.1294118 C183.136211,26.7754884 183.760649,26.2725523 184.357135,25.6205882 L185.699223,27.0455882 C184.972255,27.8838277 184.152098,28.535782 183.238728,29.0014706 C182.325358,29.4671592 181.281523,29.7 180.10719,29.7 C178.951497,29.7 177.884361,29.4857865 176.905751,29.0573529 C175.92714,28.6289194 175.079023,28.0095629 174.361376,27.1992647 C173.643728,26.3889665 173.07987,25.3924079 172.669786,24.2095588 C172.259701,23.0267098 172.054662,21.6902035 172.054662,20.2 Z M190.25673,25.3691176 C190.946418,26.0583368 191.747934,26.6124979 192.661304,27.0316176 C193.574674,27.4507374 194.534631,27.6602941 195.541202,27.6602941 C196.846016,27.6602941 197.852572,27.385542 198.5609,26.8360294 C199.269227,26.2865169 199.623386,25.5647104 199.623386,24.6705882 C199.623386,24.2048996 199.539506,23.8090703 199.371744,23.4830882 C199.203983,23.1571062 198.970983,22.8776972 198.67274,22.6448529 C198.374497,22.4120086 198.024998,22.2024519 197.624234,22.0161765 C197.22347,21.829901 196.790091,21.6343147 196.324086,21.4294118 L193.695831,20.2838235 C193.229825,20.0975481 192.763827,19.8740209 192.297822,19.6132353 C191.831817,19.3524497 191.407759,19.0357862 191.025635,18.6632353 C190.643511,18.2906844 190.331292,17.8482869 190.088969,17.3360294 C189.846646,16.8237719 189.725487,16.2323563 189.725487,15.5617647 C189.725487,14.8725456 189.874606,14.2299049 190.17285,13.6338235 C190.471093,13.0377421 190.885831,12.5208355 191.417077,12.0830882 C191.948323,11.6453409 192.58208,11.3053934 193.318368,11.0632353 C194.054656,10.8210772 194.860833,10.7 195.736923,10.7 C196.892615,10.7 197.955091,10.9095567 198.924382,11.3286765 C199.893672,11.7477962 200.713829,12.2926437 201.384876,12.9632353 L200.154629,14.4720588 C199.558142,13.93186 198.901085,13.5080898 198.183437,13.2007353 C197.465789,12.8933808 196.650293,12.7397059 195.736923,12.7397059 C194.61851,12.7397059 193.733114,12.9772035 193.080707,13.4522059 C192.4283,13.9272083 192.102101,14.5838193 192.102101,15.4220588 C192.102101,15.8691199 192.199961,16.246322 192.395683,16.5536765 C192.591405,16.8610309 192.843044,17.1311263 193.150607,17.3639706 C193.458171,17.5968149 193.807669,17.797058 194.199114,17.9647059 L195.373441,18.4676471 L197.945776,19.5852941 C198.504982,19.8088246 199.03156,20.0649495 199.525525,20.3536765 C200.019491,20.6424034 200.448209,20.9776942 200.811693,21.3595588 C201.175177,21.7414235 201.464096,22.1884778 201.678458,22.7007353 C201.89282,23.2129928 202,23.8044084 202,24.475 C202,25.2014742 201.850881,25.8813694 201.552637,26.5147059 C201.254394,27.1480424 200.825676,27.7022035 200.26647,28.1772059 C199.707264,28.6522083 199.026906,29.0247536 198.225378,29.2948529 C197.423849,29.5649523 196.519812,29.7 195.513241,29.7 C194.171147,29.7 192.936252,29.4578456 191.808519,28.9735294 C190.680787,28.4892133 189.697531,27.8279454 188.858722,26.9897059 L190.25673,25.3691176 Z"/>
  </g>
</svg>
