<svg enable-background="new 0 0 202 36" viewBox="0 0 202 36" xmlns="http://www.w3.org/2000/svg"><g clip-rule="evenodd" fill="#fff" fill-rule="evenodd"><path d="m21.7 28.4c2.7 0 4.8-2.2 4.8-4.8h-9.6c0 2.7 2.1 4.8 4.8 4.8zm-10.8-10.4c-1.6 0-3 1.3-3 3h6c-.1-1.7-1.4-3-3-3zm21.3 0c-1.6 0-3 1.3-3 3h6c0-1.7-1.3-3-3-3zm-11.2-14.3c1 0 1.9-.8 1.9-1.8s-.9-1.9-1.9-1.9-1.9.8-1.9 1.9c0 .9.9 1.8 1.9 1.8z"/><path d="m42.5 19.9c-.5-3.4-1.3-6.8-1.8-9.1-.6-2.7-3-4.7-5.7-4.8-2.7-.2-7.3-.4-13.3-.4s-10.6.2-13.3.4c-2.8.2-5.1 2.1-5.8 4.8-.5 2.3-1.3 5.7-1.8 9.1-.3 2.3-.6 5-.8 8.1-.1 1.7.5 3.3 1.6 4.6s2.7 2 4.4 2.1c3.8.2 9.5.4 15.7.4s11.9-.2 15.7-.4c1.7-.1 3.3-.8 4.4-2.1s1.7-2.9 1.6-4.6c-.3-3.1-.5-5.8-.9-8.1zm-3 10.7c-.6.7-1.4 1.1-2.3 1.1-3.7.2-9.4.4-15.5.4s-11.8-.2-15.5-.4c-.9 0-1.7-.4-2.3-1.1-.7-.6-1-1.5-.9-2.4.2-3 .5-5.6.8-7.8.5-3.3 1.2-6.6 1.7-8.9.3-1.4 1.6-2.5 3-2.6 2.7-.2 7.2-.4 13.1-.4 6 0 10.4.2 13.1.4 1.5.1 2.7 1.1 3 2.6.5 2.2 1.3 5.6 1.7 8.9.3 2.2.6 4.9.8 7.8.2.9-.1 1.8-.7 2.4zm19.2-14.3c-2.4 0-3.6 1.7-3.6 1.7v-6.7h-3.4v17.5h3.4v-1.5s1.3 1.7 3.6 1.7c3.1 0 5.9-2.7 5.9-6.4s-2.8-6.3-5.9-6.3zm-.6 9.7c-1.6 0-3-1.4-3-3.4s1.4-3.4 3-3.4 3 1.4 3 3.4-1.4 3.4-3 3.4z"/><path d="m67.5 16.9h3.4v12.2h-3.4z"/><path d="m68.3 11.2c-1.1 0-1.9.8-1.9 1.9s.8 1.9 1.9 1.9c1.3 0 2-.8 2-1.9s-.8-1.9-2-1.9zm10.3 14v-4.9h2.5v-3h-2.5v-3.9h-3v2.2c0 1-.6 1.6-1.4 1.6h-1.1v3h2.1v5c0 2.9 1.4 4.2 3.9 4.2 1.3 0 2.2-.4 2.2-.4v-2.9s-.5.3-1.3.3c-.8.2-1.4-.4-1.4-1.2zm9.1-6.7v-1.5h-3.4v12.2h3.4v-5.9c0-2.1 1.1-3.3 2.9-3.3.8 0 1.1.1 1.1.1v-3.4h-.5c-2.2.1-3.5 1.8-3.5 1.8z"/><path d="m93.4 16.9h3.3v12.2h-3.3z"/><path d="m95.3 11.2c-1.1 0-1.9.8-1.9 1.9s.8 1.9 1.9 1.9c1.3 0 2-.8 2-1.9s-.8-1.9-2-1.9zm7.9 9.6c0-.5.5-1 1.5-1 1.3 0 2 1 2 1l1.7-2s-1.4-1.9-4.2-1.9c-2.7 0-4.7 2-4.7 3.9 0 4.1 5.6 3.1 5.6 5 0 .6-.5 1.1-1.6 1.1-1.6 0-2.6-1.4-2.6-1.4l-1.9 1.9s1.5 2.2 5 2.2c3.1 0 4.9-1.7 4.9-3.9 0-4.1-5.7-3.2-5.7-4.9zm19.5 2.2c0-3.5-2.6-6.1-6.1-6.1s-6.4 2.9-6.4 6.4 2.9 6.4 6.5 6.4c3.4 0 5.2-2.1 5.2-2.1l-1.7-2.2s-1.1 1.5-3.3 1.5c-1.9 0-3-1.1-3.3-2.4h8.9c.1-.1.2-.6.2-1.5zm-9-1c.4-1.3 1.4-2.2 2.9-2.2s2.5 1 2.7 2.2z"/><path d="m129 17.3c0-.7.2-1.3.7-1.7.4-.4 1-.7 1.6-.7s1.2.2 1.6.7c.4.4.7 1 .7 1.7s-.2 1.3-.7 1.7c-.4.4-1 .6-1.6.6s-1.2-.2-1.6-.6c-.5-.4-.7-.9-.7-1.7zm0 10.1c0-.7.2-1.3.7-1.7.4-.4 1-.7 1.6-.7s1.2.2 1.6.7c.4.4.7 1 .7 1.7s-.2 1.3-.7 1.7c-.4.4-1 .6-1.6.6s-1.2-.2-1.6-.6c-.5-.5-.7-1-.7-1.7zm10-16.4h4.5c2.8 0 4.9.8 6.3 2.3 1.4 1.6 2.2 3.8 2.2 6.7 0 1.5-.2 2.8-.5 3.9-.4 1.1-.9 2.1-1.6 2.9s-1.6 1.4-2.6 1.8-2.2.6-3.6.6h-4.7zm4.4 16.5c2.1 0 3.6-.6 4.7-1.9 1-1.3 1.6-3.1 1.6-5.4s-.5-4.1-1.6-5.3c-1-1.2-2.6-1.8-4.7-1.8h-2v14.5h2zm18.4 2.2c-1 0-2-.2-2.9-.7-.9-.4-1.6-1.1-2.2-1.9s-1.1-1.8-1.5-3c-.3-1.2-.5-2.5-.5-4s.2-2.8.5-4 .8-2.2 1.5-3c.6-.8 1.4-1.4 2.2-1.9.9-.4 1.8-.6 2.9-.6 1 0 2 .2 2.8.7.9.4 1.6 1.1 2.2 1.9s1.1 1.8 1.5 3c.3 1.2.5 2.5.5 3.9 0 1.5-.2 2.8-.5 4s-.8 2.2-1.5 3c-.6.8-1.4 1.5-2.2 1.9-.8.5-1.8.7-2.8.7zm0-2c.7 0 1.3-.2 1.9-.5s1.1-.9 1.5-1.5c.4-.7.7-1.5.9-2.4s.3-2 .3-3.1-.1-2.2-.3-3.1-.5-1.7-.9-2.3-.9-1.1-1.5-1.5-1.2-.5-1.9-.5-1.3.2-1.9.5-1.1.8-1.5 1.5c-.4.6-.7 1.4-.9 2.3s-.3 1.9-.3 3.1.1 2.2.3 3.1.5 1.7.9 2.4.9 1.2 1.5 1.5 1.2.5 1.9.5zm10.3-7.5c0-1.5.2-2.8.6-4s1-2.2 1.7-3 1.6-1.4 2.6-1.9c1-.4 2.1-.7 3.3-.7 1.1 0 2.1.2 2.9.7.8.4 1.5 1 2.1 1.6l-1.3 1.5c-.5-.5-1-.9-1.6-1.2s-1.3-.5-2.1-.5c-.9 0-1.7.2-2.4.5s-1.3.8-1.8 1.5c-.5.6-.9 1.4-1.2 2.3s-.4 1.9-.4 3.1.1 2.2.4 3.1.7 1.7 1.2 2.4 1.1 1.2 1.8 1.5 1.5.5 2.4.5c.8 0 1.6-.2 2.2-.5.7-.4 1.3-.9 1.9-1.5l1.3 1.4c-.7.8-1.5 1.5-2.5 2-.9.5-2 .7-3.1.7-1.2 0-2.2-.2-3.2-.6s-1.8-1-2.5-1.9-1.3-1.8-1.7-3-.6-2.5-.6-4zm18.2 5.2c.7.7 1.5 1.2 2.4 1.7.9.4 1.9.6 2.9.6 1.3 0 2.3-.3 3-.8s1.1-1.3 1.1-2.2c0-.5-.1-.9-.3-1.2s-.4-.6-.7-.8-.6-.4-1-.6-.8-.4-1.3-.6l-2.6-1.1c-.5-.2-.9-.4-1.4-.7s-.9-.6-1.3-1-.7-.8-.9-1.3-.4-1.1-.4-1.8.1-1.3.4-1.9.7-1.1 1.2-1.6c.5-.4 1.2-.8 1.9-1s1.5-.4 2.4-.4c1.2 0 2.2.2 3.2.6s1.8 1 2.5 1.6l-1.2 1.5c-.6-.5-1.3-1-2-1.3s-1.5-.5-2.4-.5c-1.1 0-2 .2-2.7.7s-1 1.1-1 2c0 .4.1.8.3 1.1s.4.6.8.8c.3.2.7.4 1 .6l1.2.5 2.6 1.1c.6.2 1.1.5 1.6.8s.9.6 1.3 1 .7.8.9 1.3.3 1.1.3 1.8-.1 1.4-.4 2-.7 1.2-1.3 1.7-1.2.8-2 1.1-1.7.4-2.7.4c-1.3 0-2.6-.2-3.7-.7s-2.1-1.1-2.9-2z"/></g></svg>