<svg height="36" viewBox="0 0 202 36" width="202" xmlns="http://www.w3.org/2000/svg"><g fill="none" fill-rule="evenodd"><g fill="#683d87"><path d="m21.7047947 28.4324855c2.6520747 0 4.8082331-2.1558231 4.8082331-4.8074855h-9.6380278c0 2.6301042 2.1561583 4.8074855 4.8297947 4.8074855zm-10.8542962-10.4324855c-1.63868033 0-2.9754985 1.3366103-2.9754985 2.9750359h5.950997c0-1.6384256-1.3152566-2.9750359-2.9754985-2.9750359zm21.375 0c-1.6386803 0-2.9754985 1.3366103-2.9754985 2.9750359h5.950997c0-1.6384256-1.3152566-2.9750359-2.9754985-2.9750359zm-11.2462023-14.31354251c1.0133944 0 1.8542961-.81921278 1.8542961-1.83244963s-.8193401-1.85400786-1.8542961-1.85400786c-1.0133944 0-1.8542962.81921278-1.8542962 1.85400786 0 .99167862.8409018 1.83244963 1.8542962 1.83244963z"/><path d="m42.5109676 19.9396653c-.4959164-3.4062005-1.2505718-6.8339592-1.7896114-9.1191316-.6468475-2.71633714-2.9539369-4.65657793-5.7353812-4.82904377-2.738321-.17246585-7.2662535-.36648993-13.3034969-.36648993-6.0372433 0-10.5651758.19402408-13.30349689.36648993-2.80300584.15090761-5.11009525 2.11270663-5.75694275 4.82904377-.53903959 2.2851724-1.293695 5.7129311-1.78961142 9.1191316-.34498533 2.3067307-.60372433 5.0015096-.81934017 8.0627784-.10780791 1.7031002.45279325 3.3415258 1.59555717 4.6134614s2.69519792 2.0264737 4.42012458 2.0911484c3.7517155.1724659 9.50865828.3880482 15.65370948.3880482 6.1450513 0 11.901994-.2155823 15.6537095-.3880482 1.7033651-.0862329 3.2773607-.8192128 4.4201246-2.0911484s1.7033651-2.9103612 1.5955572-4.6134614c-.2156159-3.0612688-.4959164-5.7776059-.8409018-8.0627784zm-2.9754985 10.6928826c-.6037243.6683051-1.4230645 1.0563533-2.328651 1.0994698-3.7301539.1724658-9.4224119.3880481-15.52434.3880481s-11.79418606-.2155823-15.52433998-.3880481c-.9055865-.0431165-1.72492666-.4311647-2.328651-1.0994698-.60372433-.6683052-.9055865-1.5306344-.84090175-2.4360801.19405425-2.9750359.45279325-5.6051401.79777859-7.8256378.47435483-3.2984094 1.20744866-6.6399352 1.74648825-8.860433.34498533-1.4444014 1.552434-2.45763828 3.04018325-2.56542944 2.69519794-.17246584 7.15844564-.36648992 13.13100424-.36648992 5.950997 0 10.4358063.19402408 13.1310043.36648992 1.4661876.08623293 2.6951979 1.12102804 3.0401832 2.56542944.517478 2.2204978 1.2505718 5.5620236 1.7464883 8.860433.3234237 2.2204977.5821627 4.8506019.7977785 7.8256378 0 .9054457-.3018621 1.7677749-.8840249 2.4360801zm19.2004839-14.3810383c-2.3717742 0-3.622346 1.7462167-3.622346 1.7462167v-6.7477263h-3.363607v17.4837253h3.363607v-1.5090762s1.2505718 1.7462167 3.622346 1.7462167c3.1264296 0 5.8647507-2.7378953 5.8647507-6.3596781s-2.7598827-6.3596781-5.8647507-6.3596781zm-.6252859 9.7227621c-1.6171188 0-2.9970601-1.3797268-2.9970601-3.363084 0-2.0049155 1.3799413-3.363084 2.9970601-3.363084 1.6171187 0 2.9970601 1.3581685 2.9970601 3.363084s-1.3799414 3.363084-2.9970601 3.363084z"/><path d="m67.5 16.875h3.364v12.245h-3.364z"/><path d="m68.2508578 11.25c-1.1212024 0-1.8758578.7545381-1.8758578 1.8755661s.7546554 1.8755661 1.8758578 1.8755661c1.2505718 0 2.0052272-.7545381 2.0052272-1.8755661s-.7546554-1.8755661-2.0052272-1.8755661zm10.372346 13.9992359v-4.8721602h2.479582v-2.9965941h-2.5011436v-3.8804816h-2.9970601v2.242056c0 .9916786-.6252859 1.6168673-1.3799413 1.6168673h-1.0996408v3.0181524h2.1130352v5.0015095c0 2.8672448 1.3799413 4.2469715 3.881085 4.2469715 1.2505718 0 2.2424046-.3664899 2.2424046-.3664899v-2.8672447s-.4959164.2586988-1.2505718.2586988c-.8624633-.0431165-1.4877492-.6683052-1.4877492-1.401285zm9.1154032-6.7780905v-1.487518h-3.363607v12.2450752h3.363607v-5.8638388c0-2.1127066 1.1212023-3.2552929 2.8676906-3.2552929.7546554 0 1.1212023.1293494 1.1212023.1293494v-3.363084h-.4959164c-2.2424047-.0431165-3.4929765 1.5953091-3.4929765 1.5953091z"/><path d="m93.375 16.875h3.364v12.245h-3.364z"/><path d="m95.2508578 11.25c-1.1212024 0-1.8758578.7545381-1.8758578 1.8755661s.7546554 1.8755661 1.8758578 1.8755661c1.2505718 0 2.0052272-.7545381 2.0052272-1.8755661s-.7546554-1.8755661-2.0052272-1.8755661zm7.9967742 9.5054816c0-.4958393.495916-.9916787 1.487749-.9916787 1.250572 0 2.005227.9916787 2.005227.9916787l1.746489-2.0049155s-1.379942-1.8755661-4.247632-1.8755661c-2.738321 0-4.7435486 2.0049155-4.7435486 3.8804816 0 4.0529474 5.6275736 3.1259435 5.6275736 5.0015095 0 .6251887-.495917 1.1210281-1.617119 1.1210281-1.617119 0-2.630513-1.3797268-2.630513-1.3797268l-1.875858 1.8755661s1.487749 2.242056 5.002287 2.242056c3.12643 0 4.872918-1.7462167 4.872918-3.8804816 0-4.0960639-5.627573-3.2337346-5.627573-4.9799513zm19.486525 2.242056c0-3.4924334-2.630513-6.1225376-6.12349-6.1225376-3.492976 0-6.360667 2.8672447-6.360667 6.3596781s2.867691 6.3596781 6.490037 6.3596781c3.363607 0 5.239464-2.1127066 5.239464-2.1127066l-1.746488-2.242056s-1.121202 1.5090762-3.255799 1.5090762c-1.875858 0-2.99706-1.121028-3.255799-2.3714054h8.861811c.021561 0 .150931-.4958393.150931-1.3797268zm-8.99118-.9916786c.366546-1.2503774 1.379941-2.2420561 2.86769-2.2420561s2.501144.9916787 2.738321 2.2420561z"/></g><path d="m129 17.35c0-.7078467.219019-1.2806351.657064-1.7183824.438045-.4377472.973943-.6566176 1.607709-.6566176.633767 0 1.169665.2188704 1.60771.6566176.438045.4377473.657064 1.0105357.657064 1.7183824s-.219019 1.2759782-.657064 1.7044118c-.438045.4284335-.973943.642647-1.60771.642647-.633766 0-1.169664-.2142135-1.607709-.642647-.438045-.4284336-.657064-.9965651-.657064-1.7044118zm0 10.0029412c0-.7078467.219019-1.2806351.657064-1.7183824s.973943-.6566176 1.607709-.6566176c.633767 0 1.169665.2188703 1.60771.6566176s.657064 1.0105357.657064 1.7183824-.219019 1.2759782-.657064 1.7044117c-.438045.4284336-.973943.6426471-1.60771.6426471-.633766 0-1.169664-.2142135-1.607709-.6426471-.438045-.4284335-.657064-.996565-.657064-1.7044117zm10.033705-16.3176471h4.473627c2.77739 0 4.888362.7823451 6.332978 2.3470588s2.166913 3.8092991 2.166913 6.7338236c0 1.4529484-.18174 2.7522001-.545224 3.8977941s-.899381 2.1142117-1.607709 2.9058823c-.708328.7916707-1.584404 1.3970568-2.628256 1.8161765-1.043851.4191198-2.246126.6286765-3.606861.6286765h-4.585468zm4.333826 16.4294118c2.087703 0 3.648797-.6426407 4.683328-1.9279412s1.551789-3.0921452 1.551789-5.4205882-.517258-4.1073468-1.551789-5.3367647-2.595625-1.8441177-4.683328-1.8441177h-2.013132v14.5294118zm18.45371 2.2352941c-1.043851 0-1.994488-.2235272-2.851937-.6705882-.857449-.4470611-1.598386-1.0850449-2.222833-1.9139706s-1.109085-1.834798-1.453929-3.0176471c-.344844-1.182849-.517263-2.5100416-.517263-3.9816176s.172419-2.789455.517263-3.9536765.829482-2.1514665 1.453929-2.9617647 1.365384-1.4296547 2.222833-1.8580882c.857449-.4284336 1.808086-.6426471 2.851937-.6426471 1.025211 0 1.971187.2188704 2.837957.6566176.866769.4377473 1.612366 1.0617607 2.236813 1.8720589.624447.8102981 1.109085 1.7975432 1.453929 2.9617647s.517263 2.4727868.517263 3.9257353c0 1.471576-.172419 2.7987686-.517263 3.9816176-.344844 1.1828491-.829482 2.1887214-1.453929 3.0176471s-1.370044 1.4669095-2.236813 1.9139706c-.86677.447061-1.812746.6705882-2.837957.6705882zm0-2.0397059c.689688 0 1.323445-.176959 1.901291-.5308823.577847-.3539234 1.067145-.8615163 1.467909-1.5227942.400764-.6612778.712983-1.4529365.936666-2.375.223682-.9220634.335522-1.9605334.335522-3.1154411 0-1.1362802-.11184-2.1607798-.335522-3.0735294-.223683-.9127497-.535902-1.6857812-.936666-2.3191177s-.890062-1.1223022-1.467909-1.4669118c-.577846-.3446095-1.211603-.5169117-1.901291-.5169117-.708328 0-1.346745.1723022-1.915271.5169117-.568527.3446096-1.053165.8335753-1.453929 1.4669118s-.712983 1.406368-.936666 2.3191177c-.223682.9127496-.335522 1.9372492-.335522 3.0735294 0 1.1549077.11184 2.1933777.335522 3.1154411.223683.9220635.535902 1.7137222.936666 2.375.400764.6612779.885402 1.1688708 1.453929 1.5227942.568526.3539233 1.206943.5308823 1.915271.5308823zm10.233421-7.4602941c0-1.471576.200379-2.7941118.601143-3.9676471.400765-1.1735352.964623-2.1700939 1.69159-2.9897058.726968-.819612 1.593725-1.4482822 2.600296-1.8860295 1.006571-.4377472 2.106327-.6566176 3.2993-.6566176 1.118412 0 2.097008.2235272 2.935817.6705882.838809.4470611 1.528486.9686245 2.069052 1.5647059l-1.314127 1.4808824c-.484646-.5029437-1.025204-.9080867-1.62169-1.2154412-.596487-.3073545-1.286164-.4610294-2.069052-.4610294-.87609 0-1.672947.1723022-2.390595.5169117-.717647.3446096-1.328105.8382321-1.831391 1.4808824-.503285.6426503-.890063 1.4203386-1.160346 2.3330882-.270283.9127497-.405423 1.9372493-.405423 3.0735294 0 1.1549078.13514 2.1933778.405423 3.1154412.270283.9220635.657061 1.7090654 1.160346 2.3610294.503286.6519641 1.113744 1.1549002 1.831391 1.5088236.717648.3539233 1.514505.5308823 2.390595.5308823.838809 0 1.584406-.176959 2.236813-.5308823.652407-.3539234 1.276845-.8568595 1.873331-1.5088236l1.342088 1.425c-.726968.8382395-1.547125 1.4901938-2.460495 1.9558824s-1.957205.6985294-3.131538.6985294c-1.155693 0-2.222829-.2142135-3.201439-.6426471-.978611-.4284335-1.826728-1.04779-2.544375-1.8580882-.717648-.8102982-1.281506-1.8068568-1.69159-2.9897059-.410085-1.182849-.615124-2.5193553-.615124-4.0095588zm18.202068 5.1691176c.689688.6892192 1.491204 1.2433803 2.404574 1.6625.91337.4191198 1.873327.6286765 2.879898.6286765 1.304814 0 2.31137-.2747521 3.019698-.8242647.708327-.5495125 1.062486-1.271319 1.062486-2.1654412 0-.4656886-.08388-.8615179-.251642-1.1875-.167761-.325982-.400761-.605391-.699004-.8382353s-.647742-.442401-1.048506-.6286764c-.400764-.1862755-.834143-.3818618-1.300148-.5867647l-2.628255-1.1455883c-.466006-.1862754-.932004-.4098026-1.398009-.6705882s-.890063-.5774491-1.272187-.95-.694343-.8149484-.936666-1.3272059-.363482-1.1036731-.363482-1.7742647c0-.6892191.149119-1.3318598.447363-1.9279412.298243-.5960814.712981-1.112988 1.244227-1.5507353s1.165003-.7776948 1.901291-1.0198529 1.542465-.3632353 2.418555-.3632353c1.155692 0 2.218168.2095567 3.187459.6286765.96929.4191197 1.789447.9639672 2.460494 1.6345588l-1.230247 1.5088235c-.596487-.5401988-1.253544-.963969-1.971192-1.2713235s-1.533144-.4610294-2.446514-.4610294c-1.118413 0-2.003809.2374976-2.656216.7125s-.978606 1.1316134-.978606 1.9698529c0 .4470611.09786.8242632.293582 1.1316177.195722.3073544.447361.5774498.754924.8102941.307564.2328443.657062.4330874 1.048507.6007353l1.174327.5029412 2.572335 1.117647c.559206.2235305 1.085784.4796554 1.579749.7683824.493966.2887269.922684.6240177 1.286168 1.0058823.363484.3818647.652403.828919.866765 1.3411765s.321542 1.1036731.321542 1.7742647c0 .7264742-.149119 1.4063694-.447363 2.0397059-.298243.6333365-.726961 1.1874976-1.286167 1.6625s-1.239564.8475477-2.041092 1.117647c-.801529.2700994-1.705566.4051471-2.712137.4051471-1.342094 0-2.576989-.2421544-3.704722-.7264706-1.127732-.4843161-2.110988-1.145584-2.949797-1.9838235z" fill="#760fc3"/></g></svg>