<svg xmlns="http://www.w3.org/2000/svg" xmlns:xlink="http://www.w3.org/1999/xlink" width="36" height="36" viewBox="0 0 24 24">
  <defs>
    <filter id="open-filter">
      <feColorMatrix
        color-interpolation-filters="sRGB"
        type="matrix"
        values="0.4627450980392157 0 0 0 0
                0 0.058823529411764705 0 0 0
                0 0 0.7647058823529411 0 0
                0 0 0 1 0 "/>
    </filter>
    <path id="trigger-a" d="M7.1328,12.9996 L11.6018,12.9996 C11.9088,12.9996 12.1998,13.1416 12.3898,13.3846 C12.5788,13.6276 12.6468,13.9436 12.5708,14.2426 L11.8828,16.9886 L16.8668,10.9996 L12.3988,10.9996 C12.0908,10.9996 11.7998,10.8576 11.6108,10.6146 C11.4208,10.3716 11.3538,10.0556 11.4288,9.7566 L12.1168,7.0106 L7.1328,12.9996 Z M9.8458,21.9996 C9.6918,21.9996 9.5368,21.9646 9.3928,21.8916 C8.9768,21.6806 8.7628,21.2086 8.8758,20.7566 L10.3198,14.9996 L4.9998,14.9996 C4.6118,14.9996 4.2588,14.7746 4.0948,14.4246 C3.9298,14.0726 3.9838,13.6576 4.2318,13.3596 L13.3858,2.3596 C13.6858,2.0006 14.1928,1.8976 14.6078,2.1076 C15.0238,2.3186 15.2368,2.7906 15.1238,3.2426 L13.6808,8.9996 L18.9998,8.9996 C19.3878,8.9996 19.7408,9.2246 19.9048,9.5746 C20.0708,9.9266 20.0168,10.3416 19.7688,10.6396 L10.6138,21.6396 C10.4188,21.8736 10.1348,21.9996 9.8458,21.9996 L9.8458,21.9996 Z"/>
  </defs>
  <use fill="#683d87" fill-rule="evenodd" xlink:href="#trigger-a"/>
</svg>