<svg xmlns="http://www.w3.org/2000/svg" xmlns:xlink="http://www.w3.org/1999/xlink" width="24" height="24" viewBox="0 0 24 24">
  <defs>
    <filter id="open-filter">
      <feColorMatrix
        color-interpolation-filters="sRGB"
        type="matrix"
        values="0.4627450980392157 0 0 0 0
                0 0.058823529411764705 0 0 0
                0 0 0.7647058823529411 0 0
                0 0 0 1 0 "/>
    </filter>
    <path id="warning-a" d="M21.8001524,19.1022105 L13.8062503,3.11440624 C13.3066314,2.11516847 12.1075461,1.71547337 11.1083084,2.21509225 C10.808537,2.4149398 10.5087657,2.71471113 10.3089181,3.11440624 L2.21509225,19.1022105 C1.71547337,20.1014482 2.11516847,21.3005336 3.11440624,21.8001524 C3.41417757,21.9000762 3.7139489,22 4.01372023,22 L20.0015245,22 C21.100686,22 22,21.100686 22,20.0015245 C22,19.7017531 21.9000762,19.4019818 21.8001524,19.1022105 Z M4.01372023,20.0015245 L12.0076223,4.01372023 L20.0015245,20.0015245 L4.01372023,20.0015245 Z M11.0083846,10.0091468 L13.0068601,10.0091468 L13.0068601,15.0053356 L11.0083846,15.0053356 L11.0083846,10.0091468 Z M11.0083846,16.0045734 L13.0068601,16.0045734 L13.0068601,18.0030489 L11.0083846,18.0030489 L11.0083846,16.0045734 Z"/>
  </defs>
  <use fill="#ed003b" fill-rule="evenodd" xlink:href="#warning-a"/>
</svg>
