<svg id="Layer_1" data-name="Layer 1" xmlns="http://www.w3.org/2000/svg" width="35px" height="35px" viewBox="0 0 256 256"><defs><style>.cls-1{fill:#77d065;}.cls-2{fill:#fff;}</style></defs><title>icon</title><rect class="cls-1" x="0.52" width="256" height="256"/><path class="cls-2" d="M136.8,132.3H36.55a2.5,2.5,0,0,1,0-5H136.8a2.5,2.5,0,0,1,0,5Z"/><path class="cls-2" d="M145.36,123.61a2.5,2.5,0,0,1-2.5-2.5V90.8a2.5,2.5,0,0,1,5,0v30.32A2.5,2.5,0,0,1,145.36,123.61Z"/><path class="cls-2" d="M145.36,80.36a2.5,2.5,0,0,1-2.5-2.5V65.45a2.5,2.5,0,0,1,5,0V77.86A2.5,2.5,0,0,1,145.36,80.36Z"/><path class="cls-2" d="M145.36,167.7a2.5,2.5,0,0,1-2.5-2.5V134.89a2.5,2.5,0,0,1,5,0V165.2A2.5,2.5,0,0,1,145.36,167.7Z"/><path class="cls-2" d="M145.36,193.05a2.5,2.5,0,0,1-2.5-2.5V178.14a2.5,2.5,0,0,1,5,0v12.41A2.5,2.5,0,0,1,145.36,193.05Z"/><path class="cls-2" d="M149.52,125.54a2.5,2.5,0,0,1-2.17-3.74l26.09-45.63a2.5,2.5,0,1,1,4.34,2.48L151.7,124.28A2.5,2.5,0,0,1,149.52,125.54Z"/><path class="cls-2" d="M175.62,185a2.5,2.5,0,0,1-2.17-1.26l-26.09-45.63a2.5,2.5,0,0,1,4.34-2.48l26.09,45.63a2.5,2.5,0,0,1-2.17,3.74Z"/><path class="cls-2" d="M197.76,132.3H153.37a2.5,2.5,0,0,1,0-5h44.39a2.5,2.5,0,0,1,0,5Z"/><path class="cls-2" d="M218.49,132.3H207.34a2.5,2.5,0,1,1,0-5h11.15a2.5,2.5,0,0,1,0,5Z"/><path class="cls-2" d="M197.76,162.71a2.49,2.49,0,0,1-1.23-.33l-44.39-25.26a2.5,2.5,0,0,1,2.47-4.35L199,158a2.5,2.5,0,0,1-1.24,4.67Z"/><path class="cls-2" d="M212.91,171.91a2.49,2.49,0,0,1-1.23-.33l-7.39-4.21a2.5,2.5,0,1,1,2.47-4.35l7.39,4.21a2.5,2.5,0,0,1-1.24,4.67Z"/><path class="cls-2" d="M153.37,127.75a2.5,2.5,0,0,1-1.24-4.67l44.39-25.26a2.5,2.5,0,0,1,2.47,4.35l-44.39,25.26A2.49,2.49,0,0,1,153.37,127.75Z"/><path class="cls-2" d="M205.53,97.5a2.5,2.5,0,0,1-1.24-4.67l7.39-4.21A2.5,2.5,0,0,1,214.15,93l-7.39,4.21A2.49,2.49,0,0,1,205.53,97.5Z"/><path class="cls-2" d="M139.53,123.61a2.5,2.5,0,0,1-2.15-1.22l-26-43.71a2.5,2.5,0,1,1,4.3-2.56l26,43.71a2.5,2.5,0,0,1-2.15,3.78Z"/><path class="cls-2" d="M113.54,184.7a2.5,2.5,0,0,1-2.16-3.75l26-44.94a2.5,2.5,0,0,1,4.33,2.5l-26,44.94A2.5,2.5,0,0,1,113.54,184.7Z"/><path class="cls-1" d="M160.56,129.8a15.2,15.2,0,1,1-15.2-15.2,15.2,15.2,0,0,1,15.2,15.2"/><path class="cls-2" d="M145.37,147.5a17.7,17.7,0,1,1,17.7-17.7A17.72,17.72,0,0,1,145.37,147.5Zm0-30.4a12.7,12.7,0,1,0,12.7,12.7A12.71,12.71,0,0,0,145.37,117.11Z"/></svg>