<?xml version="1.0" encoding="utf-8"?>
<!-- Generator: Adobe Illustrator 23.0.3, SVG Export Plug-In . SVG Version: 6.00 Build 0)  -->
<svg version="1.1" id="Layer_1" xmlns="http://www.w3.org/2000/svg" xmlns:xlink="http://www.w3.org/1999/xlink" x="0px" y="0px"
	 viewBox="0 0 202 36" style="enable-background:new 0 0 202 36;" xml:space="preserve">
<style type="text/css">
	.st0{fill-rule:evenodd;clip-rule:evenodd;fill:#FFFFFF;}
</style>
<g>
	<path class="st0" d="M21.7,28.4c2.7,0,4.8-2.2,4.8-4.8h-9.6C16.9,26.3,19,28.4,21.7,28.4z M10.9,18c-1.6,0-3,1.3-3,3h6
		C13.8,19.3,12.5,18,10.9,18z M32.2,18c-1.6,0-3,1.3-3,3h6C35.2,19.3,33.9,18,32.2,18z M21,3.7c1,0,1.9-0.8,1.9-1.8S22,0,21,0
		c-1,0-1.9,0.8-1.9,1.9C19.1,2.8,20,3.7,21,3.7z"/>
	<path class="st0" d="M42.5,19.9c-0.5-3.4-1.3-6.8-1.8-9.1c-0.6-2.7-3-4.7-5.7-4.8c-2.7-0.2-7.3-0.4-13.3-0.4S11.1,5.8,8.4,6
		c-2.8,0.2-5.1,2.1-5.8,4.8c-0.5,2.3-1.3,5.7-1.8,9.1c-0.3,2.3-0.6,5-0.8,8.1c-0.1,1.7,0.5,3.3,1.6,4.6c1.1,1.3,2.7,2,4.4,2.1
		c3.8,0.2,9.5,0.4,15.7,0.4s11.9-0.2,15.7-0.4c1.7-0.1,3.3-0.8,4.4-2.1c1.1-1.3,1.7-2.9,1.6-4.6C43.1,24.9,42.9,22.2,42.5,19.9z
		 M39.5,30.6c-0.6,0.7-1.4,1.1-2.3,1.1c-3.7,0.2-9.4,0.4-15.5,0.4S9.9,31.9,6.2,31.7c-0.9,0-1.7-0.4-2.3-1.1C3.2,30,2.9,29.1,3,28.2
		c0.2-3,0.5-5.6,0.8-7.8c0.5-3.3,1.2-6.6,1.7-8.9c0.3-1.4,1.6-2.5,3-2.6c2.7-0.2,7.2-0.4,13.1-0.4c6,0,10.4,0.2,13.1,0.4
		c1.5,0.1,2.7,1.1,3,2.6c0.5,2.2,1.3,5.6,1.7,8.9c0.3,2.2,0.6,4.9,0.8,7.8C40.4,29.1,40.1,30,39.5,30.6z M58.7,16.3
		c-2.4,0-3.6,1.7-3.6,1.7v-6.7h-3.4v17.5h3.4v-1.5c0,0,1.3,1.7,3.6,1.7c3.1,0,5.9-2.7,5.9-6.4S61.8,16.3,58.7,16.3z M58.1,26
		c-1.6,0-3-1.4-3-3.4c0-2,1.4-3.4,3-3.4s3,1.4,3,3.4S59.7,26,58.1,26z"/>
	<polygon class="st0" points="67.5,16.9 70.9,16.9 70.9,29.1 67.5,29.1 	"/>
	<path class="st0" d="M68.3,11.2c-1.1,0-1.9,0.8-1.9,1.9s0.8,1.9,1.9,1.9c1.3,0,2-0.8,2-1.9S69.5,11.2,68.3,11.2z M78.6,25.2v-4.9
		h2.5v-3h-2.5v-3.9h-3v2.2c0,1-0.6,1.6-1.4,1.6h-1.1v3h2.1v5c0,2.9,1.4,4.2,3.9,4.2c1.3,0,2.2-0.4,2.2-0.4v-2.9c0,0-0.5,0.3-1.3,0.3
		C79.2,26.6,78.6,26,78.6,25.2z M87.7,18.5V17h-3.4v12.2h3.4v-5.9c0-2.1,1.1-3.3,2.9-3.3c0.8,0,1.1,0.1,1.1,0.1v-3.4h-0.5
		C89,16.8,87.7,18.5,87.7,18.5z"/>
	<polygon class="st0" points="93.4,16.9 96.7,16.9 96.7,29.1 93.4,29.1 	"/>
	<path class="st0" d="M95.3,11.2c-1.1,0-1.9,0.8-1.9,1.9s0.8,1.9,1.9,1.9c1.3,0,2-0.8,2-1.9S96.5,11.2,95.3,11.2z M103.2,20.8
		c0-0.5,0.5-1,1.5-1c1.3,0,2,1,2,1l1.7-2c0,0-1.4-1.9-4.2-1.9c-2.7,0-4.7,2-4.7,3.9c0,4.1,5.6,3.1,5.6,5c0,0.6-0.5,1.1-1.6,1.1
		c-1.6,0-2.6-1.4-2.6-1.4L99,27.4c0,0,1.5,2.2,5,2.2c3.1,0,4.9-1.7,4.9-3.9C108.9,21.6,103.2,22.5,103.2,20.8z M122.7,23
		c0-3.5-2.6-6.1-6.1-6.1c-3.5,0-6.4,2.9-6.4,6.4s2.9,6.4,6.5,6.4c3.4,0,5.2-2.1,5.2-2.1l-1.7-2.2c0,0-1.1,1.5-3.3,1.5
		c-1.9,0-3-1.1-3.3-2.4h8.9C122.6,24.4,122.7,23.9,122.7,23z M113.7,22c0.4-1.3,1.4-2.2,2.9-2.2c1.5,0,2.5,1,2.7,2.2H113.7z"/>
</g>
<path class="st0" d="M129,17.3c0-0.7,0.2-1.3,0.7-1.7c0.4-0.4,1-0.7,1.6-0.7c0.6,0,1.2,0.2,1.6,0.7c0.4,0.4,0.7,1,0.7,1.7
	c0,0.7-0.2,1.3-0.7,1.7c-0.4,0.4-1,0.6-1.6,0.6c-0.6,0-1.2-0.2-1.6-0.6C129.2,18.6,129,18.1,129,17.3z M129,27.4
	c0-0.7,0.2-1.3,0.7-1.7c0.4-0.4,1-0.7,1.6-0.7c0.6,0,1.2,0.2,1.6,0.7c0.4,0.4,0.7,1,0.7,1.7c0,0.7-0.2,1.3-0.7,1.7
	c-0.4,0.4-1,0.6-1.6,0.6c-0.6,0-1.2-0.2-1.6-0.6C129.2,28.6,129,28.1,129,27.4z M139,11h4.5c2.8,0,4.9,0.8,6.3,2.3
	c1.4,1.6,2.2,3.8,2.2,6.7c0,1.5-0.2,2.8-0.5,3.9c-0.4,1.1-0.9,2.1-1.6,2.9c-0.7,0.8-1.6,1.4-2.6,1.8c-1,0.4-2.2,0.6-3.6,0.6H139V11z
	 M143.4,27.5c2.1,0,3.6-0.6,4.7-1.9c1-1.3,1.6-3.1,1.6-5.4s-0.5-4.1-1.6-5.3c-1-1.2-2.6-1.8-4.7-1.8h-2v14.5H143.4z M161.8,29.7
	c-1,0-2-0.2-2.9-0.7c-0.9-0.4-1.6-1.1-2.2-1.9c-0.6-0.8-1.1-1.8-1.5-3c-0.3-1.2-0.5-2.5-0.5-4s0.2-2.8,0.5-4s0.8-2.2,1.5-3
	c0.6-0.8,1.4-1.4,2.2-1.9c0.9-0.4,1.8-0.6,2.9-0.6c1,0,2,0.2,2.8,0.7c0.9,0.4,1.6,1.1,2.2,1.9c0.6,0.8,1.1,1.8,1.5,3
	c0.3,1.2,0.5,2.5,0.5,3.9c0,1.5-0.2,2.8-0.5,4c-0.3,1.2-0.8,2.2-1.5,3c-0.6,0.8-1.4,1.5-2.2,1.9C163.8,29.5,162.8,29.7,161.8,29.7z
	 M161.8,27.7c0.7,0,1.3-0.2,1.9-0.5s1.1-0.9,1.5-1.5c0.4-0.7,0.7-1.5,0.9-2.4c0.2-0.9,0.3-2,0.3-3.1c0-1.1-0.1-2.2-0.3-3.1
	c-0.2-0.9-0.5-1.7-0.9-2.3c-0.4-0.6-0.9-1.1-1.5-1.5s-1.2-0.5-1.9-0.5c-0.7,0-1.3,0.2-1.9,0.5s-1.1,0.8-1.5,1.5
	c-0.4,0.6-0.7,1.4-0.9,2.3c-0.2,0.9-0.3,1.9-0.3,3.1c0,1.2,0.1,2.2,0.3,3.1c0.2,0.9,0.5,1.7,0.9,2.4c0.4,0.7,0.9,1.2,1.5,1.5
	S161.1,27.7,161.8,27.7z M172.1,20.2c0-1.5,0.2-2.8,0.6-4c0.4-1.2,1-2.2,1.7-3c0.7-0.8,1.6-1.4,2.6-1.9c1-0.4,2.1-0.7,3.3-0.7
	c1.1,0,2.1,0.2,2.9,0.7c0.8,0.4,1.5,1,2.1,1.6l-1.3,1.5c-0.5-0.5-1-0.9-1.6-1.2c-0.6-0.3-1.3-0.5-2.1-0.5c-0.9,0-1.7,0.2-2.4,0.5
	s-1.3,0.8-1.8,1.5c-0.5,0.6-0.9,1.4-1.2,2.3c-0.3,0.9-0.4,1.9-0.4,3.1c0,1.2,0.1,2.2,0.4,3.1c0.3,0.9,0.7,1.7,1.2,2.4
	c0.5,0.7,1.1,1.2,1.8,1.5s1.5,0.5,2.4,0.5c0.8,0,1.6-0.2,2.2-0.5c0.7-0.4,1.3-0.9,1.9-1.5l1.3,1.4c-0.7,0.8-1.5,1.5-2.5,2
	c-0.9,0.5-2,0.7-3.1,0.7c-1.2,0-2.2-0.2-3.2-0.6c-1-0.4-1.8-1-2.5-1.9s-1.3-1.8-1.7-3C172.3,23,172.1,21.7,172.1,20.2z M190.3,25.4
	c0.7,0.7,1.5,1.2,2.4,1.7c0.9,0.4,1.9,0.6,2.9,0.6c1.3,0,2.3-0.3,3-0.8s1.1-1.3,1.1-2.2c0-0.5-0.1-0.9-0.3-1.2
	c-0.2-0.3-0.4-0.6-0.7-0.8c-0.3-0.2-0.6-0.4-1-0.6c-0.4-0.2-0.8-0.4-1.3-0.6l-2.6-1.1c-0.5-0.2-0.9-0.4-1.4-0.7s-0.9-0.6-1.3-1
	s-0.7-0.8-0.9-1.3c-0.2-0.5-0.4-1.1-0.4-1.8c0-0.7,0.1-1.3,0.4-1.9s0.7-1.1,1.2-1.6c0.5-0.4,1.2-0.8,1.9-1c0.7-0.2,1.5-0.4,2.4-0.4
	c1.2,0,2.2,0.2,3.2,0.6c1,0.4,1.8,1,2.5,1.6l-1.2,1.5c-0.6-0.5-1.3-1-2-1.3c-0.7-0.3-1.5-0.5-2.4-0.5c-1.1,0-2,0.2-2.7,0.7
	s-1,1.1-1,2c0,0.4,0.1,0.8,0.3,1.1c0.2,0.3,0.4,0.6,0.8,0.8c0.3,0.2,0.7,0.4,1,0.6l1.2,0.5l2.6,1.1c0.6,0.2,1.1,0.5,1.6,0.8
	c0.5,0.3,0.9,0.6,1.3,1s0.7,0.8,0.9,1.3c0.2,0.5,0.3,1.1,0.3,1.8c0,0.7-0.1,1.4-0.4,2c-0.3,0.6-0.7,1.2-1.3,1.7
	c-0.6,0.5-1.2,0.8-2,1.1s-1.7,0.4-2.7,0.4c-1.3,0-2.6-0.2-3.7-0.7s-2.1-1.1-2.9-2L190.3,25.4z"/>
</svg>
