<?xml version="1.0" encoding="utf-8"?>
<!-- Generator: Adobe Illustrator 23.0.1, SVG Export Plug-In . SVG Version: 6.00 Build 0)  -->
<svg version="1.1"
	 id="Layer_1" xmlns:cc="http://creativecommons.org/ns#" xmlns:dc="http://purl.org/dc/elements/1.1/" xmlns:rdf="http://www.w3.org/1999/02/22-rdf-syntax-ns#" xmlns:svg="http://www.w3.org/2000/svg"
	 xmlns="http://www.w3.org/2000/svg" xmlns:xlink="http://www.w3.org/1999/xlink" x="0px" y="0px" viewBox="-156.4 351 307.4 93.4"
	 style="enable-background:new -156.4 351 307.4 93.4;" xml:space="preserve">
<style type="text/css">
	.st0{fill:#FFFFFF;}
	.st1{fill:#E3F2FD;}
	.st2{fill:#90CAF9;}
</style>
<g id="g3">
	<path id="path5" class="st0" d="M-148.3,378.6v7.7c1.6-2.7,4.2-4.9,7.6-6.4c3.4-1.5,6.9-2.3,10.3-2.3c3.4,0,6.7,0.7,9.6,2
		c3,1.3,5.9,3.6,8.8,6.7c1.5,1.3,2.7,3.3,3.8,6.1c1,2.7,1.6,5.7,1.6,8.8c0,6.6-2.4,12.1-7.2,16.6c-4.8,4.4-10.5,6.7-17.1,6.7
		c-3.5,0-6.8-0.8-10-2.5c-3.2-1.7-5.5-3.9-6.9-6.9v24h-6.2v-60.5H-148.3z M-112.8,401.1c0-4.9-1.7-9-5.1-12.5
		c-3.4-3.5-7.6-5.2-12.5-5.2c-5,0-9.2,1.6-12.7,4.9c-3.5,3.3-5.2,7.4-5.2,12.3c0,2.7,0.3,5,1,6.9c0.7,1.9,2.3,4.3,5,7
		c2.7,2.7,6.5,4.1,11.5,4.1c5,0,9.3-1.7,12.8-5C-114.5,410.3-112.8,406.1-112.8,401.1z"/>
	<path id="path7" class="st0" d="M-52.4,423.5h-5.8v-8.4c-1.7,3-4.1,5.4-7.2,7s-6.5,2.4-10.2,2.4c-3.5,0-7-0.8-10.4-2.4
		s-6.1-3.4-8-5.6c-1.9-2.1-3.3-4.5-4.3-7.2c-1-2.7-1.5-5.6-1.5-8.6c0-2.7,0.5-5.4,1.6-8.1s2.7-5.1,4.8-7.3c2.1-2.2,4.7-4,7.9-5.4
		c3.2-1.4,6.4-2.2,9.8-2.2c3.8,0,7.2,0.8,10.4,2.4c3.1,1.6,5.5,4,7.2,7.1v-8.5h5.8v44.8H-52.4z M-93.7,401.2c0,4.9,1.8,9,5.4,12.4
		s7.8,5.1,12.7,5.1c4.7,0,8.8-1.7,12.2-5.2c3.4-3.4,5.2-7.5,5.2-12.2c0-5-1.7-9.2-5-12.6s-7.5-5.2-12.5-5.2c-4.9,0-9.1,1.7-12.7,5.2
		C-92,392.1-93.7,396.3-93.7,401.2z"/>
	<path id="path9" class="st0" d="M-42.1,362.9h6.1v60.6h-6.1V362.9z"/>
	<path id="path11" class="st0" d="M-25.7,362.9h6.1v10.3h-6.1V362.9z M-25.7,378h6.1v45.4h-6.1V378z"/>
	<path id="path13" class="st0" d="M35.6,417.1c0,4-0.3,7.2-0.9,9.5c-0.6,2.3-2,4.6-4.2,7s-4.9,4.2-8.1,5.5c-3.2,1.3-6.4,1.9-9.7,1.9
		c-5,0-9.6-1.5-13.9-4.6c-4.2-3-6.9-7-8.1-12h5.9c1.8,3.5,4.1,6.1,6.8,8c2.7,1.8,6,2.8,9.8,2.8c3,0,5.8-0.7,8.5-2
		c2.7-1.3,4.6-3.1,5.8-5.1c1.1-2,1.8-3.7,2-5.2s0.3-3.4,0.3-5.8v-2.5c-1.4,3.1-3.7,5.6-7,7.3c-3.3,1.7-6.8,2.6-10.5,2.6
		c-3,0-5.9-0.6-8.7-1.7s-5.9-3.4-9.3-6.6c-3.5-3.3-5.2-8.3-5.2-15c0-2.9,0.5-5.7,1.4-8.3s1.9-4.4,2.9-5.6c2.8-3.5,5.7-6,8.8-7.4
		c3.1-1.5,6.3-2.2,9.8-2.2c3.8,0,7.3,0.8,10.5,2.5c3.2,1.6,5.7,4,7.4,7.2v-8.7h5.8v38.4H35.6z M-4.9,400.6c0,5.1,1.6,9.4,4.8,12.8
		c3.2,3.4,7.4,5.2,12.4,5.2c2.5,0,4.8-0.4,6.7-1.2c2-0.8,3.8-2,5.4-3.7c1.6-1.7,2.9-3.7,3.9-5.9c0.9-2.3,1.4-4.5,1.4-6.7
		c0-5.1-1.7-9.3-5.2-12.6c-3.5-3.3-7.7-5-12.8-5c-4.7,0-8.6,1.7-11.8,5.1C-3.3,391.9-4.9,395.9-4.9,400.6z"/>
	<path id="path15" class="st0" d="M91,400.7c0,6.4-2.3,12-6.8,16.7c-4.5,4.7-10,7-16.5,7s-12-2.3-16.6-6.8s-6.9-10-6.9-16.4
		c0-6.5,2.3-12.1,6.8-16.7c4.5-4.6,10.1-6.9,16.7-6.9c6.2,0,11.7,2.3,16.3,6.9C88.6,389.1,91,394.5,91,400.7z M50.2,401.3
		c0,4.8,1.7,8.9,5.1,12.3c3.4,3.4,7.5,5.1,12.4,5.1s9-1.7,12.3-5.2s4.9-7.7,4.9-12.7c0-2.5-0.4-4.8-1.3-6.7c-0.8-2-2.6-4.2-5.2-6.7
		c-2.6-2.5-6.2-3.8-10.7-3.8c-4.9,0-9.1,1.7-12.4,5.2S50.2,396.3,50.2,401.3z"/>
</g>
<path id="path17" class="st1" d="M107.7,367.8c3.8,0,6.9-3.1,6.9-6.9c0-3.8-3-7-6.9-7c-3.8,0-6.9,3.1-6.9,6.9
	C100.8,364.6,103.9,367.8,107.7,367.8"/>
<path id="path19" class="st2" d="M107.7,401.1c3.8,0,6.9-3.1,6.9-6.9s-3.1-6.9-6.9-6.9s-6.9,3.1-6.9,6.9
	C100.8,398,103.9,401.1,107.7,401.1"/>
<path id="path21" class="st1" d="M107.7,384.4c3.8,0,6.9-3.1,6.9-6.9c0-3.8-3.1-6.9-6.9-6.9s-6.9,3.1-6.9,6.9
	C100.8,381.3,103.9,384.4,107.7,384.4"/>
<path id="path23" class="st1" d="M124.9,367.8c3.8,0,6.9-3.1,6.9-6.9c0-3.8-3.1-7-6.9-7c-3.8,0-6.9,3.1-6.9,6.9
	C118,364.6,121,367.8,124.9,367.8"/>
<path id="path25" class="st1" d="M124.9,401.1c3.8,0,6.9-3.1,6.9-6.9s-3.1-6.9-6.9-6.9s-6.9,3.1-6.9,6.9
	C117.9,398,121,401.1,124.9,401.1"/>
<path id="path27" class="st1" d="M124.9,384.4c3.8,0,6.9-3.1,6.9-6.9c0-3.8-3.1-6.9-6.9-6.9s-6.9,3.1-6.9,6.9
	C117.9,381.3,121,384.4,124.9,384.4"/>
<path id="path29" class="st1" d="M141.2,367.8c3.8,0,6.9-3.1,6.9-6.9c0-3.8-3.1-7-6.9-7s-6.9,3.1-6.9,6.9
	C134.3,364.6,137.4,367.8,141.2,367.8"/>
<path id="path31" class="st2" d="M141.2,401.1c3.8,0,6.9-3.1,6.9-6.9s-3.1-6.9-6.9-6.9s-6.9,3.1-6.9,6.9
	C134.3,398,137.4,401.1,141.2,401.1"/>
<path id="path33" class="st2" d="M141.2,384.4c3.8,0,6.9-3.1,6.9-6.9c0-3.8-3.1-6.9-6.9-6.9s-6.9,3.1-6.9,6.9
	C134.3,381.3,137.4,384.4,141.2,384.4"/>
</svg>
