<svg xmlns="http://www.w3.org/2000/svg" width="35px" height="35px" viewBox="0 0 256 256">
  <defs>
    <linearGradient id="activate-ssh-key-stepicon-a" x1="0%" x2="100%" y1="100%" y2="0%">
      <stop offset="0%" stop-color="#0DD3C5"/>
      <stop offset="100%" stop-color="#0D83CD"/>
    </linearGradient>
    <linearGradient id="activate-ssh-key-stepicon-b" x1="108.44%" x2="1.353%" y1="-11.098%" y2="109.263%">
      <stop offset="0%" stop-color="#FFF" stop-opacity=".399"/>
      <stop offset="100%" stop-color="#FFF"/>
    </linearGradient>
  </defs>
  <g fill="none" fill-rule="evenodd">
    <rect width="256" height="256" fill="url(#activate-ssh-key-stepicon-a)" fill-rule="nonzero"/>
    <path fill="url(#activate-ssh-key-stepicon-b)" d="M119.833333,123.333333 L135.5,123.333333 L135.5,154.666667 L119.833333,154.666667 L119.833333,123.333333 Z M80.6666667,107.666667 L80.6666667,178.166667 L174.666667,178.166667 L174.666667,107.666667 L80.6666667,107.666667 Z M80.6666667,92 C80.6666667,66.0426168 101.709283,45 127.666667,45 C153.62405,45 174.666667,66.0426168 174.666667,92 C183.319128,92 190.333333,99.0142056 190.333333,107.666667 L190.333333,178.166667 C190.333333,186.819128 183.319128,193.833333 174.666667,193.833333 L80.6666667,193.833333 C72.0142056,193.833333 65,186.819128 65,178.166667 L65,107.666667 C65,99.0142056 72.0142056,92 80.6666667,92 Z M96.3333333,92 L159,92 C159,74.6950778 144.971589,60.6666667 127.666667,60.6666667 C110.361745,60.6666667 96.3333333,74.6950778 96.3333333,92 Z"/>
    <polygon fill="#760FC3" points="147.38 198.691 213.891 133 228 147.149 147.38 228 98 177.468 112.109 163.319" style="mix-blend-mode:multiply"/>
  </g>
</svg>
