<svg id="Layer_1" data-name="Layer 1" xmlns="http://www.w3.org/2000/svg" width="35px" height="35px" viewBox="0 0 256 256"><defs><style>.cls-1{fill:#4d4d4d;}.cls-2{fill:#77d065;}</style></defs><title>icon</title><rect class="cls-1" x="0.04" y="0.04" width="255.92" height="255.92"/><path class="cls-2" d="M143,65.64H55a3,3,0,0,1,0-6h88a3,3,0,0,1,0,6Z"/><path class="cls-2" d="M114,131.64H55a3,3,0,0,1,0-6h59a3,3,0,1,1,0,6Z"/><path class="cls-2" d="M201,131.64H135a3,3,0,0,1,0-6h66a3,3,0,1,1,0,6Z"/><path class="cls-2" d="M84,98.64H55a3,3,0,0,1,0-6H84a3,3,0,0,1,0,6Z"/><path class="cls-2" d="M179,98.64H104a3,3,0,1,1,0-6h75a3,3,0,0,1,0,6Z"/><path class="cls-2" d="M114,195.64H55a3,3,0,0,1,0-6h59a3,3,0,1,1,0,6Z"/><path class="cls-2" d="M201,195.64H133a3,3,0,0,1,0-6h68a3,3,0,0,1,0,6Z"/><path class="cls-2" d="M84,161.64H55a3,3,0,0,1,0-6H84a3,3,0,0,1,0,6Z"/><path class="cls-2" d="M179,161.64H104a3,3,0,0,1,0-6h75a3,3,0,0,1,0,6Z"/><path class="cls-2" d="M201,65.64H167a3,3,0,0,1,0-6h34a3,3,0,0,1,0,6Z"/></svg>