<svg xmlns="http://www.w3.org/2000/svg" width="35px" height="35px" viewBox="0 0 100 100">
	<rect fill="#8151A8" width="100" height="100"/>
	<path fill="#FFF" d="M49.745,75.391c-0.168,0-0.31-0.043-0.478-0.13c-0.276-0.142-0.478-0.456-0.478-0.804V53.9
		c0-0.309,0.152-0.623,0.478-0.775L72.461,39.41c0.261-0.152,0.641-0.152,0.934,0c0.271,0.157,0.477,0.466,0.477,0.824v20.551
		c0,0.305-0.184,0.63-0.477,0.781L50.201,75.261C50.032,75.348,49.875,75.391,49.745,75.391z M50.678,54.454v18.397l21.327-12.619
		V41.835L50.678,54.454z"/>
	<path fill="#FFF" d="M49.745,75.391c-0.168,0-0.31-0.043-0.478-0.13L26.068,61.566c-0.293-0.173-0.477-0.477-0.477-0.781V40.234
		c0-0.358,0.195-0.624,0.477-0.824c0.267-0.152,0.63-0.152,0.934,0l23.199,13.715c0.434,0.276,0.574,0.819,0.309,1.253
		c-0.266,0.435-0.809,0.575-1.242,0.31L27.479,41.835v18.397l22.722,13.443c0.434,0.261,0.574,0.814,0.309,1.248
		C50.358,75.238,50.032,75.391,49.745,75.391z"/>
	<path fill="#FFF" d="M26.524,41.179c-0.304,0-0.624-0.157-0.781-0.467c-0.266-0.435-0.108-1.021,0.325-1.259l23.199-13.71
		c0.434-0.276,0.998-0.119,1.242,0.31c0.266,0.434,0.125,1.025-0.309,1.259L27.002,41.01C26.834,41.135,26.666,41.179,26.524,41.179z
		"/>
	<path fill="#FFF" d="M72.917,41.179c-0.163,0-0.304-0.033-0.456-0.125l-23.193-13.71c-0.434-0.266-0.603-0.819-0.336-1.242
		c0.293-0.435,0.835-0.592,1.27-0.326l23.193,13.716c0.434,0.276,0.607,0.819,0.314,1.253C73.557,41.01,73.242,41.179,72.917,41.179z
		"/>
	<path fill="#FFF" d="M49.968,49.023c-3.277,0-5.844-1.633-5.844-3.743v-3.636c0-0.499,0.418-0.933,0.934-0.933
		c0.499,0,0.933,0.434,0.933,0.933v3.636c0,0.9,1.709,1.866,4.01,1.866s4.01-1.015,4.01-1.866v-3.636
		c0-0.499,0.434-0.933,0.933-0.933c0.526,0,0.96,0.434,0.96,0.933v3.636C55.816,47.391,53.244,49.023,49.968,49.023z"/>
	<path fill="#FFF" d="M49.968,45.389c-3.277,0-5.844-1.633-5.844-3.744c0-2.11,2.556-3.754,5.844-3.754
		c3.287,0,5.849,1.633,5.849,3.743S53.244,45.389,49.968,45.389z M49.968,39.768c-2.312,0-4.026,1.01-4.026,1.866
		c0,0.868,1.726,1.878,4.026,1.878c2.3,0,4.02-1.01,4.02-1.878C53.966,40.777,52.268,39.768,49.968,39.768z"/>
	<path fill="#FFF" d="M37.625,42.578c-3.282,0-5.849-1.633-5.849-3.743v-3.646c0-0.499,0.434-0.933,0.933-0.933
		c0.516,0,0.934,0.434,0.934,0.933v3.636c0,0.9,1.715,1.866,4.015,1.866c2.301,0,4.021-1.015,4.021-1.866v-3.636
		c0-0.499,0.434-0.933,0.933-0.933c0.511,0,0.934,0.434,0.934,0.933v3.636C43.479,40.945,40.912,42.578,37.625,42.578z"/>
	<path fill="#FFF" d="M37.625,38.943c-3.282,0-5.849-1.633-5.849-3.744c0-2.11,2.556-3.754,5.849-3.754
		c3.287,0,5.854,1.633,5.854,3.743S40.912,38.943,37.625,38.943z M37.625,33.279c-2.312,0-4.025,1.02-4.025,1.877
		c0,0.9,1.735,1.877,4.025,1.877c2.295,0,4.02-1.02,4.02-1.877S39.92,33.279,37.625,33.279z"/>
	<path fill="#FFF" d="M62.305,42.188c-3.277,0-5.859-1.633-5.859-3.743v-3.646c0-0.499,0.434-0.933,0.934-0.933
		c0.51,0,0.943,0.434,0.943,0.933v3.636c0,0.9,1.704,1.866,4.025,1.866c2.301,0,4.016-1.01,4.016-1.866v-3.636
		c0-0.499,0.412-0.933,0.933-0.933s0.934,0.434,0.934,0.933v3.636C68.164,40.544,65.582,42.188,62.305,42.188z"/>
	<path fill="#FFF" d="M62.305,38.553c-3.277,0-5.859-1.628-5.859-3.744c0-2.11,2.582-3.743,5.859-3.743s5.838,1.633,5.838,3.743
		C68.153,36.925,65.582,38.553,62.305,38.553z M62.305,32.889c-2.301,0-4.025,1.02-4.025,1.877c0,0.9,1.725,1.877,4.025,1.877
		s4.036-1.02,4.036-1.877S64.605,32.889,62.305,32.889z"/>
	<path fill="#FFF" d="M49.968,35.742c-3.277,0-5.844-1.633-5.844-3.743v-3.646c0-0.499,0.418-0.933,0.934-0.933
		c0.499,0,0.933,0.434,0.933,0.933v3.636c0,0.9,1.698,1.877,4.01,1.877s4.01-1.01,4.01-1.866v-3.646c0-0.499,0.434-0.933,0.933-0.933
		c0.526,0,0.96,0.434,0.96,0.933v3.636C55.816,34.055,53.244,35.742,49.968,35.742z"/>
	<path fill="#FFF" d="M49.968,32.063c-3.277,0-5.844-1.616-5.844-3.743c0-2.11,2.566-3.743,5.844-3.743
		c3.276,0,5.849,1.633,5.849,3.743C55.816,30.437,53.244,32.063,49.968,32.063z M49.968,26.443c-2.312,0-4.026,1.025-4.026,1.877
		c0,0.9,1.726,1.877,4.026,1.877c2.3,0,4.02-1.02,4.02-1.877C53.987,27.469,52.268,26.443,49.968,26.443z"/>
</svg>
