<svg height="24" viewBox="0 0 407.48 503.89" width="24" xmlns="http://www.w3.org/2000/svg"><path d="m407.35 187c.01-.29.14-.55.14-.84h-.14v-132.73c.01-.29.14-.55.14-.84-.01-43.46-110.77-52.59-203.69-52.59s-203.37 9.12-203.66 52.42h-.14v265.81l.06 133c0 43.52 110.79 52.67 203.74 52.67s203.63-9.14 203.63-52.68l-.08-131.98c.01-.29.14-.54.14-.84h-.14v-131.39zm-42.36 123.55c-15.97 7.24-71.32 18.07-161.18 18.07s-145.85-10.95-161.43-18.19v-87.87c40.74 12.71 104.4 16.19 161.43 16.19s120.43-3.47 161.18-16.12zm-322.51 7.85h-.11v-.48c0 .19.11.28.11.48zm-.11-229.42c40.74 12.71 104.4 16.19 161.43 16.19s120.43-3.47 161.18-16.12v89.25c-15.97 7.25-71.32 18.08-161.18 18.08s-145.85-10.96-161.43-18.21zm161.43-46.61c59.96 0 104.78 4.84 132.69 10.22-27.91 5.38-72.73 10.22-132.69 10.22s-104.78-4.84-132.69-10.22c27.91-5.38 72.73-10.22 132.69-10.22zm-161.44 143.31c0 .19.11.28.11.48h-.11zm161.43 275.85c-89.28 0-144.97-10.78-161.38-18.05l-.04-88.68c40.74 12.7 104.39 16.18 161.42 16.18s120.46-3.47 161.21-16.12l.06 88.63c-16.41 7.27-72.07 18.04-161.27 18.04z" fill="#fff"/></svg>