<svg height="24" viewBox="0 0 24 24" width="24" xmlns="http://www.w3.org/2000/svg"><path d="m12 5.99999997c-3.30000002 0-6.00000003 2.70000001-6.00000003 6.00000003 0 2 1 3.8 2.50000001 4.8l.2.6c.2.9 1.00000001 1.5 1.90000002 1.5h2.9c.9 0 1.7-.6 1.9-1.5l.2-.6c1.4-1 2.4-2.8 2.4-4.8 0-3.30000002-2.7-6.00000003-6-6.00000003zm2.4 9.20000003c-.4.3-.6.7-.8 1.1l-.2.7h-2.8l-.2-.6c-.1-.5-.40000002-.9-.80000001-1.1-1.00000001-.8-1.60000001-2-1.60000001-3.3 0-2.20000001 1.80000001-4.00000002 4.00000002-4.00000002 2.2 0 4 1.80000001 4 4.00000002 0 1.3-.6 2.5-1.6 3.2zm-2.4 6.8c1.4.0000001 2.7-.8 3-2h-6.00000002c.30000001 1.1 1.60000002 2.0000001 3.00000002 2zm-1-20.00000005h2v2h-2zm6.6618317 1.69676797 1.5320889 1.28557522-1.2855752 1.5320889-1.5320889-1.28557523zm4.0125977 5.58194254.3472964 1.96961554-1.9696156.3472963-.3472963-1.96961549zm-.5141753 6.85526414-1 1.7320508-1.7320508-1 1-1.7320508zm-17.32050818 1.7320508-1-1.7320508 1.73205081-1 1.00000001 1.7320508zm-1.86147168-6.6176994.34729636-1.96961554 1.96961552.34729635-.34729636 1.96961549zm2.82780518-6.26598286 1.5320889-1.28557522 1.28557522 1.53208889-1.53208889 1.28557523z" fill="#590b94" fill-rule="evenodd"/></svg>