<svg xmlns="http://www.w3.org/2000/svg" width="30" height="24" viewBox="0 0 30 24">
    <g fill="#FFF" fill-rule="evenodd">
        <path d="M14.437 19.37c-1.76 0-3.187-1.512-3.187-3.376h6.375c0 1.864-1.427 3.375-3.188 3.375zM5.25 14.12h4.125c0-1.036-.923-1.876-2.063-1.876-1.139 0-2.062.84-2.062 1.875zM19.875 14.12H24c0-1.036-.923-1.876-2.063-1.876-1.139 0-2.062.84-2.062 1.875zM15.618 1.181a1.181 1.181 0 1 0-2.362 0 1.181 1.181 0 0 0 2.362 0z"/>
        <path d="M25.096 21.61c-2.51.118-6.365.257-10.471.257-4.107 0-7.961-.14-10.471-.256a2.239 2.239 0 0 1-1.575-.747 2.218 2.218 0 0 1-.566-1.639c.133-2.002.312-3.774.532-5.268.328-2.216.82-4.467 1.176-5.964a2.23 2.23 0 0 1 2.046-1.72c1.82-.113 4.835-.248 8.858-.248 4.023 0 7.038.135 8.858.248a2.23 2.23 0 0 1 2.046 1.72c.356 1.498.848 3.749 1.175 5.964.22 1.494.4 3.266.532 5.268a2.219 2.219 0 0 1-.566 1.639 2.238 2.238 0 0 1-1.574.747zm2.387-14.078a4.226 4.226 0 0 0-3.875-3.257c-1.849-.115-4.908-.252-8.983-.252s-7.135.137-8.983.252a4.226 4.226 0 0 0-3.876 3.257C1.402 9.068.896 11.378.56 13.665c-.229 1.547-.414 3.373-.55 5.429a4.2 4.2 0 0 0 1.072 3.104A4.234 4.234 0 0 0 4.06 23.61c2.531.118 6.42.26 10.565.26s8.033-.142 10.565-.26a4.233 4.233 0 0 0 2.978-1.412 4.2 4.2 0 0 0 1.072-3.104c-.136-2.056-.32-3.882-.55-5.429-.337-2.285-.842-4.597-1.207-6.133z"/>
    </g>
</svg>
