<svg id="Layer_1" data-name="Layer 1" xmlns="http://www.w3.org/2000/svg" viewBox="0 0 512 512"><defs><style>.cls-1{fill:#3cc1a7;}.cls-2{fill:#231f20;}.cls-3{fill:#fff;}</style></defs><title>bitrise_logo_circle</title><circle id="_Path_" data-name="&lt;Path&gt;" class="cls-1" cx="256.07" cy="256" r="256"/><g id="_Group_" data-name="&lt;Group&gt;"><g id="_Group_2" data-name="&lt;Group&gt;"><path id="_Compound_Path_" data-name="&lt;Compound Path&gt;" class="cls-2" d="M364.43,292.59a36.3,36.3,0,1,1,36.3-36.3A36.34,36.34,0,0,1,364.43,292.59Zm0-55.38a19.08,19.08,0,1,0,19.09,19.09A19.11,19.11,0,0,0,364.43,237.2Z"/></g><g id="_Group_3" data-name="&lt;Group&gt;"><path id="_Compound_Path_2" data-name="&lt;Compound Path&gt;" class="cls-2" d="M146.58,292.59a36.3,36.3,0,1,1,36.3-36.3A36.34,36.34,0,0,1,146.58,292.59Zm0-55.38a19.08,19.08,0,1,0,19.08,19.09A19.11,19.11,0,0,0,146.58,237.2Z"/></g><g id="_Group_4" data-name="&lt;Group&gt;"><rect id="_Path_2" data-name="&lt;Path&gt;" class="cls-3" x="147.58" y="180.44" width="216.86" height="194.48"/><path id="_Compound_Path_3" data-name="&lt;Compound Path&gt;" class="cls-2" d="M373,383.52H139V171.83H373V383.52ZM156.18,366.31H355.82V189H156.18V366.31Z"/></g><g id="_Group_5" data-name="&lt;Group&gt;"><path id="_Path_3" data-name="&lt;Path&gt;" class="cls-2" d="M222.62,263.42H210.25a8.08,8.08,0,0,0-16.16,0H181.73A20.45,20.45,0,0,1,222.62,263.42Z"/></g><g id="_Group_6" data-name="&lt;Group&gt;"><path id="_Path_4" data-name="&lt;Path&gt;" class="cls-2" d="M339.22,263.42H326.85a8.07,8.07,0,0,0-16.15,0H298.33A20.44,20.44,0,0,1,339.22,263.42Z"/></g><g id="_Group_7" data-name="&lt;Group&gt;"><rect id="_Path_5" data-name="&lt;Path&gt;" class="cls-2" x="247.4" y="128.68" width="17.21" height="51.76"/></g><g id="_Group_8" data-name="&lt;Group&gt;"><path id="_Compound_Path_4" data-name="&lt;Compound Path&gt;" class="cls-2" d="M280.52,145.5h-49v-49h49v49Zm-31.81-17.21h14.6v-14.6h-14.6v14.6Z"/></g><g id="_Group_9" data-name="&lt;Group&gt;"><rect id="_Path_6" data-name="&lt;Path&gt;" class="cls-2" x="146.58" y="310.71" width="217.85" height="17.21"/></g></g></svg>