<?xml version="1.0" encoding="UTF-8"?>
<svg width="35px" height="35px" viewBox="0 0 256 256" version="1.1" xmlns="http://www.w3.org/2000/svg" xmlns:xlink="http://www.w3.org/1999/xlink">
    <!-- Generator: Sketch 50.2 (55047) - http://www.bohemiancoding.com/sketch -->
    <title>deploy-to-itunes-Connect</title>
    <desc>Created with Sketch.</desc>
    <defs>
        <linearGradient x1="50%" y1="0%" x2="50%" y2="100%" id="linearGradient-1">
            <stop stop-color="#54C3FA" offset="0%"></stop>
            <stop stop-color="#1586F5" offset="100%"></stop>
        </linearGradient>
        <rect id="path-2" x="0" y="0" width="256" height="256"></rect>
        <linearGradient x1="55.4749589%" y1="0%" x2="50%" y2="237.040588%" id="linearGradient-4">
            <stop stop-color="#FFFFFF" offset="0%"></stop>
            <stop stop-color="#FFFFFF" stop-opacity="0" offset="100%"></stop>
        </linearGradient>
    </defs>
    <g id="New-Icons" stroke="none" stroke-width="1" fill="none" fill-rule="evenodd">
        <g id="Deploy-to-iTunes-Connect">
            <g id="deploy-to-itunes-Connect">
                <mask id="mask-3" fill="white">
                    <use xlink:href="#path-2"></use>
                </mask>
                <use id="Rectangle" fill="url(#linearGradient-1)" xlink:href="#path-2"></use>
                <g id="hammer" mask="url(#mask-3)">
                    <g transform="translate(130.045878, 157.330781) rotate(15.000000) translate(-130.045878, -157.330781) translate(118.045878, 102.330781)"></g>
                </g>
                <g id="plug" mask="url(#mask-3)">
                    <g transform="translate(39.000000, 39.000000)" id="Group">
                        <g>
                            <path d="M8.47093158,89.0125043 C8.56681367,101.477976 11.1556299,113.272229 16.8126729,124.299377 C27.2638201,145.011237 43.5637745,158.915032 65.8084181,165.914873 C67.0548852,166.298426 68.2054702,166.681979 68.8766448,167.832638 C69.8354657,169.270962 69.8354657,171.188727 68.8766448,172.531162 C67.8219419,173.969486 66.0001823,174.736591 64.1784227,174.065374 C60.0554931,172.62705 55.9325634,171.284615 52.001398,169.558626 C41.837897,165.051879 32.9208631,158.627367 25.2502964,150.668643 C12.5938612,137.436066 4.6356482,121.806283 1.5674215,103.779293 C0.704482735,98.6013283 0.225072312,93.4233633 0.320954396,88.2453983 C0.704482735,66.8623207 7.70387491,47.876449 21.5108951,31.4795599 C29.2773439,22.2742888 38.5779061,15.0826707 49.3166996,9.61704098 C58.7131439,4.91851719 68.6848807,1.94598173 79.23191,0.795322839 C94.3812793,-0.834777252 109.051238,1.1788758 123.145905,7.02805848 C132.542349,10.8635881 140.979972,16.2333296 148.458775,23.1372829 C163.704026,37.0410778 173.100471,54.2050729 176.456344,74.6292682 C179.332806,91.9850397 177.127518,108.669594 170.032244,124.778818 C165.334022,135.518301 158.622276,144.915349 150.184653,153.065849 C142.322322,160.545132 133.405288,166.394314 123.433551,170.613397 C118.831211,172.531162 114.228871,174.25715 109.243002,174.928368 C102.723021,175.88725 96.6824493,174.736591 91.5048168,170.517509 C87.2860051,167.065532 85.1765992,162.462897 84.7930709,157.093155 C84.5054246,152.969961 84.6971888,148.750878 84.6971888,144.627684 C84.6971888,138.394948 84.6971888,132.162213 84.6971888,125.929477 C84.6971888,124.587042 84.7930709,124.491153 86.1354201,124.491153 C87.9571797,124.491153 89.8748213,124.491153 91.696581,124.491153 C93.0389301,124.491153 93.1348122,124.587042 93.1348122,125.929477 C93.0389301,135.518301 93.0389301,145.011237 92.9430481,154.600061 C92.9430481,156.997267 93.4224585,159.202696 94.5730435,161.312238 C96.6824493,165.051879 100.038322,166.490203 104.161252,166.873756 C107.421243,167.16142 110.48947,166.298426 113.557696,165.339544 C136.857043,157.668485 153.156997,142.422254 162.93697,120.080294 C166.484607,112.12157 168.306366,103.683405 168.977541,94.9575752 C170.032244,80.2866744 167.443428,66.3828795 160.827564,53.2461905 C153.061115,37.8081837 141.459383,26.0139301 126.118249,17.8634297 C116.721805,12.8772412 106.750068,10.0005939 96.298921,9.04171154 C81.7248442,7.79516441 67.7260598,10.0964822 54.4943322,16.4251061 C45.0978879,20.8359651 36.9479107,26.8769243 29.9485185,34.5479836 C18.4426684,47.1093431 11.4432762,61.7802439 9.33387034,78.6565743 C8.85445992,82.1085509 8.75857784,85.5605276 8.47093158,89.0125043 Z M89.0118826,78.8483508 C96.1071568,78.8483508 103.202431,78.8483508 110.297705,78.8483508 C112.407111,78.8483508 112.598875,79.2319037 112.598875,81.341445 C112.598875,88.2453983 110.105941,94.6699105 108.763592,101.286199 C108.092417,104.546399 107.421243,107.806599 106.84595,111.0668 C106.654186,112.12157 106.750068,113.176341 106.84595,114.231112 C106.941832,115.285882 107.421243,116.052988 108.66771,116.340653 C108.955356,116.436541 109.434767,116.915982 109.434767,117.299535 C109.530649,118.354306 109.530649,119.409077 109.434767,120.367959 C109.338885,120.751512 108.859474,121.230953 108.380064,121.518618 C108.092417,121.710394 107.613007,121.614506 107.229479,121.614506 C95.148336,121.614506 82.9713113,121.614506 70.8901686,121.614506 C70.5066403,121.614506 70.0272298,121.710394 69.7395836,121.518618 C69.3560553,121.230953 68.8766448,120.8474 68.6848807,120.367959 C68.4931165,119.696741 68.6848807,119.025524 68.5889986,118.354306 C68.4931165,117.203647 68.5889986,116.340653 70.0272298,116.052988 C70.5066403,115.9571 71.0819328,115.094106 71.0819328,114.518776 C71.1778149,112.792788 71.369579,111.0668 70.9860507,109.4367 C69.8354657,103.779293 68.4931165,98.2177754 67.1507673,92.6562574 C66.1919465,88.7248395 65.4248898,84.7934217 65.4248898,80.7661156 C65.4248898,79.2319037 65.8084181,78.8483508 67.4384136,78.8483508 C74.6295699,78.8483508 81.8207262,78.8483508 89.0118826,78.8483508 Z M88.7242363,75.5881506 C80.6701412,75.5881506 72.7119282,75.5881506 64.6578331,75.5881506 C62.0690168,75.5881506 61.3019602,74.8210446 61.3019602,72.2320621 C61.3019602,71.2731797 61.3019602,70.4101856 61.3019602,69.4513032 C61.3978422,67.9170913 62.1648989,66.9582089 63.7948944,66.7664324 C64.2743048,66.6705442 64.7537152,66.6705442 65.3290077,66.6705442 C80.9577875,66.6705442 96.6824493,66.6705442 112.311229,66.6705442 C112.982404,66.6705442 113.557696,66.6705442 114.228871,66.8623207 C115.475338,67.1499854 116.146513,68.0129796 116.242395,69.2595267 C116.338277,70.5060738 116.242395,71.6567327 116.242395,72.9032798 C116.242395,74.5333799 115.187692,75.5881506 113.557696,75.5881506 C110.681234,75.5881506 107.804771,75.5881506 104.928309,75.5881506 C99.5589119,75.5881506 94.1895152,75.5881506 88.7242363,75.5881506 Z M80.9577875,50.657208 C80.9577875,54.6845141 80.9577875,58.615932 80.9577875,62.6432381 C80.9577875,64.1774499 80.0948487,64.8486676 78.5607354,64.3692264 C78.2730891,64.2733382 77.8895608,63.793897 77.7936787,63.5062322 C77.6977966,63.1226793 77.6977966,62.6432381 77.6977966,62.2596851 C77.6977966,55.1639553 77.6977966,48.1641137 77.6977966,41.0683839 C77.6977966,40.4930545 77.6977966,40.0136133 77.6019145,39.4382838 C77.4101504,38.3835132 76.5472116,37.6164073 75.5883908,37.7122955 C74.6295699,37.8081837 74.0542774,38.4794014 73.9583953,39.6300603 C73.9583953,42.0272663 73.9583953,44.3285841 73.9583953,46.7257901 C73.9583953,51.9996434 73.9583953,57.2734966 73.9583953,62.5473498 C73.9583953,64.0815617 73.4789849,64.5610029 72.0407536,64.4651147 C71.0819328,64.3692264 70.6025224,63.9856734 70.6025224,62.9309028 C70.6025224,54.7804023 70.6025224,46.7257901 70.6025224,38.5752897 C70.6025224,36.0821954 73.1913386,34.0685424 75.9719191,34.2603188 C79.0401458,34.4520953 80.8619054,36.3698601 80.8619054,39.4382838 C80.9577875,43.082037 80.9577875,46.9175666 80.9577875,50.657208 Z M96.3948031,50.657208 C96.3948031,46.9175666 96.4906852,43.1779252 96.3948031,39.4382838 C96.298921,37.3287425 97.0659777,35.6986424 98.9836194,34.8356483 C100.997143,33.8767659 103.010667,33.9726541 104.832427,35.2192012 C106.078894,36.0821954 106.654186,37.2328543 106.654186,38.7670662 C106.654186,46.7257901 106.654186,54.7804023 106.654186,62.7391263 C106.654186,64.2733382 105.503601,65.0404441 104.161252,64.3692264 C103.873606,64.1774499 103.585959,63.6980087 103.490077,63.3144558 C103.394195,62.4514616 103.490077,61.5884674 103.490077,60.7254733 C103.490077,54.2050729 103.490077,47.5887843 103.490077,41.0683839 C103.490077,40.5889427 103.490077,40.1095015 103.394195,39.5341721 C103.202431,38.4794014 102.435374,37.7122955 101.476554,37.8081837 C100.517733,37.904072 99.8465581,38.5752897 99.8465581,39.8218368 C99.8465581,43.4655899 99.8465581,47.1093431 99.8465581,50.7530962 C99.8465581,54.7804023 99.8465581,58.8077085 99.8465581,62.8350146 C99.8465581,64.1774499 99.3671477,64.6568911 98.0247985,64.5610029 C96.8742135,64.4651147 96.4906852,64.1774499 96.4906852,62.9309028 C96.3948031,58.8077085 96.3948031,54.6845141 96.3948031,50.657208 Z" id="Combined-Shape" fill="url(#linearGradient-4)" fill-rule="nonzero"></path>
                        </g>
                    </g>
                </g>
            </g>
        </g>
    </g>
</svg>