<svg xmlns="http://www.w3.org/2000/svg" xmlns:xlink="http://www.w3.org/1999/xlink" width="24" height="24" viewBox="0 0 24 24">
  <defs>
    <path id="app-a" d="M19.9999999,1.99999995 L3.99999995,1.99999995 C2.89999995,1.99999995 1.99999995,2.89999995 1.99999995,3.99999995 L1.99999995,19.9999999 C1.99999995,21.1 2.89999995,22.0000001 3.99999995,21.9999999 L19.9999999,21.9999999 C21.1,22.0000001 22.0000001,21.1 21.9999999,19.9999999 L21.9999999,3.99999995 C22.0000001,2.89999995 21.1,1.99999995 19.9999999,1.99999995 Z M16,12 C16,12.7 15.8,13.4 15.4,14 L13.4,12 L15.4,9.99999999 C15.8,10.6 16,11.3 16,12 Z M7.99999998,12 C7.99999998,11.3 8.19999998,10.6 8.59999998,9.99999999 L10.6,12 L8.59999998,14 C8.19999998,13.4 7.99999998,12.7 7.99999998,12 Z M9.99999999,8.59999998 C10.6,8.19999998 11.3,7.99999998 12,7.99999998 C12.7,7.99999998 13.4,8.19999998 14,8.59999998 L12,10.6 L9.99999999,8.59999998 Z M12,13.4 L14,15.4 C13.4,15.8 12.7,16 12,16 C11.3,16 10.6,15.8 9.99999999,15.4 L12,13.4 Z M15.5,7.09999998 C14.5,6.39999997 13.3,5.99999997 12,5.99999997 C10.7,5.99999997 9.49999999,6.39999997 8.49999998,7.09999998 L5.39999997,3.99999996 L18.6,3.99999996 L15.5,7.09999998 Z M7.09999998,8.49999998 C6.39999997,9.49999999 5.99999997,10.7 5.99999997,12 C5.99999997,13.3 6.39999997,14.5 7.09999998,15.5 L3.99999996,18.6 L3.99999996,5.39999997 L7.09999998,8.49999998 Z M8.49999998,16.9 C9.49999999,17.6 10.7,18 12,18 C13.3,18 14.5,17.6 15.5,16.9 L18.6,20 L5.39999997,20 L8.49999998,16.9 Z M16.9,15.5 C17.6,14.5 18,13.3 18,12 C18,10.7 17.6,9.49999999 16.9,8.49999998 L20,5.39999997 L20,18.6 L16.9,15.5 Z"/>
  </defs>
  <use fill="#492F5C" fill-rule="evenodd" xlink:href="#app-a"/>
</svg>
