<svg xmlns="http://www.w3.org/2000/svg" xmlns:xlink="http://www.w3.org/1999/xlink" width="24" height="24" viewBox="0 0 24 24">
  <defs>
    <path id="bell-a" d="M16.5673916,13.6 C16.2657742,13.2 16.165235,12.7 16.165235,12.3 C16.165235,12.2 16.165235,12.1 16.165235,12 C16.165235,9.8 14.3555306,8 12.1436697,8 C9.93180881,8 8.12210443,9.8 8.12210443,12 C8.12210443,12.1 8.12210443,12.2 8.12210443,12.2 C8.12210443,12.7 8.0215653,13.1 7.7199479,13.5 L6.01078265,16 L18.2765568,16 L16.5673916,13.6 Z M10.1328871,6.3 C10.1328871,6.2 10.1328871,6.1 10.1328871,6 C10.1328871,4.9 11.0377393,4 12.1436697,4 C13.2496002,4 14.1544524,4.9 14.1544524,6 C14.1544524,6.1 14.1544524,6.2 14.1544524,6.3 C16.4668524,7.1 18.1760177,9.3 18.1760177,12 C18.1760177,12.1 18.1760177,12.3 18.1760177,12.4 L19.8851829,14.8 C20.4884177,15.7 20.2873394,16.9 19.3824873,17.6 C19.0808699,17.8 18.6787133,18 18.1760177,18 L6.01078265,18 C4.90485219,18 4,17.1 4,16 C4,15.6 4.10053913,15.2 4.40215653,14.8 L6.11132178,12.4 C6.11132178,12.2 6.11132178,12.1 6.11132178,12 C6.11132178,9.4 7.82048703,7.2 10.1328871,6.3 Z M9.12749575,19 L15.1598437,19 C14.8582263,20.1 13.5512176,21 12.1436697,21 C10.7361219,21 9.42911315,20.2 9.12749575,19 Z"/>
  </defs>
  <use fill="#492F5C" fill-rule="evenodd" xlink:href="#bell-a"/>
</svg>
