<svg height="24" viewBox="0 0 24 24" width="24" xmlns="http://www.w3.org/2000/svg"><path d="m16.5673916 13.6c-.3016174-.4-.4021566-.9-.4021566-1.3 0-.1 0-.2 0-.3 0-2.2-1.8097044-4-4.0215653-4-2.21186089 0-4.02156527 1.8-4.02156527 4v.2c0 .5-.10053913.9-.40215653 1.3l-1.70916525 2.5h12.26577415zm-6.4345045-7.3c0-.1 0-.2 0-.3 0-1.1.9048522-2 2.0107826-2 1.1059305 0 2.0107827.9 2.0107827 2v.3c2.3124.8 4.0215653 3 4.0215653 5.7v.4l1.7091652 2.4c.6032348.9.4021565 2.1-.5026956 2.8-.3016174.2-.703774.4-1.2064696.4h-12.16523505c-1.10593046 0-2.01078265-.9-2.01078265-2 0-.4.10053913-.8.40215653-1.2l1.70916525-2.4c0-.2 0-.3 0-.4 0-2.6 1.70916525-4.8 4.02156532-5.7zm-1.00539135 12.7h6.03234795c-.3016174 1.1-1.6086261 2-3.016174 2-1.4075478 0-2.71455655-.8-3.01617395-2z" fill="#492f5c" fill-rule="evenodd"/></svg>