<svg height="24" viewBox="0 0 24 24" width="24" xmlns="http://www.w3.org/2000/svg"><path d="m12 16c-1.1046085 0-2-.895481-2-2h4c0 1.104519-.895481 2-2 2zm-3.625-4c.75943841 0 1.375.6134225 1.375 1.37h-2.75c0-.7565775.61556159-1.37 1.375-1.37zm6.9981343 0c.758408 0 1.3731344.6148259 1.3731344 1.3731343h-2.7462687c0-.7583084.6147264-1.3731343 1.3731343-1.3731343zm-3.2240597-5.90047011c-.5522807 0-1-.44771929-1-1 0-.5522807.4477193-1.00011695 1-1.00011695s1 .44783625 1 1.00011695c0 .55228071-.4477193 1-1 1zm5.8786732 3.05619431c-1.6652122-.09549082-3.6854247-.1557242-6.0278871-.1557242-2.34257638 0-4.36291652.06023792-6.02790574.15573097-.44113117.02527028-.75289835.26703678-.82728248.55637467-.32094372 1.24775326-.60149994 2.52408896-.78787362 3.68826746-.14626256.9135359-.26633544 2.0090834-.35541675 3.252234-.01061286.1476691.04128161.2863315.17299591.4220112.16482272.1697574.40369934.2743248.68761303.28656 2.30442995.0991949 4.7468904.1615481 7.13786965.1615481 2.3908132 0 4.8333203-.0623538 7.137771-.1615439.2839848-.0122382.5227949-.1167803.6876173-.2865695.1317334-.1356764.1836063-.2742811.1729498-.422578-.0888803-1.2416744-.2089955-2.3373905-.3553887-3.2517426-.1861622-1.163048-.4666143-2.4390471-.7878006-3.68834-.0744061-.2891758-.3862183-.53095904-.8272617-.5562282zm2.7642522.05816413c.2492537.96949727.5948259 2.42809127.8256716 3.87029967.1562189.975722.2825871 2.1281156.3754229 3.4250505.0519403.7227977-.2084577 1.4184081-.7329353 1.958584-.5251741.5409998-1.2483582.8575442-2.0364179.8915055-1.7311443.0745133-4.3896517.1633984-7.2238806.1633984-2.83442786 0-5.49283582-.0888851-7.2238806-.1633984-.7880597-.0339613-1.51124378-.3505057-2.03651741-.8915055-.52447762-.5402674-.78487563-1.2358778-.73293533-1.958584.09293533-1.2969349.21920398-2.4493285.37542289-3.4250505.23104477-1.4432153.57651741-2.9012601.82577114-3.87029967.29701493-1.15532291 1.36189055-1.9811028 2.64985075-2.05488382 1.2640796-.07249947 3.3560199-.15900451 6.14228856-.15900451 2.7861692 0 4.8781094.08650504 6.1423881.15900451 1.2877612.07378102 2.3526368.89956091 2.6497512 2.05488382z" fill="#351d48" fill-rule="evenodd"/></svg>