<svg height="24" viewBox="0 0 24 24" width="24" xmlns="http://www.w3.org/2000/svg"><path d="m6.99999995 13v2h-.5c-2.5 0-4.5-2-4.5-4.5 0-2.50000003 2-4.50000003 4.5-4.50000003h4.99999995c2.5 0 4.5 2 4.5 4.50000003 0 2.5-2 4.5-4.5 4.5h-.5v-2h.5c1.4000001 0 2.5000001-1.1 2.5-2.5.0000001-1.40000001-1.0999999-2.50000002-2.5-2.50000003h-4.99999995c-1.39999998.00000001-2.49999999 1.10000002-2.5 2.50000003.00000001 1.4 1.10000002 2.5 2.5 2.5zm10.00000005-2v-2.00000002h.5c2.5 0 4.5 2.00000002 4.5 4.50000002s-2 4.5-4.5 4.5h-5c-2.50000002 0-4.50000002-2-4.50000002-4.5s2-4.50000002 4.50000002-4.50000002v2.00000002c-1.4 0-2.50000001 1.1-2.50000002 2.5.00000001 1.4 1.10000002 2.5 2.50000002 2.5h5c1.4 0 2.5-1.1 2.5-2.5s-1.1-2.5-2.5-2.5z" fill="#492f5c" fill-rule="evenodd"/></svg>