<svg height="24" viewBox="0 0 24 24" width="24" xmlns="http://www.w3.org/2000/svg"><path d="m22 7.63819035h-2v-3.58793935h-16v14.8643201l3.8-2.2552761 1 1.7427134-3.8 2.2552761c-.9.6150753-2.1.3075377-2.7-.7175878-.2-.3075377-.3-.6150754-.3-1.0251256v-14.8643201c0-1.12763808.9-2.05025105 2-2.05025105h16c1.1 0 2 .92261297 2 2.05025105zm-2 1.53768829c1.1 0 2 .92261296 2 2.05025106v9.7386925c0 .3075376-.1.7175879-.3 1.0251255-.5.922613-1.7 1.3326632-2.7.7175879l-3.8-2.2552762h-3.2c-1.1 0-2-.9226129-2-2.050251v-7.1758787c0-1.1276381.9-2.05025106 2-2.05025106zm0 2.05025106h-8v7.1758787h3.2c.3 0 .7.1025125 1 .3075376l3.8 2.2552762z" fill="#492f5c" fill-rule="evenodd"/></svg>