<svg height="24" viewBox="0 0 24 24" width="24" xmlns="http://www.w3.org/2000/svg"><path d="m12 20c4.4 0 8-3.6 8-8 0-4.40000002-3.6-8.00000004-8-8.00000004-4.40000002 0-8.00000004 3.60000002-8.00000004 8.00000004 0 4.4 3.60000002 8 8.00000004 8zm-.0000001 1.9999999c-5.49999995 0-9.99999995-4.5-9.99999995-10 0-5.49999995 4.5-9.99999995 9.99999995-9.99999995 5.5 0 10 4.5 10 9.99999995 0 5.5-4.5 10-10 10zm3.7000001-10.8999999.9 1.8-4.2 2-1.4-.9v-7.00000002h2v5.40000002z" fill="#492f5c" fill-rule="evenodd"/></svg>