<svg xmlns="http://www.w3.org/2000/svg" xmlns:xlink="http://www.w3.org/1999/xlink" width="24" height="24" viewBox="0 0 24 24">
  <defs>
    <path id="clock-a" d="M12,20 C16.4,20 20,16.4 20,12 C20,7.59999998 16.4,3.99999996 12,3.99999996 C7.59999998,3.99999996 3.99999996,7.59999998 3.99999996,12 C3.99999996,16.4 7.59999998,20 12,20 Z M11.9999999,21.9999999 C6.49999995,21.9999999 1.99999995,17.4999999 1.99999995,11.9999999 C1.99999995,6.49999995 6.49999995,1.99999995 11.9999999,1.99999995 C17.4999999,1.99999995 21.9999999,6.49999995 21.9999999,11.9999999 C21.9999999,17.4999999 17.4999999,21.9999999 11.9999999,21.9999999 Z M15.7,11.1 L16.6,12.9 L12.4,14.9 L11,14 L11,6.99999998 L13,6.99999998 L13,12.4 L15.7,11.1 Z"/>
  </defs>
  <use fill="#492F5C" fill-rule="evenodd" xlink:href="#clock-a"/>
</svg>
