<svg xmlns="http://www.w3.org/2000/svg" width="24" height="24" viewBox="0 0 24 24">
  <path fill="#492F5C" fill-rule="evenodd" d="M18,18 L18,19 C18,20.6568542 16.6568542,22 15,22 L5,22 C3.34314575,22 2,20.6568542 2,19 L2,9 C2,7.34314575 3.34314575,6 5,6 L6,6 L6,5 C6,3.34314575 7.34314575,2 9,2 L19,2 C20.6568542,2 22,3.34314575 22,5 L22,15 C22,16.6568542 20.6568542,18 19,18 L18,18 Z M16,18 L9,18 C7.34314575,18 6,16.6568542 6,15 L6,8 L5,8 C4.44771525,8 4,8.44771525 4,9 L4,19 C4,19.5522847 4.44771525,20 5,20 L15,20 C15.5522847,20 16,19.5522847 16,19 L16,18 Z M9,4 C8.44771525,4 8,4.44771525 8,5 L8,15 C8,15.5522847 8.44771525,16 9,16 L19,16 C19.5522847,16 20,15.5522847 20,15 L20,5 C20,4.44771525 19.5522847,4 19,4 L9,4 Z"/>
</svg>
