<svg height="24" viewBox="0 0 24 24" width="24" xmlns="http://www.w3.org/2000/svg"><path d="m18 18v1c0 1.6568542-1.3431458 3-3 3h-10c-1.65685425 0-3-1.3431458-3-3v-10c0-1.65685425 1.34314575-3 3-3h1v-1c0-1.65685425 1.34314575-3 3-3h10c1.6568542 0 3 1.34314575 3 3v10c0 1.6568542-1.3431458 3-3 3zm-2 0h-7c-1.65685425 0-3-1.3431458-3-3v-7h-1c-.55228475 0-1 .44771525-1 1v10c0 .5522847.44771525 1 1 1h10c.5522847 0 1-.4477153 1-1zm-7-14c-.55228475 0-1 .44771525-1 1v10c0 .5522847.44771525 1 1 1h10c.5522847 0 1-.4477153 1-1v-10c0-.55228475-.4477153-1-1-1z" fill="#492f5c" fill-rule="evenodd"/></svg>