<svg xmlns="http://www.w3.org/2000/svg" xmlns:xlink="http://www.w3.org/1999/xlink" width="24" height="24" viewBox="0 0 24 24">
  <defs>
    <path id="eye-a" d="M11.999,9 C13.655,9 14.999,10.344 14.999,12 C14.999,13.657 13.655,15 11.999,15 C10.342,15 8.999,13.657 8.999,12 C8.999,10.344 10.342,9 11.999,9 Z M17.4658,15.5352 L21.0018,11.9992 L17.4658,8.4652 C16.5218,7.5202 15.2668,7.0012 13.9318,7.0012 L10.0708,7.0002 C8.7358,7.0002 7.4798,7.5192 6.5348,8.4642 L2.9988,12.0002 L6.5348,15.5362 C7.4798,16.4802 8.7358,17.0002 10.0708,17.0002 L13.9308,16.9992 C15.2478,16.9992 16.5358,16.4662 17.4658,15.5352 Z M22.4148,10.5862 C23.1948,11.3652 23.1948,12.6352 22.4148,13.4142 L18.8798,16.9492 C17.5778,18.2522 15.7748,18.9992 13.9318,18.9992 L11.9998,19.0002 L10.0708,19.0002 C8.2008,19.0002 6.4428,18.2722 5.1208,16.9502 L1.5848,13.4142 C0.8048,12.6352 0.8048,11.3652 1.5848,10.5862 L5.1208,7.0502 C6.4428,5.7272 8.2008,5.0002 10.0708,5.0002 L13.9328,5.0012 C15.8008,5.0012 17.5588,5.7282 18.8798,7.0512 L22.4148,10.5862 Z"/>
  </defs>
  <use fill="#492F5C" fill-rule="evenodd" xlink:href="#eye-a"/>
</svg>
