<svg height="24" viewBox="0 0 24 24" width="24" xmlns="http://www.w3.org/2000/svg"><path d="m11.999 9c1.656 0 3 1.344 3 3 0 1.657-1.344 3-3 3-1.657 0-3-1.343-3-3 0-1.656 1.343-3 3-3zm5.4668 6.5352 3.536-3.536-3.536-3.534c-.944-.945-2.199-1.464-3.534-1.464l-3.861-.001c-1.335 0-2.591.519-3.536 1.464l-3.536 3.536 3.536 3.536c.945.944 2.201 1.464 3.536 1.464l3.86-.001c1.317 0 2.605-.533 3.535-1.464zm4.949-4.949c.78.779.78 2.049 0 2.828l-3.535 3.535c-1.302 1.303-3.105 2.05-4.948 2.05l-1.932.001h-1.929c-1.87 0-3.628-.728-4.95-2.05l-3.536-3.536c-.78-.779-.78-2.049 0-2.828l3.536-3.536c1.322-1.323 3.08-2.05 4.95-2.05l3.862.001c1.868 0 3.626.727 4.947 2.05z" fill="#492f5c" fill-rule="evenodd"/></svg>