<svg xmlns="http://www.w3.org/2000/svg" xmlns:xlink="http://www.w3.org/1999/xlink" width="24" height="24" viewBox="0 0 24 24">
  <defs>
    <path id="file-zip-a" d="M18.4705882,6 L16.4117647,6 L16.4117647,4 L4.05882348,4 L4.05882348,20 L16.4117647,20 L16.4117647,18 L18.4705882,18 L18.4705882,20 C18.4705882,21.1 17.5441176,22 16.4117647,22 L4.05882348,22 C2.92647054,22 1.99999995,21.1 1.99999995,20 L1.99999995,4 C1.99999995,2.9 2.92647054,2 4.05882348,2 L16.4117647,2 C17.5441176,2 18.4705882,2.9 18.4705882,4 L18.4705882,6 Z M10.6625,10.625 L8.45,10.625 L8.45,9.35 L12.5375,9.35 L12.5375,10.625 L10.2125,13.325 L12.6125,13.325 L12.6125,14.6 L8.3375,14.6 L8.3375,13.325 L10.6625,10.625 Z M14.05,14.6 L14.05,9.35 L15.475,9.35 L15.475,14.6 L14.05,14.6 Z M17.175,9.35 L19.5375,9.35 C20.7,9.35 21.4875,10.1375 21.4875,11.1875 C21.4875,12.2375 20.7,13.025 19.5375,13.025 L18.6,13.025 L18.6,14.6 L17.175,14.6 L17.175,9.35 Z M19.4625,10.625 L18.6,10.625 L18.6,11.75 L19.4625,11.75 C19.8,11.75 20.0625,11.4875 20.0625,11.1875 C20.0625,10.8875 19.8,10.625 19.4625,10.625 Z"/>
  </defs>
  <use fill="#492F5C" fill-rule="evenodd" xlink:href="#file-zip-a"/>
</svg>
