<svg height="24" viewBox="0 0 24 24" width="24" xmlns="http://www.w3.org/2000/svg"><path d="m18.4705882 6h-2.0588235v-2h-12.35294122v16h12.35294122v-2h2.0588235v2c0 1.1-.9264706 2-2.0588235 2h-12.35294122c-1.13235294 0-2.05882353-.9-2.05882353-2v-16c0-1.1.92647059-2 2.05882353-2h12.35294122c1.1323529 0 2.0588235.9 2.0588235 2zm-12.0305882 4.15h1.7325c.8525 0 1.43.5775 1.43 1.3475s-.5775 1.3475-1.43 1.3475h-.6875v1.155h-1.045zm1.6775.935h-.6325v.825h.6325c.2475 0 .44-.1925.44-.4125s-.1925-.4125-.44-.4125zm4.945 2.915h-2.75v-3.85h1.045v2.915h1.705zm.6 0v-3.85h1.045v3.85zm3.57-1.1825c0-.5225-1.7875-.2475-1.7875-1.595 0-.605.5775-1.1825 1.4575-1.1825.935 0 1.3475.55 1.3475.55l-.605.6325s-.253-.3025-.6325-.3025c-.2475 0-.4125.165-.4125.33 0 .5225 1.7875.2475 1.7875 1.595 0 .6875-.5775 1.265-1.54 1.265-1.0175 0-1.54-.66-1.54-.66l.605-.6325s.33.4125.825.4125c.3025 0 .495-.1925.495-.4125zm1.48-2.6675h3.19v.935h-1.0725v2.915h-1.045v-2.915h-1.0725z" fill="#492f5c" fill-rule="evenodd"/></svg>