<svg height="24" viewBox="0 0 24 24" width="24" xmlns="http://www.w3.org/2000/svg"><path d="m18.4705882 6h-2.0588235v-2h-12.35294122v16h12.35294122v-2h2.0588235v2c0 1.1-.9264706 2-2.0588235 2h-12.35294122c-1.13235294 0-2.05882353-.9-2.05882353-2v-16c0-1.1.92647059-2 2.05882353-2h12.35294122c1.1323529 0 2.0588235.9 2.0588235 2zm-7.8080882 4.625h-2.2125v-1.275h4.0875v1.275l-2.325 2.7h2.4v1.275h-4.275v-1.275zm3.3875 3.975v-5.25h1.425v5.25zm3.125-5.25h2.3625c1.1625 0 1.95.7875 1.95 1.8375s-.7875 1.8375-1.95 1.8375h-.9375v1.575h-1.425zm2.2875 1.275h-.8625v1.125h.8625c.3375 0 .6-.2625.6-.5625s-.2625-.5625-.6-.5625z" fill="#492f5c" fill-rule="evenodd"/></svg>