<svg height="24" viewBox="0 0 24 24" width="24" xmlns="http://www.w3.org/2000/svg"><path d="m18.7999999 6v-2c0-1.1-.945-2-2.1-2h-12.59999995c-1.155 0-2.1.9-2.1 2v16c0 1.1.945 2 2.1 2h12.59999995c1.155 0 2.1-.9 2.1-2v-2h-2.1v2h-12.59999995v-16h12.59999995v2zm-12.59999995 3.4h2.625c1.25999995 0 2.20499995.8 2.20499995 2s-.84 2-2.20499995 2h-1.05v1.6h-1.575zm2.52 1.4h-.945v1.2h.945c.42 0 .63-.3.63-.6.105-.4-.21-.6-.63-.6zm3.35999995-1.4h2.31c1.785 0 3.15 1.2 3.15 2.8s-1.26 2.8-3.15 2.8h-2.31zm2.31 1.4h-.63v2.9h.63c.84 0 1.47-.6 1.47-1.4s-.63-1.5-1.47-1.5zm4.095-1.4h4.515v1.4h-2.94v.9h2.31v1.3h-2.31v2h-1.575z" fill="#492f5c" fill-rule="evenodd"/></svg>