<svg height="24" viewBox="0 0 24 24" width="24" xmlns="http://www.w3.org/2000/svg"><path d="m6.11764701 9.7h1.95588235c1.54411765 0 2.77941174 1.1 2.77941174 2.5s-1.13235291 2.5-2.77941174 2.5h-1.95588235zm1.95588235 1.2h-.51470588v2.6h.61764706c.72058823 0 1.33823529-.5 1.33823529-1.3s-.61764706-1.3-1.44117647-1.3zm4.83823534 1.3c0 .8.617647 1.4 1.4411764 1.4s1.4411765-.6 1.4411765-1.4-.6176471-1.4-1.4411765-1.4-1.4411764.6-1.4411764 1.4zm4.3235294 0c0 1.4-1.2352941 2.7-2.882353 2.7-1.6470588 0-2.8823529-1.2-2.8823529-2.7s1.2352941-2.7 2.8823529-2.7c1.6470589 0 2.882353 1.3 2.882353 2.7zm2.0588235 0c0 .8.6176471 1.4 1.4411765 1.4.9264706 0 1.4411764-.6 1.4411764-.6l.8235295.9s-.7205883 1-2.2647059 1c-1.6470589 0-2.882353-1.2-2.882353-2.7s1.2352941-2.7 2.882353-2.7c1.4411764 0 2.1617647 1 2.1617647 1l-.8235294.9s-.5147059-.6-1.3382353-.6-1.4411765.6-1.4411765 1.4zm-.8235294-6.2v-2c0-1.1-.9264706-2-2.0588235-2h-12.35294122c-1.13235294 0-2.05882353.9-2.05882353 2v16c0 1.1.92647059 2 2.05882353 2h12.35294122c1.1323529 0 2.0588235-.9 2.0588235-2v-2h-2.0588235v2h-12.35294122v-16h12.35294122v2z" fill="#492f5c" fill-rule="evenodd"/></svg>