<svg xmlns="http://www.w3.org/2000/svg" xmlns:xlink="http://www.w3.org/1999/xlink" width="24" height="24" viewBox="0 0 24 24">
  <defs>
    <path id="filter-a" d="M10.7227,5 L20.9997,5 L20.9997,7 L10.7227,7 C10.3757,7.596 9.7387,8 8.9997,8 C8.2617,8 7.6237,7.596 7.2777,7 L2.9997,7 L2.9997,5 L7.2777,5 C7.6237,4.404 8.2617,4 8.9997,4 C9.7387,4 10.3757,4.404 10.7227,5 Z M15,10 C15.738,10 16.376,10.404 16.723,11 L21,11 L21,13 L16.723,13 C16.376,13.596 15.738,14 15,14 C14.262,14 13.624,13.596 13.277,13 L3,13 L3,11 L13.277,11 C13.624,10.404 14.262,10 15,10 Z M9,16.125 C9.687,16.125 10.293,16.472 10.652,17 L21,17 L21,19 L10.79,19 C10.465,19.664 9.789,20.125 9,20.125 C8.211,20.125 7.535,19.664 7.21,19 L3,19 L3,17 L7.348,17 C7.707,16.472 8.313,16.125 9,16.125 Z"/>
  </defs>
  <use fill="#492F5C" fill-rule="evenodd" xlink:href="#filter-a"/>
</svg>
