<svg height="24" viewBox="0 0 24 24" width="24" xmlns="http://www.w3.org/2000/svg"><path d="m10.7227 5h10.277v2h-10.277c-.347.596-.984 1-1.723 1-.738 0-1.376-.404-1.722-1h-4.278v-2h4.278c.346-.596.984-1 1.722-1 .739 0 1.376.404 1.723 1zm4.2773 5c.738 0 1.376.404 1.723 1h4.277v2h-4.277c-.347.596-.985 1-1.723 1s-1.376-.404-1.723-1h-10.277v-2h10.277c.347-.596.985-1 1.723-1zm-6 6.125c.687 0 1.293.347 1.652.875h10.348v2h-10.21c-.325.664-1.001 1.125-1.79 1.125s-1.465-.461-1.79-1.125h-4.21v-2h4.348c.359-.528.965-.875 1.652-.875z" fill="#492f5c" fill-rule="evenodd"/></svg>