<svg height="24" viewBox="0 0 24 24" width="24" xmlns="http://www.w3.org/2000/svg"><path d="m11.9999999 1.99999995c-5.49999995 0-9.99999995 4.5-9.99999995 9.99999995 0 5.5 4.5 10 9.99999995 10 5.5 0 10-4.5 10-10 0-5.49999995-4.5-9.99999995-10-9.99999995zm6.9000001 6.00000003h-1.4c-.3-1.00000001-.6-1.80000001-1-2.60000001 1 .7 1.8 1.6 2.4 2.60000001zm1.1 4.00000002c0 .7-.1 1.4-.3 2h-1.9c.1-.6.1-1.3.1-2s0-1.4-.1-2.00000001h1.9c.2.60000001.3 1.30000001.3 2.00000001zm-16.00000004 0c0-.7.1-1.4.3-2.00000001h1.90000001c-.2.60000001-.2 1.30000001-.20000001 2.00000001.00000001.7.00000001 1.4.10000001 2h-1.80000001c-.2-.6-.3-1.3-.3-2zm4.00000002 0c0-.7.1-1.4.1-2.00000001h2.90000002v4.00000001h-2.90000002c0-.6-.1-1.3-.1-2zm5.00000002-7.70000004c1 .6 1.9 1.90000001 2.4 3.70000002h-2.4zm-2 0v3.70000002h-2.40000002c.50000001-1.80000001 1.40000001-3.10000002 2.40000002-3.70000002zm0 11.70000004v3.7c-1.00000001-.6-1.90000001-1.9-2.40000002-3.7zm2 3.7v-3.7h2.4c-.5 1.8-1.4 3.1-2.4 3.7zm0-5.7v-4.00000001h2.9c.1.60000001.1 1.30000001.1 2.00000001s-.1 1.4-.1 2zm-5.50000002-8.60000003c-.4.8-.70000001 1.6-1.00000001 2.60000001h-1.4c.6-1.00000001 1.4-1.90000001 2.40000001-2.60000001zm-2.40000001 10.60000003h1.4c.3 1 .60000001 1.8 1.00000001 2.6-1.00000001-.7-1.80000001-1.6-2.40000001-2.6zm11.40000003 2.6c.4-.8.8-1.7 1-2.6h1.4c-.6 1-1.4 1.9-2.4 2.6z" fill="#492f5c" fill-rule="evenodd"/></svg>