<svg height="24" viewBox="0 0 24 24" width="24" xmlns="http://www.w3.org/2000/svg"><path d="m6.6 9.36318408c.8.59701492 1.4 1.49253732 1.4 2.58706472 0 1.0945273-.6 1.9900497-1.4 2.5870646.1.199005.2.39801.4.597015.5.7960199 1.2 1.3930348 1.9 1.8905472l.6.2985075c.5-.7960199 1.4-1.3930348 2.5-1.3930348s2 .5970149 2.6 1.3930348c.2-.0995025.4-.199005.5-.2985075.8-.4975124 1.4-1.0945273 1.9-1.8905472.1-.199005.3-.4975125.4-.6965175-.8-.4975124-1.4-1.3930348-1.4-2.4875621 0-1.0945274.6-1.9900498 1.4-2.58706472-.1-.19900498-.2-.39800995-.4-.59701493-.5-.69651741-1.1-1.39303482-1.8-1.79104477-.2-.09950249-.4-.29850746-.7-.39800995-.5.7960199-1.4 1.39303482-2.5 1.39303482s-2-.59701492-2.6-1.39303482c-.2.09950249-.4.19900497-.6.29850746-.8.59701493-1.5 1.29353234-2 2.08955224-.1.19900497-.2.29850746-.2.39800995zm-2-.39800995c.1-.29850746.3-.69651741.5-.99502488.6-1.09452736 1.6-2.08955224 2.7-2.78606965.3-.19900497.8-.39800995 1.2-.59701492.2-1.49253732 1.5-2.58706468 3-2.58706468s2.8 1.09452736 3 2.58706468c.5.19900497.9.39800995 1.3.69651741 1 .59701492 1.8 1.39303483 2.4 2.3880597.3.39800995.5.89552239.7 1.29353234 1.5.19900497 2.6 1.49253727 2.6 2.98507467 0 1.4925373-1.1 2.7860696-2.6 2.9850746-.2.4975124-.4.9950249-.7 1.3930348-.7.9950249-1.6 1.8905473-2.6 2.4875622-.4.199005-.7.3980099-1.1.5970149-.2 1.4925373-1.5 2.5870647-3 2.5870647s-2.8-1.0945274-3-2.5870647c-.4-.199005-.8-.3980099-1.2-.5970149-1-.5970149-1.9-1.4925373-2.6-2.4875622-.2-.4975124-.4-.9950249-.6-1.3930348-1.5-.199005-2.6-1.4925373-2.6-2.9850746 0-1.4925374 1.1-2.7860697 2.6-2.98507467zm7.4-2.98507463c.6 0 1-.39800995 1-.99502487 0-.59701493-.4-.99502488-1-.99502488s-1 .39800995-1 .99502488c0 .59701492.4.99502487 1 .99502487zm7 6.9651741c.6 0 1-.3980099 1-.9950248 0-.597015-.4-.9950249-1-.9950249s-1 .3980099-1 .9950249c0 .5970149.4.9950248 1 .9950248zm-7 6.9651742c.6 0 1-.39801 1-.9950249s-.4-.9950249-1-.9950249-1 .39801-1 .9950249.4.9950249 1 .9950249zm-7-6.9651742c.6 0 1-.3980099 1-.9950248 0-.597015-.4-.9950249-1-.9950249s-1 .3980099-1 .9950249c0 .5970149.4.9950248 1 .9950248z" fill="#492f5c" fill-rule="evenodd"/></svg>