<svg xmlns="http://www.w3.org/2000/svg" width="24" height="24" viewBox="0 0 24 24">
  <path fill="#492F5C" fill-rule="evenodd" d="M16.4999999,2.49999995 C14.8,2.49999995 13.1,3.29999996 12,4.59999996 C10.9,3.29999996 9.19999999,2.49999995 7.49999995,2.49999995 C4.39999996,2.49999995 1.99999995,4.89999996 1.99999995,7.99999995 C1.99999995,11.8 5.39999997,14.9 10.6,19.5 L12,20.9 L13.4,19.5 C18.6,14.9 22.0000001,11.8 21.9999999,7.99999995 C22.0000001,4.89999996 19.6,2.49999995 16.4999999,2.49999995 Z M12.1,18.1 L12,18.1 L11.9,18 C7.09999998,13.7 3.99999996,10.9 3.99999996,7.99999996 C3.99999996,5.99999996 5.49999996,4.49999996 7.49999996,4.49999996 C8.99999996,4.49999996 10.5,5.49999996 11.1,6.89999997 L13,6.89999997 C13.5,5.49999996 15,4.49999996 16.5,4.49999996 C18.5,4.49999996 20,5.99999996 20,7.99999996 C20,10.9 16.9,13.7 12.1,18.1 Z"/>
</svg>
