<svg height="24" viewBox="0 0 24 24" width="24" xmlns="http://www.w3.org/2000/svg"><path d="m16.4999999 2.49999995c-1.6999999 0-3.3999999.80000001-4.4999999 2.10000001-1.1-1.3-2.80000001-2.10000001-4.50000005-2.10000001-3.09999999 0-5.5 2.40000001-5.5 5.5 0 3.80000005 3.40000002 6.90000005 8.60000005 11.50000005l1.4 1.4 1.4-1.4c5.2-4.6 8.6000001-7.7 8.5999999-11.50000005.0000002-3.09999999-2.3999999-5.5-5.5-5.5zm-4.3999999 15.60000005h-.1l-.1-.1c-4.80000002-4.3-7.90000004-7.1-7.90000004-10.00000004 0-2 1.5-3.5 3.5-3.5 1.5 0 3.00000004 1 3.60000004 2.40000001h1.9c.5-1.40000001 2-2.40000001 3.5-2.40000001 2 0 3.5 1.5 3.5 3.5 0 2.90000004-3.1 5.70000004-7.9 10.10000004z" fill="#492f5c" fill-rule="evenodd"/></svg>