<svg height="24" viewBox="0 0 24 24" width="24" xmlns="http://www.w3.org/2000/svg"><path d="m19.9999999 3.99999996h-15.99999995c-1.1 0-2 .9-2 2v12.00000004c0 1.1.9 2 2 2h15.99999995c1.1000001 0 2.0000002-.9 2-2v-12.00000004c.0000002-1.1-.8999999-2-2-2zm-13.79999993 14.00000004 5.20000003-5.2 5.2 5.2zm13.80000003 0h-.5l-1.8-1.8 2.3-2.2zm0-6.8-3.8 3.6-4.8-4.80000001-7.40000004 7.40000001v-11.40000003h16.00000004zm-4 .8c1.1045695 0 2-.8954305 2-2.00000002 0-1.1045695-.8954305-2-2-2s-2 .8954305-2 2c0 1.10456952.8954305 2.00000002 2 2.00000002z" fill="#492f5c" fill-rule="evenodd"/></svg>