<svg height="24" viewBox="0 0 24 24" width="24" xmlns="http://www.w3.org/2000/svg"><path d="m18 1.99999995h-12.00000004c-1.1 0-2 .9-2 2v15.99999995c0 1.1000001.9 2.0000002 2 2l3-2 3.00000004 2 3-2 3 2c1.1.0000002 2-.8999999 2-2v-15.99999995c0-1.1-.9-2-2-2zm0 17.60000005-3-2-3 2-3.00000002-2-3.00000001 2v-15.60000004h12.00000003zm-10.00000002-13.60000003h8.00000002v2h-8.00000002zm0 3.00000001h6.00000002v2.00000002h-6.00000002zm0 3.00000002h8.00000002v2h-8.00000002z" fill="#492f5c" fill-rule="evenodd"/></svg>