<svg height="24" viewBox="0 0 24 24" width="24" xmlns="http://www.w3.org/2000/svg"><path d="m19.2365638 18.4900171c-.0283528.1065675-.1134113.191626-.2209565.2209565l-2.8763455.7704148c-.1085228.0273751-.2219342-.0019554-.3011265-.0811477l-2.1059308-2.1059308c-.0782146-.0782147-.1085228-.1935813-.08017-.3001489l.7977899-2.9809576c.0293305-.1065675.1134113-.1906483.2209565-.2199788l2.8763455-.7713925c.0273751-.0068438.0537726-.0107545.0801701-.0107545.0821254 0 .1622955.0332412.2209565.0919023l2.1059307 2.1069084c.0782147.0782147.1095006.1926037.0801701.3001489zm-.0058661-6.769482c-.5709672-.5729227-1.4127529-.7968122-2.1890338-.5866102l-2.8753678.7704147c-.0175983.0048884-.0332412.015643-.0508395.0215091l-9.42682639-9.4258487-1.38244477 1.38244477 1.39906539 1.39808771-2.70525083 2.70525083 1.38244477 1.38244477 1.84488916-1.84586685 1.33649364 1.33649364-1.76809302 1.83091073 1.38342246 1.3824448 2.62649931-2.68931706 3.86478368 3.86380606c-.0361743.0870138-.0840808.1681616-.1085229.2600638l-.7987675 2.9809577c-.2082467.7792139.0156429 1.6180665.5866102 2.1890338l2.104953 2.104953c.4301808.4301809 1.0128803.664825 1.6063344.664825.194559 0 .3910734-.0254198.5846548-.0772371l2.8763455-.7704147c.7801916-.2092243 1.394177-.8232097 1.6034013-1.6024236l.7977899-2.97998c.2092243-.7811693-.0166206-1.6209996-.5875879-2.1909892z" fill="#492f5c" fill-rule="evenodd"/></svg>