<svg xmlns="http://www.w3.org/2000/svg" xmlns:xlink="http://www.w3.org/1999/xlink" width="24" height="24" viewBox="0 0 24 24">
  <defs>
    <path id="mail-a" d="M19.9999999,3.99999996 L3.99999995,3.99999996 C2.89999995,3.99999996 1.99999995,4.89999996 1.99999995,5.99999996 L1.99999995,18 C1.99999995,19.1 2.89999995,20 3.99999995,20 L19.9999999,20 C21.1,20 22.0000001,19.1 21.9999999,18 L21.9999999,5.99999996 C22.0000001,4.89999996 21.1,3.99999996 19.9999999,3.99999996 Z M16.4,13 L15,14.4 L18.6,18 L5.29999997,18 L8.89999998,14.4 L7.49999998,13 L3.99999996,16.5 L3.99999996,8.09999998 L10.1,13.2 C11.2,14.1 12.8,14.1 13.9,13.2 L19.9,8.19999998 L19.9,16.6 L16.4,13 Z M4.59999996,5.99999997 L19.6,5.99999997 L12.8,11.7 C12.3,12 11.8,12 11.4,11.7 L4.59999996,5.99999997 Z"/>
  </defs>
  <use fill="#492F5C" fill-rule="evenodd" xlink:href="#mail-a"/>
</svg>
