<svg height="24" viewBox="0 0 24 24" width="24" xmlns="http://www.w3.org/2000/svg"><path d="m19.9999999 3.99999996h-15.99999995c-1.1 0-2 .9-2 2v12.00000004c0 1.1.9 2 2 2h15.99999995c1.1000001 0 2.0000002-.9 2-2v-12.00000004c.0000002-1.1-.8999999-2-2-2zm-3.5999999 9.00000004-1.4 1.4 3.6 3.6h-13.30000003l3.60000001-3.6-1.4-1.4-3.50000002 3.5v-8.40000002l6.10000004 5.10000002c1.1.9 2.7.9 3.8 0l6-5.00000002v8.40000002zm-11.80000004-7.00000003h15.00000004l-6.8 5.70000003c-.5.3-1 .3-1.4 0z" fill="#492f5c" fill-rule="evenodd"/></svg>