<svg height="24" viewBox="0 0 24 24" width="24" xmlns="http://www.w3.org/2000/svg"><path d="m2.99999995 1.99999995h2c.60000002 0 1.00000002.4 1 1v2c.00000002.60000002-.39999998 1.00000002-1 1h-2c-.6.00000002-1-.39999998-1-1v-2c0-.6.4-1 1-1zm8.00000005 0h2c.6 0 1 .4 1 1v2c0 .60000002-.4 1.00000002-1 1h-2c-.6.00000002-1.00000001-.39999998-1.00000001-1v-2c0-.6.40000001-1 1.00000001-1zm8 0h2c.6 0 1.0000001.4 1 1v2c.0000001.60000002-.4 1.00000002-1 1h-2c-.6.00000002-1-.39999998-1-1v-2c0-.6.4-1 1-1zm-16.00000005 8.00000004h2c.60000002 0 1.00000002.40000001 1 1.00000001v2c.00000002.6-.39999998 1-1 1h-2c-.6 0-1-.4-1-1v-2c0-.6.4-1.00000001 1-1.00000001zm8.00000005 0h2c.6 0 1 .40000001 1 1.00000001v2c0 .6-.4 1-1 1h-2c-.6 0-1.00000001-.4-1.00000001-1v-2c0-.6.40000001-1.00000001 1.00000001-1.00000001zm8 0h2c.6 0 1.0000001.40000001 1 1.00000001v2c.0000001.6-.4 1-1 1h-2c-.6 0-1-.4-1-1v-2c0-.6.4-1.00000001 1-1.00000001zm-16.00000005 8.00000001h2c.60000002 0 1.00000002.4 1 1v2c.00000002.6-.39999998 1.0000001-1 1h-2c-.6.0000001-1-.4-1-1v-2c0-.6.4-1 1-1zm8.00000005 0h2c.6 0 1 .4 1 1v2c0 .6-.4 1.0000001-1 1h-2c-.6.0000001-1.00000001-.4-1.00000001-1v-2c0-.6.40000001-1 1.00000001-1zm8 0h2c.6 0 1.0000001.4 1 1v2c.0000001.6-.4 1.0000001-1 1h-2c-.6.0000001-1-.4-1-1v-2c0-.6.4-1 1-1z" fill="#492f5c" fill-rule="evenodd"/></svg>