<svg xmlns="http://www.w3.org/2000/svg" xmlns:xlink="http://www.w3.org/1999/xlink" width="24" height="24" viewBox="0 0 24 24">
  <defs>
    <path id="message-a" d="M3.99999996,5.00000001 L3.99999996,19.5 L7.79999998,17.3000001 C8.09999998,17.1000001 8.49999996,17 8.79999998,17.0000001 L20,17 L20,5.00000001 L3.99999996,5.00000001 Z M3.99999995,3 L19.9999999,3 C21.1,3 22.0000001,3.9 21.9999999,5 L21.9999999,17 C22.0000001,18.1000001 21.1,19.0000001 19.9999999,19 L8.79999998,19.0000001 L4.99999996,21.2000001 C3.99999996,21.8000001 2.79999995,21.4000001 2.29999995,20.5000001 C2.09999995,20.2000001 1.99999995,19.8000001 1.99999995,19.5 L1.99999995,5 C1.99999995,3.9 2.89999995,3 3.99999995,3 Z M5.99999997,7.00000002 L18,7.00000002 L18,9.00000002 L5.99999997,9.00000002 L5.99999997,7.00000002 Z M5.99999997,10 L15,10 L15,12 L5.99999997,12 L5.99999997,10 Z M5.99999997,13.0000001 L18,13.0000001 L18,15.0000001 L5.99999997,15.0000001 L5.99999997,13.0000001 Z"/>
  </defs>
  <use fill="#492F5C" fill-rule="evenodd" xlink:href="#message-a"/>
</svg>
