<svg height="24" viewBox="0 0 24 24" width="24" xmlns="http://www.w3.org/2000/svg"><path d="m3.99999996 5.00000001v14.49999999l3.80000002-2.1999999c.3-.2.69999998-.3000001 1-.3l11.20000002-.0000001v-11.99999999zm-.00000001-2.00000001h15.99999995c1.1000001 0 2.0000002.9 2 2v12c.0000002 1.1000001-.8999999 2.0000001-2 2l-11.19999992.0000001-3.80000002 2.2c-1 .6-2.20000001.2-2.70000001-.7-.2-.3-.3-.7-.3-1.0000001v-14.5c0-1.1.9-2 2-2zm2.00000002 4.00000002h12.00000003v2h-12.00000003zm0 2.99999998h9.00000003v2h-9.00000003zm0 3.0000001h12.00000003v2h-12.00000003z" fill="#492f5c" fill-rule="evenodd"/></svg>