<svg xmlns="http://www.w3.org/2000/svg" xmlns:xlink="http://www.w3.org/1999/xlink" width="24" height="24" viewBox="0 0 24 24">
  <defs>
    <path id="minus-remove-a" d="M11.9999999,1.99999995 C6.49999995,1.99999995 1.99999995,6.49999995 1.99999995,11.9999999 C1.99999995,17.4999999 6.49999995,21.9999999 11.9999999,21.9999999 C17.4999999,21.9999999 21.9999999,17.4999999 21.9999999,11.9999999 C21.9999999,6.49999995 17.4999999,1.99999995 11.9999999,1.99999995 Z M12,20 C7.59999998,20 3.99999996,16.4 3.99999996,12 C3.99999996,7.59999998 7.59999998,3.99999996 12,3.99999996 C16.4,3.99999996 20,7.59999998 20,12 C20,16.4 16.4,20 12,20 Z M6.99999997,11 L17,11 L17,13 L6.99999997,13 L6.99999997,11 Z"/>
  </defs>
  <use fill="#492F5C" fill-rule="evenodd" xlink:href="#minus-remove-a"/>
</svg>
