<svg xmlns="http://www.w3.org/2000/svg" xmlns:xlink="http://www.w3.org/1999/xlink" width="24" height="24" viewBox="0 0 24 24">
  <defs>
    <path id="more-a" d="M3.99999995,14 C2.89999995,14 1.99999995,13.1 1.99999995,12 C1.99999995,10.9 2.89999995,9.99999999 3.99999995,9.99999999 C5.09999997,9.99999999 5.99999997,10.9 5.99999995,12 C5.99999997,13.1 5.09999997,14 3.99999995,14 Z M12,14 C10.9,14 9.99999999,13.1 9.99999999,12 C9.99999999,10.9 10.9,9.99999999 12,9.99999999 C13.1,9.99999999 14,10.9 14,12 C14,13.1 13.1,14 12,14 Z M20,14 C18.9,14 18,13.1 18,12 C18,10.9 18.9,9.99999999 20,9.99999999 C21.1,9.99999999 22.0000001,10.9 22,12 C22.0000001,13.1 21.1,14 20,14 Z"/>
  </defs>
  <use fill="#492F5C" fill-rule="evenodd" xlink:href="#more-a"/>
</svg>
