<svg height="24" viewBox="0 0 24 24" width="24" xmlns="http://www.w3.org/2000/svg"><path d="m20 15.6327681-5.061-3.036c.04-.193.061-.393.061-.598s-.021-.404-.061-.597l5.061-3.03700002zm-16 0v-7.26800002l5.061 3.03700002c-.04.193-.061.392-.061.597s.021.405.061.598zm17.228-9.43600002c-.476-.269-1.063-.262-1.535.02l-5.795 3.477c-.518-.427-1.173-.695-1.898-.695s-1.38.268-1.898.696l-5.796-3.478c-.468-.281-1.056-.29-1.534-.02-.476.271-.772.779-.772 1.327v8.95100002c0 .548.296 1.055.772 1.326.233.132.492.197.75.197.272 0 .543-.072.785-.217l5.795-3.476c.518.427 1.173.694 1.898.694s1.38-.267 1.898-.695l5.796 3.477c.241.145.511.217.784.217.258 0 .517-.065.75-.197.476-.271.772-.778.772-1.326v-8.95100002c0-.548-.296-1.056-.772-1.327z" fill="#492f5c" fill-rule="evenodd"/></svg>