<svg xmlns="http://www.w3.org/2000/svg" width="24" height="24" viewBox="0 0 24 24">
  <path fill="#492F5C" fill-rule="evenodd" d="M16.8,20 C15.0326888,20 13.6,18.5673112 13.6,16.8 C13.6,15.0326888 15.0326888,13.6 16.8,13.6 C18.5673112,13.6 20,15.0326888 20,16.8 C20,18.5673112 18.5673112,20 16.8,20 Z M7.2,10.4 C5.4326888,10.4 4,8.9673112 4,7.2 C4,5.4326888 5.4326888,4 7.2,4 C8.9673112,4 10.4,5.4326888 10.4,7.2 C10.4,8.9673112 8.9673112,10.4 7.2,10.4 Z M16.8,18 C17.4627417,18 18,17.4627417 18,16.8 C18,16.1372583 17.4627417,15.6 16.8,15.6 C16.1372583,15.6 15.6,16.1372583 15.6,16.8 C15.6,17.4627417 16.1372583,18 16.8,18 Z M7.2,8.4 C7.8627417,8.4 8.4,7.8627417 8.4,7.2 C8.4,6.5372583 7.8627417,6 7.2,6 C6.5372583,6 6,6.5372583 6,7.2 C6,7.8627417 6.5372583,8.4 7.2,8.4 Z M5.49060897,19.9236046 L4.07639541,18.509391 L18.5096049,4.07618154 L19.9238185,5.4903951 L5.49060897,19.9236046 Z"/>
</svg>
