<svg height="24" viewBox="0 0 24 24" width="24" xmlns="http://www.w3.org/2000/svg"><path d="m16.8 20c-1.7673112 0-3.2-1.4326888-3.2-3.2s1.4326888-3.2 3.2-3.2 3.2 1.4326888 3.2 3.2-1.4326888 3.2-3.2 3.2zm-9.6-9.6c-1.7673112 0-3.2-1.4326888-3.2-3.2s1.4326888-3.2 3.2-3.2 3.2 1.4326888 3.2 3.2-1.4326888 3.2-3.2 3.2zm9.6 7.6c.6627417 0 1.2-.5372583 1.2-1.2s-.5372583-1.2-1.2-1.2-1.2.5372583-1.2 1.2.5372583 1.2 1.2 1.2zm-9.6-9.6c.6627417 0 1.2-.5372583 1.2-1.2s-.5372583-1.2-1.2-1.2-1.2.5372583-1.2 1.2.5372583 1.2 1.2 1.2zm-1.70939103 11.5236046-1.41421356-1.4142136 14.43320949-14.43320946 1.4142136 1.41421356z" fill="#492f5c" fill-rule="evenodd"/></svg>