<svg xmlns="http://www.w3.org/2000/svg" xmlns:xlink="http://www.w3.org/1999/xlink" width="24" height="24" viewBox="0 0 24 24">
  <defs>
    <path id="refresh-a" d="M12,16 C9.8,16 8,14.2 8,12 L6,12 L6,18 L8,18 L8,16.5 C9.1,17.5 10.5,18 12,18 C13.9,18 15.7,17.1 16.8,15.6 L15.2,14.4 C14.4,15.4 13.3,16 12,16 Z M16,6 L16,7.5 C14.9,6.6 13.5,6 12,6 C10.1,6 8.3,6.9 7.2,8.4 L8.8,9.6 C9.5,8.6 10.7,8 12,8 C14.2,8 16,9.8 16,12 L18,12 L18,6 L16,6 Z"/>
  </defs>
  <use fill="#492F5C" fill-rule="evenodd" xlink:href="#refresh-a"/>
</svg>
