<svg xmlns="http://www.w3.org/2000/svg" width="24" height="24" viewBox="0 0 24 24">
  <path fill="#492F5C" fill-rule="evenodd" d="M6,4 L4,4 L4,20 L6,20 L6,13 C6,11.8954305 6.8954305,11 8,11 L16,11 C17.1045695,11 18,11.8954305 18,13 L18,20 L20,20 L20,7.82842712 L18,5.82842712 L18,7 C18,8.1045695 17.1045695,9 16,9 L8,9 C6.8954305,9 6,8.1045695 6,7 L6,4 Z M4,2 L16.1715729,2 C16.7020059,2 17.2107137,2.21071368 17.5857864,2.58578644 L21.4142136,6.41421356 C21.7892863,6.78928632 22,7.29799415 22,7.82842712 L22,20 C22,21.1045695 21.1045695,22 20,22 L4,22 C2.8954305,22 2,21.1045695 2,20 L2,4 C2,2.8954305 2.8954305,2 4,2 Z M8,13 L8,20 L16,20 L16,13 L8,13 Z M8,4 L8,7 L16,7 L16,4 L8,4 Z M10,15 L14,15 L14,17 L10,17 L10,15 Z M13,4 L15,4 L15,6 L13,6 L13,4 Z"/>
</svg>
