<svg height="24" viewBox="0 0 24 24" width="24" xmlns="http://www.w3.org/2000/svg"><path d="m6 4h-2v16h2v-7c0-1.1045695.8954305-2 2-2h8c1.1045695 0 2 .8954305 2 2v7h2v-12.17157288l-2-2v1.17157288c0 1.1045695-.8954305 2-2 2h-8c-1.1045695 0-2-.8954305-2-2zm-2-2h12.1715729c.530433 0 1.0391408.21071368 1.4142135.58578644l3.8284272 3.82842712c.3750727.37507276.5857864.88378059.5857864 1.41421356v12.17157288c0 1.1045695-.8954305 2-2 2h-16c-1.1045695 0-2-.8954305-2-2v-16c0-1.1045695.8954305-2 2-2zm4 11v7h8v-7zm0-9v3h8v-3zm2 11h4v2h-4zm3-11h2v2h-2z" fill="#492f5c" fill-rule="evenodd"/></svg>