<svg xmlns="http://www.w3.org/2000/svg" xmlns:xlink="http://www.w3.org/1999/xlink" width="24" height="24" viewBox="0 0 24 24">
  <defs>
    <path id="security-shield-a" d="M18,2 L6,2 C4.9,2 4,2.9 4,4 L4,15.5 C4,16.1 4.3,16.7 4.8,17.1 L10.8,21.6 C11.5,22.1 12.5,22.1 13.2,21.6 L19.2,17.1 C19.7,16.7 20,16.1 20,15.5 L20,4 C20,2.9 19.1,2 18,2 Z M18,15.5 L12,20 L6,15.5 L6,4 L18,4 L18,15.5 Z M11,11.7 L11,15 L13,15 L13,11.7 C13.6,11.4 14,10.7 14,10 C14,8.9 13.1,8 12,8 C10.9,8 10,8.9 10,10 C10,10.7 10.4,11.4 11,11.7 Z"/>
  </defs>
  <use fill="#492F5C" fill-rule="evenodd" xlink:href="#security-shield-a"/>
</svg>
