<svg height="24" viewBox="0 0 24 24" width="24" xmlns="http://www.w3.org/2000/svg"><path d="m22.0596569 12.0168472-.9816656 4.581106h-2.9915972c-.1773543.2320603-.3178397.4092818-.4477392.5619769l.6164394 2.8356213-4.1759347 2.0044486-1.8711823-2.3701643h-.6624884l-1.87416988 2.2490039-4.1574587-1.9955802.603161-2.7745406c-.18651951-.1913631-.35553049-.400557-.50545585-.6230576h-2.9206022l-.99036111-4.6216852 2.65097914-1.3254896c.03418457-.2301688.08668539-.4616551.15615809-.68474374l-1.8205021-2.30596933 2.98073783-3.64312402 2.6129489 1.24426138.54346879-.2717344.75056773-2.87717629h4.58881806l.8725369 2.8669072.564007.28200349 2.6129489-1.24426138 2.9807378 3.64312402-1.8741985 2.37398481c.0186751.08280046.0400006.17834316.0654981.29308176.028037.1261669.0507399.2278031.070229.3139393zm-4.2648595-.2384121-.0987864-.3951456c-.04956-.1982403-.0880856-.3667894-.1742073-.7543373-.0823162-.3704228-.118652-.5293918-.1626685-.70545802l-.1137255-.45490174 1.4995761-1.89946298-1.0617723-1.29772167-2.1033129 1.00157757-2.1309998-1.06549988-.6995502-2.29852238h-1.6995311l-.5969356 2.28825329-2.15153798 1.07576897-2.10331289-1.00157757-1.06177228 1.29772167 1.5847621 2.00736533-.27118037.54236071c-.14506306.2901261-.23610854.6998308-.23610854 1.0329382v.5899021l-2.33667701 1.1683385.35714226 1.6666638h2.51329082l.26381221.5276244c.17976991.3595399.43290845.675963.72960221.8984833l.49016479.3676236-.53141802 2.4445229 1.45713867.6994266 1.49458853-1.7935063h2.4816861l1.4975761 1.8969298 1.4386628-.6905581-.5119583-2.355008.3684736-.3684736c.2366222-.2366223.4457763-.4980648.9219627-1.13298l.2863444-.3817926h2.4006296l.3658378-1.7072432zm-5.7947974-1.7784351c-1.1000682 0-2 .8999318-2 2s.8999318 2 2 2 2-.8999318 2-2-.8999318-2-2-2zm0-2c2.2046377 0 4 1.7953623 4 4s-1.7953623 4-4 4-4-1.7953623-4-4 1.7953623-4 4-4z" fill="#492f5c" fill-rule="evenodd"/></svg>