<svg height="24" viewBox="0 0 24 24" width="24" xmlns="http://www.w3.org/2000/svg"><path d="m10.5308033 7.77291134c-.3533899.04540616-.66235929.07107051-.93579225.09476068-.90124296.07600596-1.10557735.10561867-1.47476121.50242901-.81832465.88048463-1.32471856 2.01662567-1.61690686 2.87736847l2.09960983-.1697795c.36720961-.0305998.67914036-.2842821.79463371-.6485184.31587924-.9979484.69986998-1.87942012 1.13321678-2.65626026zm5.6966847 5.69649866c-.7778527.4323456-1.658366.8163237-2.6573341 1.1312056-.3632612.1154895-.6179388.4293843-.6475525.7985561l-.1697851 2.0975671c.8587967-.2921788 1.9949749-.7995432 2.8745011-1.6178412.3978104-.3691718.4284112-.5734995.5054068-1.4757001.0227038-.273424.0493561-.5813962.0947638-.9337875zm-5.6581869 6.53059.3849778-4.7607369c.0947638-1.1726634.8884104-2.161728 2.0216271-2.5200418 6.1596452-1.9465423 6.9878411-6.76255627 7.0579268-8.74956923-1.9860907.08094141-6.8160817.92391661-8.7538034 7.05473503-.3573384 1.1321927-1.34544817 1.9258133-2.51913697 2.0215611l-4.76089243.3839782.21420561-1.2516306c.02072958-.1253605.54291744-3.08959297 2.45990958-5.15162479.90124296-.96932276 1.76003965-1.04236745 2.75505925-1.12627014.69789566-.05922542 1.55669236-.13227011 2.85081016-.50539028 3.6977613-3.8407687 8.7547906-3.37979749 8.8179664-3.37584913l.8005565.0819285.0819311.79954322c.0059228.06712215.4609863 5.12299912-3.3739851 8.81767842-.3741195 1.2950626-.4471665 2.1538313-.5063939 2.8526913-.0848926.994-.1579396 1.8527686-1.1282812 2.7539821-2.061112 1.9169296-5.0244541 2.4391004-5.1498187 2.4608164zm-9.5693011 3 1.16745741-2.4608086c.21932284-.4618868 2.17187837-4.5392992 3.34224714-5.7085715.34839336-.3473854 1.07429372-.7559029 1.84580548-.8306199l.18729782 1.9309973c-.2697865.0261995-.5783912.1940701-.66087988.2726685-.3862411.3852291-1.00636187 1.4118598-1.61580763 2.5297035 1.1179642-.6093801 2.14470563-1.2304043 2.53094673-1.6156335.0776364-.0815094.24552512-.3910512.27172741-.6627493l1.93120552.1911591c-.07569549.7714285-.48425706 1.4962803-.83070951 1.8436657-1.16939832 1.1702426-5.24725038 3.1225876-5.70918697 3.3418868z" fill="#492f5c" fill-rule="evenodd"/></svg>