<svg height="24" viewBox="0 0 24 24" width="24" xmlns="http://www.w3.org/2000/svg"><path d="m15.7 19.9h2v2h-2zm-10.00000003 0h2v2h-2zm11.00000003-17.90000005-3.7 3.70000002 1.4 1.40000001 1.3-1.30000001v2.70000001l-4 3.60000002-4.00000002-3.60000002v-2.70000001l1.3 1.30000001 1.40000002-1.40000001-3.70000003-3.70000002-3.70000002 3.70000002 1.40000001 1.40000001 1.30000001-1.30000001v3.60000002l4.50000003 4.00000001-4.50000003 4.1v1.4h2.00000001v-.5l4.00000002-3.6 4 3.6v.5h2v-1.4l-4.5-4.1 4.5-4.00000001v-3.60000002l1.3 1.30000001 1.4-1.40000001z" fill="#492f5c" fill-rule="evenodd"/></svg>