<svg height="24" viewBox="0 0 24 24" width="24" xmlns="http://www.w3.org/2000/svg"><path d="m12 5.27272724-5.54545457 2 5.54545457 2.00000002 5.5454546-2.00000001zm.2727273-1.81818183 8.1818182 3.00000002c.8181818.27272727.8181818 1.45454546 0 1.72727273l-8.1818182 3.00000004c-.1818182.0909091-.4545455.0909091-.6363637 0l-8.18181819-3.00000004c-.81818182-.27272727-.81818182-1.45454546 0-1.72727273l8.18181819-3.00000002c.2727273-.09090909.4545455-.09090909.6363637 0zm7.6363636 7.45454549c.4545455-.1818182 1.0000001.0909091 1.1818182.5454546.1818182.4545454-.0909091 1-.5454545 1.1818181l-8.1818182 3.0000001c-.1818182.090909-.4545455.090909-.6363637 0l-8.1818182-3.0000001c-.54545455-.1818181-.72727273-.6363636-.54545455-1.1818181.18181819-.5454546.72727274-.7272728 1.18181819-.5454546l7.90909096 2.9090909zm0 4.5454546c.4545455-.1818182 1.0000001.0909091 1.1818182.5454545.1818182.4545455-.0909091 1-.5454545 1.1818182l-8.1818182 3c-.1818182.0909091-.4545455.0909091-.6363637 0l-8.1818182-3c-.45454545-.1818182-.72727273-.7272727-.54545455-1.1818182.18181819-.4545454.72727274-.7272727 1.18181819-.5454545l7.90909096 2.9090909z" fill="#492f5c" fill-rule="evenodd"/></svg>