<svg height="24" viewBox="0 0 24 24" width="24" xmlns="http://www.w3.org/2000/svg"><path d="m16.9424 17.2431-3.942 2.189v-7.561l6-3.321v5.198c0 1.451-.788 2.791-2.058 3.495zm-11.942-3.495v-5.242l6 3.361v7.565l-3.943-2.189c-1.269-.704-2.057-2.044-2.057-3.495zm5.058-9.245c.593-.329 1.264-.503 1.942-.503.677 0 1.348.174 1.941.503l4.113 2.284-6.051 3.351-6.019-3.374zm9.91 1.059-5.056-2.808c-.907-.503-1.909-.754-2.912-.754s-2.006.251-2.912.754l-5.057 2.808c-.637.353-1.031 1.024-1.031 1.751v6.435c0 2.179 1.181 4.186 3.087 5.244l4.94 2.743c.605.336 1.34.336 1.945 0l4.941-2.743c1.905-1.058 3.087-3.065 3.087-5.244v-6.435c0-.727-.395-1.398-1.032-1.751z" fill="#492f5c" fill-rule="evenodd"/></svg>