<svg xmlns="http://www.w3.org/2000/svg" xmlns:xlink="http://www.w3.org/1999/xlink" width="24" height="24" viewBox="0 0 24 24">
  <defs>
    <path id="stopwatch-a" d="M11,3.99998078 L10,3.99998078 L10,1.99999996 L13.9999617,1.99999996 L13.9999617,3.99998078 L13,3.99998078 L13,5.09999997 C16.9,5.59999997 20,8.89999998 20,13 C20,17.4 16.4,21 12,21 C7.59999998,21 3.99999996,17.4 3.99999996,13 C3.99999996,8.89999998 7.09999998,5.59999997 11,5.09999997 L11,3.99998078 Z M12,19 C15.3,19 18,16.3 18,13 C18,9.69999999 15.3,6.99999998 12,6.99999998 C8.69999998,6.99999998 5.99999997,9.69999999 5.99999997,13 C5.99999997,16.3 8.69999998,19 12,19 Z M3,6.82839997 L5.82840001,3.99999995 L7.24260002,5.41419996 L4.41420001,8.24259998 L3,6.82839997 Z M18.4142,3.99999995 L21.2426,6.82839997 L19.8284,8.24259998 L17,5.41419996 L18.4142,3.99999995 Z M14.5355339,9 L15.9497475,10.4142136 L12.4142136,13.9497475 L11,12.5355339 L14.5355339,9 Z"/>
  </defs>
  <use fill="#492F5C" fill-rule="evenodd" xlink:href="#stopwatch-a"/>
</svg>
