<svg height="24" viewBox="0 0 24 24" width="24" xmlns="http://www.w3.org/2000/svg"><path d="m11 3.99998078h-1v-1.99998082h3.9999617v1.99998082h-.9999617v1.10001919c3.9.5 7 3.80000001 7 7.90000003 0 4.4-3.6 8-8 8-4.40000002 0-8.00000004-3.6-8.00000004-8 0-4.10000002 3.10000002-7.40000003 7.00000004-7.90000003zm1 15.00001922c3.3 0 6-2.7 6-6 0-3.30000001-2.7-6.00000002-6-6.00000002-3.30000002 0-6.00000003 2.70000001-6.00000003 6.00000002 0 3.3 2.70000001 6 6.00000003 6zm-9-12.17160003 2.82840001-2.82840002 1.41420001 1.41420001-2.82840001 2.82840002zm15.4142-2.82840002 2.8284 2.82840002-1.4142 1.41420001-2.8284-2.82840002zm-3.8786661 5.00000005 1.4142136 1.4142136-3.5355339 3.5355339-1.4142136-1.4142136z" fill="#492f5c" fill-rule="evenodd"/></svg>