<svg height="24" viewBox="0 0 24 24" width="24" xmlns="http://www.w3.org/2000/svg"><path d="m11.9999999 12c-3.69999992 0-6.89999993 2.5-7.69999994 6h-2.30000001c0 1.1.9 2 2 2h15.99999995c1.1000001 0 2.0000002-.9 2-2h-2.2999999c-.8-3.5-4-6-7.7000001-6zm-5.69999993 6c.80000001-2.3 3-4 5.70000003-4 2.7 0 4.8 1.7 5.7 4zm13.40000003-12.00000003 2.2999999-.00000001c.0000002-1.1-.8999999-2-2-2h-15.99999995c-1.1 0-2 .9-2 2l2.30000001.00000001c.90000001 3.50000002 4.00000002 6.00000003 7.69999994 6.00000003 3.7000001 0 6.9000001-2.50000001 7.7000001-6.00000003zm-7.7 4.00000002c-2.60000001 0-4.80000002-1.70000001-5.70000003-4.00000002h11.30000003c-.8 2.30000001-3 4.00000002-5.6 4.00000002z" fill="#492f5c" fill-rule="evenodd"/></svg>