<svg height="24" viewBox="0 0 24 24" width="24" xmlns="http://www.w3.org/2000/svg"><path d="m16.5388584 8.8312545-7.59710745 7.5971075c.53599196 1.148401.31317018 2.5780142-.65801671 3.549201-.97118689.9711869-2.40080004 1.1940087-3.54920106.6580167l1.4870202-1.4870201c.41062929-.4106293.41990327-1.067117.02071401-1.4663062-.39918925-.3991893-1.05567689-.3899153-1.46630618.020714l-1.4870202 1.4870202c-.53599196-1.148401-.31317019-2.5780142.6580167-3.5492011s2.40080004-1.1940087 3.54920106-.6580167l7.59710753-7.59710748c-.5447038-1.1396892-.3453887-2.54579568.598167-3.48935138s2.3496622-1.1428708 3.4893514-.59816703l-1.4447131 1.44471306c-.3989465.39894649-.3987497 1.04596336.0004396 1.44515262.3991892.39918926 1.0462061.39938605 1.4451526.00043956l1.444713-1.44471306c.5447038 1.1396892.3453887 2.54579568-.598167 3.48935138s-2.3496622 1.1428708-3.4893514.59816703zm-8.25133088-2.18457367 2.88574438 2.8857444-1.44559215 1.44559217-2.89307069-2.89307068-1.44150805.00408413-2.16706959-2.16706959 2.89118435-2.89118436 2.16706959 2.1670696zm9.09110618 11.47156617.7252148-.7252148-4.1028884-4.0938821 1.4455922-1.4455921 4.1028883 4.093882.0013984-.0013983 1.4447131 1.444713-3.6139805 3.6139805-.1720264-.1720265-5.4364132-5.4039007 1.4455922-1.4455921z" fill="#492f5c" fill-rule="evenodd"/></svg>