<svg height="24" viewBox="0 0 24 24" width="24" xmlns="http://www.w3.org/2000/svg"><path d="m8.65903377 19.6190476c6.79574723 0 10.51273423-5.8630075 10.51273423-10.94738114 0-.16652862 0-.33230711-.0108052-.49733546.7231062-.54466045 1.3473037-1.21904993 1.8433662-1.99159223-.6743313.3111548-1.389671.51521002-2.1221403.60535402.7713065-.48084609 1.3485773-1.2371336 1.624381-2.12811569-.7252753.4481685-1.518745.7640153-2.346168.93391048-1.145291-1.26817221-2.9651476-1.57856182-4.4390987-.75712015-1.4739511.82144166-2.2354322 2.57042604-1.8574485 4.26622314-2.97078328-.15508949-5.73865636-1.61628528-7.61478091-4.01994077-.98066309 1.75803564-.47975937 4.00708317 1.14390996 5.1361326-.58798902-.0181475-1.16315806-.1833216-1.67696623-.48158278v.04875838c.00048128 1.8315095 1.24025734 3.4089872 2.9642251 3.7716481-.5439554.1544816-1.11467788.1770637-1.66832207.0660114.48403521 1.5673364 1.87115327 2.6410417 3.45189956 2.6719591-1.30833978 1.0707579-2.92456319 1.6520297-4.58860606 1.6502836-.29397076-.0005877-.5876556-.0191227-.87954285-.0555096 1.68967022 1.1291515 3.65569519 1.7280847 5.66336277 1.7252965" fill="#492f5c" fill-rule="evenodd"/></svg>