<svg xmlns="http://www.w3.org/2000/svg" width="24" height="24" viewBox="0 0 24 24">
  <path fill="#492F5C" fill-rule="evenodd" d="M12.532421,10.7429901 L12.1983189,11.3216719 L11.3235442,10.8166204 L10.3735532,12.462053 C10.0581109,12.3556666 9.7483499,12.2165827 9.44876944,12.0436198 C9.14918898,11.870657 8.87385825,11.6719381 8.62400376,11.4519502 L10,14.3337164 L10,15.3438192 L10.9499909,15.3438192 L14.0223446,15.3438192 L13.6808685,14.7523652 L14.5556432,14.2473137 L14.0806477,13.4245975 L14.5556432,14.2473137 L15.4304179,13.7422623 L15.9304179,14.6082877 L14.65644,15.3438192 L15.2675644,15.3438192 C15.6133738,14.7399784 16.2597176,14.3337164 17,14.3337164 C18.1045695,14.3337164 19,15.2381933 19,16.3539221 C19,17.4696509 18.1045695,18.3741278 17,18.3741278 C16.2597176,18.3741278 15.6133738,17.9678658 15.2675644,17.3640249 L11.8999819,17.3640249 C11.4367116,19.6693224 9.41895791,21.4044364 7,21.4044364 C4.23857625,21.4044364 2,19.1432441 2,16.3539221 C2,13.9105258 3.71775968,11.8723871 6,11.4044364 L6,13.4960438 C4.83480763,13.912041 4,15.0345067 4,16.3539221 C4,18.0275153 5.34314575,19.3842307 7,19.3842307 C8.65685425,19.3842307 10,18.0275153 10,16.3539221 C10,15.9997442 9.93984578,15.6597581 9.82929429,15.3438192 L10,15.3438192 L10,16.3539221 L9,16.3539221 L9,14.841117 L8.68976198,15.378465 C9.03979881,15.9798652 9.06846009,16.7427464 8.69831891,17.3838497 C8.14603416,18.340435 6.91501893,18.6636621 5.94876944,18.1057977 C4.98251995,17.5479332 4.64693522,16.3202292 5.19921997,15.363644 C5.56936115,14.7225407 6.24436626,14.3659215 6.94021251,14.3683622 L8.62400376,11.4519502 C6.85919275,9.89809755 6.36541681,7.28311466 7.57489576,5.18823566 C8.95560764,2.79677254 12.0331457,1.98870478 14.4487694,3.38336579 C16.5648127,4.60506394 17.4710128,7.11175682 16.7351498,9.32221026 L14.9237646,8.27640653 C15.1460967,7.05932177 14.5914167,5.77512428 13.4487694,5.1154166 C11.9993952,4.27861999 10.1528724,4.76346065 9.32444523,6.19833852 C8.49601811,7.63321639 8.9993952,9.47477241 10.4487694,10.311569 C10.7554964,10.4886579 11.0800102,10.6065559 11.408897,10.668785 L11.3235442,10.8166204 L10.4487694,10.311569 L10.9487694,9.44554362 L12.2006252,10.1683029 L12.532421,10.7429901 Z M15.3552017,11.5917783 C15.0397594,11.6981647 14.7299984,11.8372486 14.4304179,12.0102115 C14.1308375,12.1831744 13.8555067,12.3818933 13.6056523,12.6018812 L14.0806477,13.4245975 Z M13.6714105,8.67536631 C14.0214473,8.07396613 14.0501086,7.31108496 13.6799674,6.66998163 C13.1276827,5.71339638 11.8966674,5.39016928 10.9304179,5.94803368 C9.96416844,6.50589809 9.62858371,7.7336021 10.1808685,8.69018735 C10.5510096,9.33129067 11.2260148,9.68790986 11.921861,9.68546917 L12.2006252,10.1683029 Z"/>
</svg>
